<?xml version="1.0" encoding="utf-8" standalone="no"?>
<!DOCTYPE svg PUBLIC "-//W3C//DTD SVG 1.1//EN"
  "http://www.w3.org/Graphics/SVG/1.1/DTD/svg11.dtd">
<!-- Created with matplotlib (http://matplotlib.org/) -->
<svg height="345pt" version="1.1" viewBox="0 0 460 345" width="460pt" xmlns="http://www.w3.org/2000/svg" xmlns:xlink="http://www.w3.org/1999/xlink">
 <defs>
  <style type="text/css">
*{stroke-linecap:butt;stroke-linejoin:round;}
  </style>
 </defs>
 <g id="figure_1">
  <g id="patch_1">
   <path d="M 0 345.6 
L 460.8 345.6 
L 460.8 0 
L 0 0 
z
" style="fill:#ffffff;"/>
  </g>
  <g id="axes_1">
   <g id="text_1">
    <!-- Class 0 -->
    <defs>
     <path d="M 64.40625 67.28125 
L 64.40625 56.890625 
Q 59.421875 61.53125 53.78125 63.8125 
Q 48.140625 66.109375 41.796875 66.109375 
Q 29.296875 66.109375 22.65625 58.46875 
Q 16.015625 50.828125 16.015625 36.375 
Q 16.015625 21.96875 22.65625 14.328125 
Q 29.296875 6.6875 41.796875 6.6875 
Q 48.140625 6.6875 53.78125 8.984375 
Q 59.421875 11.28125 64.40625 15.921875 
L 64.40625 5.609375 
Q 59.234375 2.09375 53.4375 0.328125 
Q 47.65625 -1.421875 41.21875 -1.421875 
Q 24.65625 -1.421875 15.125 8.703125 
Q 5.609375 18.84375 5.609375 36.375 
Q 5.609375 53.953125 15.125 64.078125 
Q 24.65625 74.21875 41.21875 74.21875 
Q 47.75 74.21875 53.53125 72.484375 
Q 59.328125 70.75 64.40625 67.28125 
z
" id="DejaVuSans-43"/>
     <path d="M 9.421875 75.984375 
L 18.40625 75.984375 
L 18.40625 0 
L 9.421875 0 
z
" id="DejaVuSans-6c"/>
     <path d="M 34.28125 27.484375 
Q 23.390625 27.484375 19.1875 25 
Q 14.984375 22.515625 14.984375 16.5 
Q 14.984375 11.71875 18.140625 8.90625 
Q 21.296875 6.109375 26.703125 6.109375 
Q 34.1875 6.109375 38.703125 11.40625 
Q 43.21875 16.703125 43.21875 25.484375 
L 43.21875 27.484375 
z
M 52.203125 31.203125 
L 52.203125 0 
L 43.21875 0 
L 43.21875 8.296875 
Q 40.140625 3.328125 35.546875 0.953125 
Q 30.953125 -1.421875 24.3125 -1.421875 
Q 15.921875 -1.421875 10.953125 3.296875 
Q 6 8.015625 6 15.921875 
Q 6 25.140625 12.171875 29.828125 
Q 18.359375 34.515625 30.609375 34.515625 
L 43.21875 34.515625 
L 43.21875 35.40625 
Q 43.21875 41.609375 39.140625 45 
Q 35.0625 48.390625 27.6875 48.390625 
Q 23 48.390625 18.546875 47.265625 
Q 14.109375 46.140625 10.015625 43.890625 
L 10.015625 52.203125 
Q 14.9375 54.109375 19.578125 55.046875 
Q 24.21875 56 28.609375 56 
Q 40.484375 56 46.34375 49.84375 
Q 52.203125 43.703125 52.203125 31.203125 
z
" id="DejaVuSans-61"/>
     <path d="M 44.28125 53.078125 
L 44.28125 44.578125 
Q 40.484375 46.53125 36.375 47.5 
Q 32.28125 48.484375 27.875 48.484375 
Q 21.1875 48.484375 17.84375 46.4375 
Q 14.5 44.390625 14.5 40.28125 
Q 14.5 37.15625 16.890625 35.375 
Q 19.28125 33.59375 26.515625 31.984375 
L 29.59375 31.296875 
Q 39.15625 29.25 43.1875 25.515625 
Q 47.21875 21.78125 47.21875 15.09375 
Q 47.21875 7.46875 41.1875 3.015625 
Q 35.15625 -1.421875 24.609375 -1.421875 
Q 20.21875 -1.421875 15.453125 -0.5625 
Q 10.6875 0.296875 5.421875 2 
L 5.421875 11.28125 
Q 10.40625 8.6875 15.234375 7.390625 
Q 20.0625 6.109375 24.8125 6.109375 
Q 31.15625 6.109375 34.5625 8.28125 
Q 37.984375 10.453125 37.984375 14.40625 
Q 37.984375 18.0625 35.515625 20.015625 
Q 33.0625 21.96875 24.703125 23.78125 
L 21.578125 24.515625 
Q 13.234375 26.265625 9.515625 29.90625 
Q 5.8125 33.546875 5.8125 39.890625 
Q 5.8125 47.609375 11.28125 51.796875 
Q 16.75 56 26.8125 56 
Q 31.78125 56 36.171875 55.265625 
Q 40.578125 54.546875 44.28125 53.078125 
z
" id="DejaVuSans-73"/>
     <path id="DejaVuSans-20"/>
     <path d="M 31.78125 66.40625 
Q 24.171875 66.40625 20.328125 58.90625 
Q 16.5 51.421875 16.5 36.375 
Q 16.5 21.390625 20.328125 13.890625 
Q 24.171875 6.390625 31.78125 6.390625 
Q 39.453125 6.390625 43.28125 13.890625 
Q 47.125 21.390625 47.125 36.375 
Q 47.125 51.421875 43.28125 58.90625 
Q 39.453125 66.40625 31.78125 66.40625 
z
M 31.78125 74.21875 
Q 44.046875 74.21875 50.515625 64.515625 
Q 56.984375 54.828125 56.984375 36.375 
Q 56.984375 17.96875 50.515625 8.265625 
Q 44.046875 -1.421875 31.78125 -1.421875 
Q 19.53125 -1.421875 13.0625 8.265625 
Q 6.59375 17.96875 6.59375 36.375 
Q 6.59375 54.828125 13.0625 64.515625 
Q 19.53125 74.21875 31.78125 74.21875 
z
" id="DejaVuSans-30"/>
    </defs>
    <g transform="translate(57.6 101.952)scale(0.16 -0.16)">
     <use xlink:href="#DejaVuSans-43"/>
     <use x="69.824219" xlink:href="#DejaVuSans-6c"/>
     <use x="97.607422" xlink:href="#DejaVuSans-61"/>
     <use x="158.886719" xlink:href="#DejaVuSans-73"/>
     <use x="210.986328" xlink:href="#DejaVuSans-73"/>
     <use x="263.085938" xlink:href="#DejaVuSans-20"/>
     <use x="294.873047" xlink:href="#DejaVuSans-30"/>
    </g>
   </g>
  </g>
  <g id="axes_2">
   <g id="line2d_1">
    <path clip-path="url(#p416a45064d)" d="M 188.416684 101.952 
L 190.80385 93.350949 
L 193.191016 84.961684 
L 195.578182 76.990777 
L 197.965348 69.634498 
L 200.352513 63.073984 
L 202.739679 57.470775 
L 205.126845 52.962841 
L 207.514011 49.661184 
L 209.901176 47.647099 
L 212.288342 46.970182 
L 214.675508 47.647099 
L 217.062674 49.661184 
L 219.44984 52.962841 
L 221.837005 57.470775 
L 224.224171 63.073984 
L 226.611337 69.634498 
L 228.998503 76.990777 
L 231.385668 84.961684 
L 233.772834 93.350949 
L 236.16 101.952 
L 238.547166 110.553051 
L 240.934332 118.942316 
L 243.321497 126.913223 
L 245.708663 134.269502 
L 248.095829 140.830016 
L 250.482995 146.433225 
L 252.87016 150.941159 
L 255.257326 154.242816 
L 257.644492 156.256901 
L 260.031658 156.933818 
L 262.418824 156.256901 
L 264.805989 154.242816 
L 267.193155 150.941159 
L 269.580321 146.433225 
L 271.967487 140.830016 
L 274.354652 134.269502 
L 276.741818 126.913223 
L 279.128984 118.942316 
L 281.51615 110.553051 
L 283.903316 101.952 
" style="fill:none;stroke:#ff0000;stroke-linecap:square;stroke-width:1.5;"/>
   </g>
  </g>
  <g id="axes_3">
   <g id="line2d_2">
    <path clip-path="url(#pd967f2f1a8)" d="M 314.459037 46.970182 
L 316.846203 64.172284 
L 319.233369 80.950814 
L 321.620535 96.892628 
L 324.007701 111.605186 
L 326.394866 124.726215 
L 328.782032 135.932632 
L 331.169198 144.948499 
L 333.556364 151.551815 
L 335.943529 155.579983 
L 338.330695 156.933818 
L 340.717861 155.579983 
L 343.105027 151.551815 
L 345.492193 144.948499 
L 347.879358 135.932632 
L 350.266524 124.726215 
L 352.65369 111.605186 
L 355.040856 96.892628 
L 357.428021 80.950814 
L 359.815187 64.172284 
L 362.202353 46.970182 
L 364.589519 64.172284 
L 366.976684 80.950814 
L 369.36385 96.892628 
L 371.751016 111.605186 
L 374.138182 124.726215 
L 376.525348 135.932632 
L 378.912513 144.948499 
L 381.299679 151.551815 
L 383.686845 155.579983 
L 386.074011 156.933818 
L 388.461176 155.579983 
L 390.848342 151.551815 
L 393.235508 144.948499 
L 395.622674 135.932632 
L 398.00984 124.726215 
L 400.397005 111.605186 
L 402.784171 96.892628 
L 405.171337 80.950814 
L 407.558503 64.172284 
L 409.945668 46.970182 
" style="fill:none;stroke:#ff0000;stroke-linecap:square;stroke-width:1.5;"/>
   </g>
  </g>
  <g id="axes_4">
   <g id="text_2">
    <!-- Class 1 -->
    <defs>
     <path d="M 12.40625 8.296875 
L 28.515625 8.296875 
L 28.515625 63.921875 
L 10.984375 60.40625 
L 10.984375 69.390625 
L 28.421875 72.90625 
L 38.28125 72.90625 
L 38.28125 8.296875 
L 54.390625 8.296875 
L 54.390625 0 
L 12.40625 0 
z
" id="DejaVuSans-31"/>
    </defs>
    <g transform="translate(57.6 247.104)scale(0.16 -0.16)">
     <use xlink:href="#DejaVuSans-43"/>
     <use x="69.824219" xlink:href="#DejaVuSans-6c"/>
     <use x="97.607422" xlink:href="#DejaVuSans-61"/>
     <use x="158.886719" xlink:href="#DejaVuSans-73"/>
     <use x="210.986328" xlink:href="#DejaVuSans-73"/>
     <use x="263.085938" xlink:href="#DejaVuSans-20"/>
     <use x="294.873047" xlink:href="#DejaVuSans-31"/>
    </g>
   </g>
  </g>
  <g id="axes_5">
   <g id="line2d_3">
    <path clip-path="url(#p6f74353c17)" d="M 188.416684 247.104 
L 190.80385 255.705051 
L 193.191016 264.094316 
L 195.578182 272.065223 
L 197.965348 279.421502 
L 200.352513 285.982016 
L 202.739679 291.585225 
L 205.126845 296.093159 
L 207.514011 299.394816 
L 209.901176 301.408901 
L 212.288342 302.085818 
L 214.675508 301.408901 
L 217.062674 299.394816 
L 219.44984 296.093159 
L 221.837005 291.585225 
L 224.224171 285.982016 
L 226.611337 279.421502 
L 228.998503 272.065223 
L 231.385668 264.094316 
L 233.772834 255.705051 
L 236.16 247.104 
L 238.547166 238.502949 
L 240.934332 230.113684 
L 243.321497 222.142777 
L 245.708663 214.786498 
L 248.095829 208.225984 
L 250.482995 202.622775 
L 252.87016 198.114841 
L 255.257326 194.813184 
L 257.644492 192.799099 
L 260.031658 192.122182 
L 262.418824 192.799099 
L 264.805989 194.813184 
L 267.193155 198.114841 
L 269.580321 202.622775 
L 271.967487 208.225984 
L 274.354652 214.786498 
L 276.741818 222.142777 
L 279.128984 230.113684 
L 281.51615 238.502949 
L 283.903316 247.104 
" style="fill:none;stroke:#0000ff;stroke-linecap:square;stroke-width:1.5;"/>
   </g>
  </g>
  <g id="axes_6">
   <g id="line2d_4">
    <path clip-path="url(#p48ae6be80a)" d="M 314.459037 302.085818 
L 316.846203 284.883716 
L 319.233369 268.105186 
L 321.620535 252.163372 
L 324.007701 237.450814 
L 326.394866 224.329785 
L 328.782032 213.123368 
L 331.169198 204.107501 
L 333.556364 197.504185 
L 335.943529 193.476017 
L 338.330695 192.122182 
L 340.717861 193.476017 
L 343.105027 197.504185 
L 345.492193 204.107501 
L 347.879358 213.123368 
L 350.266524 224.329785 
L 352.65369 237.450814 
L 355.040856 252.163372 
L 357.428021 268.105186 
L 359.815187 284.883716 
L 362.202353 302.085818 
L 364.589519 284.883716 
L 366.976684 268.105186 
L 369.36385 252.163372 
L 371.751016 237.450814 
L 374.138182 224.329785 
L 376.525348 213.123368 
L 378.912513 204.107501 
L 381.299679 197.504185 
L 383.686845 193.476017 
L 386.074011 192.122182 
L 388.461176 193.476017 
L 390.848342 197.504185 
L 393.235508 204.107501 
L 395.622674 213.123368 
L 398.00984 224.329785 
L 400.397005 237.450814 
L 402.784171 252.163372 
L 405.171337 268.105186 
L 407.558503 284.883716 
L 409.945668 302.085818 
" style="fill:none;stroke:#0000ff;stroke-linecap:square;stroke-width:1.5;"/>
   </g>
  </g>
 </g>
 <defs>
  <clipPath id="p416a45064d">
   <rect height="120.96" width="105.035294" x="183.642353" y="41.472"/>
  </clipPath>
  <clipPath id="pd967f2f1a8">
   <rect height="120.96" width="105.035294" x="309.684706" y="41.472"/>
  </clipPath>
  <clipPath id="p6f74353c17">
   <rect height="120.96" width="105.035294" x="183.642353" y="186.624"/>
  </clipPath>
  <clipPath id="p48ae6be80a">
   <rect height="120.96" width="105.035294" x="309.684706" y="186.624"/>
  </clipPath>
 </defs>
</svg>
