<?xml version="1.0" encoding="utf-8" standalone="no"?>
<!DOCTYPE svg PUBLIC "-//W3C//DTD SVG 1.1//EN"
  "http://www.w3.org/Graphics/SVG/1.1/DTD/svg11.dtd">
<!-- Created with matplotlib (http://matplotlib.org/) -->
<svg height="310pt" version="1.1" viewBox="0 0 882 310" width="882pt" xmlns="http://www.w3.org/2000/svg" xmlns:xlink="http://www.w3.org/1999/xlink">
 <defs>
  <style type="text/css">
*{stroke-linecap:butt;stroke-linejoin:round;}
  </style>
 </defs>
 <g id="figure_1">
  <g id="patch_1">
   <path d="M 0 310.955677 
L 882.378823 310.955677 
L 882.378823 0 
L 0 0 
z
" style="fill:#ffffff;"/>
  </g>
  <g id="axes_1">
   <g id="line2d_1">
    <path clip-path="url(#pe3bc5bb25d)" d="M 72.724277 149.555733 
L 157.269732 56.36237 
L 241.815186 147.314879 
L 326.360641 242.882246 
L 410.906095 148.835896 
" style="fill:none;opacity:0.5;stroke:#440154;stroke-linecap:square;stroke-width:1.5;"/>
   </g>
   <g id="line2d_2">
    <path clip-path="url(#pe3bc5bb25d)" d="M 72.724277 148.509029 
L 157.269732 57.031938 
L 241.815186 149.198287 
L 326.360641 242.335772 
L 410.906095 148.899387 
" style="fill:none;opacity:0.5;stroke:#440154;stroke-linecap:square;stroke-width:1.5;"/>
   </g>
   <g id="line2d_3">
    <path clip-path="url(#pe3bc5bb25d)" d="M 72.724277 148.828556 
L 157.269732 57.052581 
L 241.815186 150.549044 
L 326.360641 241.194913 
L 410.906095 148.162875 
" style="fill:none;opacity:0.5;stroke:#440154;stroke-linecap:square;stroke-width:1.5;"/>
   </g>
   <g id="line2d_4">
    <path clip-path="url(#pe3bc5bb25d)" d="M 72.724277 148.305364 
L 157.269732 58.018617 
L 241.815186 149.583369 
L 326.360641 242.677055 
L 410.906095 148.928499 
" style="fill:none;opacity:0.5;stroke:#440154;stroke-linecap:square;stroke-width:1.5;"/>
   </g>
   <g id="line2d_5">
    <path clip-path="url(#pe3bc5bb25d)" d="M 72.724277 149.032811 
L 157.269732 55.714755 
L 241.815186 150.284703 
L 326.360641 243.276929 
L 410.906095 149.459665 
" style="fill:none;opacity:0.5;stroke:#440154;stroke-linecap:square;stroke-width:1.5;"/>
   </g>
   <g id="line2d_6">
    <path clip-path="url(#pe3bc5bb25d)" d="M 72.724277 149.241132 
L 157.269732 56.557539 
L 241.815186 150.782598 
L 326.360641 243.701134 
L 410.906095 148.948538 
" style="fill:none;opacity:0.5;stroke:#440154;stroke-linecap:square;stroke-width:1.5;"/>
   </g>
   <g id="line2d_7">
    <path clip-path="url(#pe3bc5bb25d)" d="M 72.724277 149.555487 
L 157.269732 57.43193 
L 241.815186 148.910207 
L 326.360641 241.048783 
L 410.906095 149.258049 
" style="fill:none;opacity:0.5;stroke:#440154;stroke-linecap:square;stroke-width:1.5;"/>
   </g>
   <g id="line2d_8">
    <path clip-path="url(#pe3bc5bb25d)" d="M 72.724277 148.809642 
L 157.269732 56.772372 
L 241.815186 148.957692 
L 326.360641 241.749783 
L 410.906095 148.308736 
" style="fill:none;opacity:0.5;stroke:#440154;stroke-linecap:square;stroke-width:1.5;"/>
   </g>
   <g id="line2d_9">
    <path clip-path="url(#pe3bc5bb25d)" d="M 72.724277 148.916307 
L 157.269732 57.631399 
L 241.815186 150.042318 
L 326.360641 241.696304 
L 410.906095 148.525514 
" style="fill:none;opacity:0.5;stroke:#440154;stroke-linecap:square;stroke-width:1.5;"/>
   </g>
   <g id="line2d_10">
    <path clip-path="url(#pe3bc5bb25d)" d="M 72.724277 149.256495 
L 157.269732 58.952377 
L 241.815186 148.885318 
L 326.360641 241.712413 
L 410.906095 148.572773 
" style="fill:none;opacity:0.5;stroke:#440154;stroke-linecap:square;stroke-width:1.5;"/>
   </g>
   <g id="line2d_11">
    <path clip-path="url(#pe3bc5bb25d)" d="M 72.724277 149.125979 
L 157.269732 58.360133 
L 241.815186 149.682122 
L 326.360641 242.694559 
L 410.906095 150.087096 
" style="fill:none;opacity:0.5;stroke:#440154;stroke-linecap:square;stroke-width:1.5;"/>
   </g>
   <g id="line2d_12">
    <path clip-path="url(#pe3bc5bb25d)" d="M 72.724277 148.574887 
L 157.269732 57.459734 
L 241.815186 149.437245 
L 326.360641 241.576407 
L 410.906095 150.157555 
" style="fill:none;opacity:0.5;stroke:#440154;stroke-linecap:square;stroke-width:1.5;"/>
   </g>
   <g id="line2d_13">
    <path clip-path="url(#pe3bc5bb25d)" d="M 72.724277 149.339451 
L 157.269732 55.663765 
L 241.815186 149.321301 
L 326.360641 240.839233 
L 410.906095 150.333958 
" style="fill:none;opacity:0.5;stroke:#440154;stroke-linecap:square;stroke-width:1.5;"/>
   </g>
   <g id="line2d_14">
    <path clip-path="url(#pe3bc5bb25d)" d="M 72.724277 149.174976 
L 157.269732 57.071154 
L 241.815186 150.020658 
L 326.360641 241.28118 
L 410.906095 148.852704 
" style="fill:none;opacity:0.5;stroke:#440154;stroke-linecap:square;stroke-width:1.5;"/>
   </g>
   <g id="line2d_15">
    <path clip-path="url(#pe3bc5bb25d)" d="M 72.724277 149.917729 
L 157.269732 57.807031 
L 241.815186 149.783817 
L 326.360641 241.372833 
L 410.906095 149.582563 
" style="fill:none;opacity:0.5;stroke:#440154;stroke-linecap:square;stroke-width:1.5;"/>
   </g>
   <g id="line2d_16">
    <path clip-path="url(#pe3bc5bb25d)" d="M 72.724277 149.625356 
L 157.269732 57.519758 
L 241.815186 151.569445 
L 326.360641 241.754417 
L 410.906095 150.162768 
" style="fill:none;opacity:0.5;stroke:#440154;stroke-linecap:square;stroke-width:1.5;"/>
   </g>
   <g id="line2d_17">
    <path clip-path="url(#pe3bc5bb25d)" d="M 72.724277 148.919238 
L 157.269732 56.450329 
L 241.815186 148.091626 
L 326.360641 242.393517 
L 410.906095 151.597134 
" style="fill:none;opacity:0.5;stroke:#440154;stroke-linecap:square;stroke-width:1.5;"/>
   </g>
   <g id="line2d_18">
    <path clip-path="url(#pe3bc5bb25d)" d="M 72.724277 147.869146 
L 157.269732 56.226519 
L 241.815186 147.549944 
L 326.360641 240.35615 
L 410.906095 150.728465 
" style="fill:none;opacity:0.5;stroke:#440154;stroke-linecap:square;stroke-width:1.5;"/>
   </g>
   <g id="line2d_19">
    <path clip-path="url(#pe3bc5bb25d)" d="M 72.724277 150.013252 
L 157.269732 56.614332 
L 241.815186 148.593987 
L 326.360641 242.041594 
L 410.906095 149.560401 
" style="fill:none;opacity:0.5;stroke:#440154;stroke-linecap:square;stroke-width:1.5;"/>
   </g>
   <g id="line2d_20">
    <path clip-path="url(#pe3bc5bb25d)" d="M 72.724277 149.654754 
L 157.269732 58.42902 
L 241.815186 149.773738 
L 326.360641 241.538917 
L 410.906095 149.028773 
" style="fill:none;opacity:0.5;stroke:#440154;stroke-linecap:square;stroke-width:1.5;"/>
   </g>
   <g id="line2d_21">
    <path clip-path="url(#pe3bc5bb25d)" d="M 72.724277 148.577421 
L 157.269732 56.52233 
L 241.815186 147.639775 
L 326.360641 241.730339 
L 410.906095 148.674752 
" style="fill:none;opacity:0.5;stroke:#440154;stroke-linecap:square;stroke-width:1.5;"/>
   </g>
   <g id="line2d_22">
    <path clip-path="url(#pe3bc5bb25d)" d="M 72.724277 148.648811 
L 157.269732 56.360896 
L 241.815186 151.607005 
L 326.360641 241.025107 
L 410.906095 149.950924 
" style="fill:none;opacity:0.5;stroke:#440154;stroke-linecap:square;stroke-width:1.5;"/>
   </g>
   <g id="line2d_23">
    <path clip-path="url(#pe3bc5bb25d)" d="M 72.724277 149.7101 
L 157.269732 56.394622 
L 241.815186 149.815084 
L 326.360641 242.101358 
L 410.906095 148.407132 
" style="fill:none;opacity:0.5;stroke:#440154;stroke-linecap:square;stroke-width:1.5;"/>
   </g>
   <g id="line2d_24">
    <path clip-path="url(#pe3bc5bb25d)" d="M 72.724277 149.848284 
L 157.269732 56.893863 
L 241.815186 149.740326 
L 326.360641 241.885223 
L 410.906095 150.406645 
" style="fill:none;opacity:0.5;stroke:#440154;stroke-linecap:square;stroke-width:1.5;"/>
   </g>
   <g id="line2d_25">
    <path clip-path="url(#pe3bc5bb25d)" d="M 72.724277 148.280538 
L 157.269732 57.498147 
L 241.815186 148.59719 
L 326.360641 242.528751 
L 410.906095 149.293681 
" style="fill:none;opacity:0.5;stroke:#440154;stroke-linecap:square;stroke-width:1.5;"/>
   </g>
   <g id="line2d_26">
    <path clip-path="url(#pe3bc5bb25d)" d="M 72.724277 53.816717 
L 157.269732 56.38525 
L 241.815186 143.072272 
L 326.360641 46.061707 
L 410.906095 148.593499 
" style="fill:none;opacity:0.5;stroke:#21918c;stroke-linecap:square;stroke-width:1.5;"/>
   </g>
   <g id="line2d_27">
    <path clip-path="url(#pe3bc5bb25d)" d="M 72.724277 55.497821 
L 157.269732 62.62835 
L 241.815186 148.967905 
L 326.360641 64.362197 
L 410.906095 141.539644 
" style="fill:none;opacity:0.5;stroke:#21918c;stroke-linecap:square;stroke-width:1.5;"/>
   </g>
   <g id="line2d_28">
    <path clip-path="url(#pe3bc5bb25d)" d="M 72.724277 56.145694 
L 157.269732 53.894801 
L 241.815186 151.288961 
L 326.360641 54.240576 
L 410.906095 152.870126 
" style="fill:none;opacity:0.5;stroke:#21918c;stroke-linecap:square;stroke-width:1.5;"/>
   </g>
   <g id="line2d_29">
    <path clip-path="url(#pe3bc5bb25d)" d="M 72.724277 63.085261 
L 157.269732 53.977378 
L 241.815186 157.309637 
L 326.360641 60.622865 
L 410.906095 148.16872 
" style="fill:none;opacity:0.5;stroke:#21918c;stroke-linecap:square;stroke-width:1.5;"/>
   </g>
   <g id="line2d_30">
    <path clip-path="url(#pe3bc5bb25d)" d="M 72.724277 53.064697 
L 157.269732 57.619263 
L 241.815186 150.198593 
L 326.360641 53.962145 
L 410.906095 161.406638 
" style="fill:none;opacity:0.5;stroke:#21918c;stroke-linecap:square;stroke-width:1.5;"/>
   </g>
   <g id="line2d_31">
    <path clip-path="url(#pe3bc5bb25d)" d="M 72.724277 239.95218 
L 157.269732 236.422592 
L 241.815186 151.481285 
L 326.360641 241.465119 
L 410.906095 146.286588 
" style="fill:none;opacity:0.5;stroke:#fde725;stroke-linecap:square;stroke-width:1.5;"/>
   </g>
   <g id="line2d_32">
    <path clip-path="url(#pe3bc5bb25d)" d="M 72.724277 242.365344 
L 157.269732 233.195679 
L 241.815186 149.661131 
L 326.360641 249.138935 
L 410.906095 149.782801 
" style="fill:none;opacity:0.5;stroke:#fde725;stroke-linecap:square;stroke-width:1.5;"/>
   </g>
   <g id="line2d_33">
    <path clip-path="url(#pe3bc5bb25d)" d="M 72.724277 245.247456 
L 157.269732 237.674462 
L 241.815186 149.250982 
L 326.360641 242.383976 
L 410.906095 157.497094 
" style="fill:none;opacity:0.5;stroke:#fde725;stroke-linecap:square;stroke-width:1.5;"/>
   </g>
   <g id="line2d_34">
    <path clip-path="url(#pe3bc5bb25d)" d="M 72.724277 252.085519 
L 157.269732 244.006395 
L 241.815186 157.211594 
L 326.360641 232.33897 
L 410.906095 152.477023 
" style="fill:none;opacity:0.5;stroke:#fde725;stroke-linecap:square;stroke-width:1.5;"/>
   </g>
   <g id="line2d_35">
    <path clip-path="url(#pe3bc5bb25d)" d="M 72.724277 243.112536 
L 157.269732 239.441922 
L 241.815186 149.90255 
L 326.360641 238.119195 
L 410.906095 149.98946 
" style="fill:none;opacity:0.5;stroke:#fde725;stroke-linecap:square;stroke-width:1.5;"/>
   </g>
   <g id="line2d_36">
    <path clip-path="url(#pe3bc5bb25d)" d="M 495.45155 148.674092 
L 579.997005 57.433245 
L 664.542459 150.370622 
L 749.087914 243.651874 
L 833.633368 149.607246 
" style="fill:none;opacity:0.5;stroke:#440154;stroke-linecap:square;stroke-width:1.5;"/>
   </g>
   <g id="line2d_37">
    <path clip-path="url(#pe3bc5bb25d)" d="M 495.45155 149.965981 
L 579.997005 57.439917 
L 664.542459 149.120618 
L 749.087914 241.501956 
L 833.633368 148.827735 
" style="fill:none;opacity:0.5;stroke:#440154;stroke-linecap:square;stroke-width:1.5;"/>
   </g>
   <g id="line2d_38">
    <path clip-path="url(#pe3bc5bb25d)" d="M 495.45155 149.701516 
L 579.997005 57.599609 
L 664.542459 149.439978 
L 749.087914 241.340096 
L 833.633368 148.899094 
" style="fill:none;opacity:0.5;stroke:#440154;stroke-linecap:square;stroke-width:1.5;"/>
   </g>
   <g id="line2d_39">
    <path clip-path="url(#pe3bc5bb25d)" d="M 495.45155 147.287492 
L 579.997005 56.597742 
L 664.542459 148.317359 
L 749.087914 242.262704 
L 833.633368 148.53997 
" style="fill:none;opacity:0.5;stroke:#440154;stroke-linecap:square;stroke-width:1.5;"/>
   </g>
   <g id="line2d_40">
    <path clip-path="url(#pe3bc5bb25d)" d="M 495.45155 148.25972 
L 579.997005 56.072896 
L 664.542459 149.76237 
L 749.087914 242.325595 
L 833.633368 148.562408 
" style="fill:none;opacity:0.5;stroke:#440154;stroke-linecap:square;stroke-width:1.5;"/>
   </g>
   <g id="line2d_41">
    <path clip-path="url(#pe3bc5bb25d)" d="M 495.45155 149.715331 
L 579.997005 56.129999 
L 664.542459 149.327445 
L 749.087914 242.2772 
L 833.633368 147.645947 
" style="fill:none;opacity:0.5;stroke:#440154;stroke-linecap:square;stroke-width:1.5;"/>
   </g>
   <g id="line2d_42">
    <path clip-path="url(#pe3bc5bb25d)" d="M 495.45155 149.494698 
L 579.997005 56.950414 
L 664.542459 147.982195 
L 749.087914 242.666919 
L 833.633368 148.222732 
" style="fill:none;opacity:0.5;stroke:#440154;stroke-linecap:square;stroke-width:1.5;"/>
   </g>
   <g id="line2d_43">
    <path clip-path="url(#pe3bc5bb25d)" d="M 495.45155 149.374076 
L 579.997005 56.079291 
L 664.542459 146.977629 
L 749.087914 242.741377 
L 833.633368 151.66349 
" style="fill:none;opacity:0.5;stroke:#440154;stroke-linecap:square;stroke-width:1.5;"/>
   </g>
   <g id="line2d_44">
    <path clip-path="url(#pe3bc5bb25d)" d="M 495.45155 147.18279 
L 579.997005 56.788428 
L 664.542459 149.398009 
L 749.087914 239.723246 
L 833.633368 147.49128 
" style="fill:none;opacity:0.5;stroke:#440154;stroke-linecap:square;stroke-width:1.5;"/>
   </g>
   <g id="line2d_45">
    <path clip-path="url(#pe3bc5bb25d)" d="M 495.45155 150.997816 
L 579.997005 55.806954 
L 664.542459 148.164102 
L 749.087914 241.048377 
L 833.633368 149.777869 
" style="fill:none;opacity:0.5;stroke:#440154;stroke-linecap:square;stroke-width:1.5;"/>
   </g>
   <g id="line2d_46">
    <path clip-path="url(#pe3bc5bb25d)" d="M 495.45155 148.86007 
L 579.997005 56.895852 
L 664.542459 149.254216 
L 749.087914 239.620246 
L 833.633368 150.159921 
" style="fill:none;opacity:0.5;stroke:#440154;stroke-linecap:square;stroke-width:1.5;"/>
   </g>
   <g id="line2d_47">
    <path clip-path="url(#pe3bc5bb25d)" d="M 495.45155 147.846483 
L 579.997005 58.60513 
L 664.542459 149.687367 
L 749.087914 240.081816 
L 833.633368 149.937466 
" style="fill:none;opacity:0.5;stroke:#440154;stroke-linecap:square;stroke-width:1.5;"/>
   </g>
   <g id="line2d_48">
    <path clip-path="url(#pe3bc5bb25d)" d="M 495.45155 148.303226 
L 579.997005 57.04376 
L 664.542459 149.575835 
L 749.087914 240.904675 
L 833.633368 149.657259 
" style="fill:none;opacity:0.5;stroke:#440154;stroke-linecap:square;stroke-width:1.5;"/>
   </g>
   <g id="line2d_49">
    <path clip-path="url(#pe3bc5bb25d)" d="M 495.45155 150.100251 
L 579.997005 56.668454 
L 664.542459 150.826286 
L 749.087914 242.297513 
L 833.633368 149.228511 
" style="fill:none;opacity:0.5;stroke:#440154;stroke-linecap:square;stroke-width:1.5;"/>
   </g>
   <g id="line2d_50">
    <path clip-path="url(#pe3bc5bb25d)" d="M 495.45155 149.883764 
L 579.997005 55.940843 
L 664.542459 148.869527 
L 749.087914 239.355305 
L 833.633368 149.998607 
" style="fill:none;opacity:0.5;stroke:#440154;stroke-linecap:square;stroke-width:1.5;"/>
   </g>
   <g id="line2d_51">
    <path clip-path="url(#pe3bc5bb25d)" d="M 495.45155 148.437321 
L 579.997005 57.388429 
L 664.542459 149.670101 
L 749.087914 242.334091 
L 833.633368 147.957699 
" style="fill:none;opacity:0.5;stroke:#440154;stroke-linecap:square;stroke-width:1.5;"/>
   </g>
   <g id="line2d_52">
    <path clip-path="url(#pe3bc5bb25d)" d="M 495.45155 147.246772 
L 579.997005 56.306028 
L 664.542459 147.948858 
L 749.087914 242.818038 
L 833.633368 149.898619 
" style="fill:none;opacity:0.5;stroke:#440154;stroke-linecap:square;stroke-width:1.5;"/>
   </g>
   <g id="line2d_53">
    <path clip-path="url(#pe3bc5bb25d)" d="M 495.45155 150.560345 
L 579.997005 57.799491 
L 664.542459 148.158089 
L 749.087914 241.73298 
L 833.633368 149.503345 
" style="fill:none;opacity:0.5;stroke:#440154;stroke-linecap:square;stroke-width:1.5;"/>
   </g>
   <g id="line2d_54">
    <path clip-path="url(#pe3bc5bb25d)" d="M 495.45155 149.552788 
L 579.997005 55.713814 
L 664.542459 149.869181 
L 749.087914 241.354764 
L 833.633368 148.371078 
" style="fill:none;opacity:0.5;stroke:#440154;stroke-linecap:square;stroke-width:1.5;"/>
   </g>
   <g id="line2d_55">
    <path clip-path="url(#pe3bc5bb25d)" d="M 495.45155 150.284663 
L 579.997005 57.709448 
L 664.542459 149.863958 
L 749.087914 241.670458 
L 833.633368 149.637424 
" style="fill:none;opacity:0.5;stroke:#440154;stroke-linecap:square;stroke-width:1.5;"/>
   </g>
   <g id="line2d_56">
    <path clip-path="url(#pe3bc5bb25d)" d="M 495.45155 148.730583 
L 579.997005 56.866544 
L 664.542459 150.206191 
L 749.087914 242.986509 
L 833.633368 148.048611 
" style="fill:none;opacity:0.5;stroke:#440154;stroke-linecap:square;stroke-width:1.5;"/>
   </g>
   <g id="line2d_57">
    <path clip-path="url(#pe3bc5bb25d)" d="M 495.45155 150.465387 
L 579.997005 56.244864 
L 664.542459 149.941234 
L 749.087914 241.995313 
L 833.633368 149.754161 
" style="fill:none;opacity:0.5;stroke:#440154;stroke-linecap:square;stroke-width:1.5;"/>
   </g>
   <g id="line2d_58">
    <path clip-path="url(#pe3bc5bb25d)" d="M 495.45155 148.324915 
L 579.997005 56.930101 
L 664.542459 149.233469 
L 749.087914 241.365874 
L 833.633368 148.645647 
" style="fill:none;opacity:0.5;stroke:#440154;stroke-linecap:square;stroke-width:1.5;"/>
   </g>
   <g id="line2d_59">
    <path clip-path="url(#pe3bc5bb25d)" d="M 495.45155 149.721595 
L 579.997005 56.773551 
L 664.542459 151.36003 
L 749.087914 241.383524 
L 833.633368 149.453853 
" style="fill:none;opacity:0.5;stroke:#440154;stroke-linecap:square;stroke-width:1.5;"/>
   </g>
   <g id="line2d_60">
    <path clip-path="url(#pe3bc5bb25d)" d="M 495.45155 150.033632 
L 579.997005 57.817947 
L 664.542459 150.622644 
L 749.087914 241.475962 
L 833.633368 148.47538 
" style="fill:none;opacity:0.5;stroke:#440154;stroke-linecap:square;stroke-width:1.5;"/>
   </g>
   <g id="line2d_61">
    <path clip-path="url(#pe3bc5bb25d)" d="M 495.45155 52.802891 
L 579.997005 48.077137 
L 664.542459 151.261876 
L 749.087914 55.796972 
L 833.633368 151.69398 
" style="fill:none;opacity:0.5;stroke:#21918c;stroke-linecap:square;stroke-width:1.5;"/>
   </g>
   <g id="line2d_62">
    <path clip-path="url(#pe3bc5bb25d)" d="M 495.45155 56.047664 
L 579.997005 58.828878 
L 664.542459 153.626715 
L 749.087914 54.764629 
L 833.633368 147.283306 
" style="fill:none;opacity:0.5;stroke:#21918c;stroke-linecap:square;stroke-width:1.5;"/>
   </g>
   <g id="line2d_63">
    <path clip-path="url(#pe3bc5bb25d)" d="M 495.45155 58.022877 
L 579.997005 48.48958 
L 664.542459 146.608584 
L 749.087914 56.234531 
L 833.633368 151.877333 
" style="fill:none;opacity:0.5;stroke:#21918c;stroke-linecap:square;stroke-width:1.5;"/>
   </g>
   <g id="line2d_64">
    <path clip-path="url(#pe3bc5bb25d)" d="M 495.45155 54.55084 
L 579.997005 52.005659 
L 664.542459 141.669883 
L 749.087914 55.152012 
L 833.633368 148.833351 
" style="fill:none;opacity:0.5;stroke:#21918c;stroke-linecap:square;stroke-width:1.5;"/>
   </g>
   <g id="line2d_65">
    <path clip-path="url(#pe3bc5bb25d)" d="M 495.45155 53.747458 
L 579.997005 48.67535 
L 664.542459 145.965675 
L 749.087914 62.063742 
L 833.633368 156.655331 
" style="fill:none;opacity:0.5;stroke:#21918c;stroke-linecap:square;stroke-width:1.5;"/>
   </g>
   <g id="line2d_66">
    <path clip-path="url(#pe3bc5bb25d)" d="M 495.45155 235.169022 
L 579.997005 245.485495 
L 664.542459 148.775968 
L 749.087914 246.757943 
L 833.633368 141.70281 
" style="fill:none;opacity:0.5;stroke:#fde725;stroke-linecap:square;stroke-width:1.5;"/>
   </g>
   <g id="line2d_67">
    <path clip-path="url(#pe3bc5bb25d)" d="M 495.45155 235.8931 
L 579.997005 246.027797 
L 664.542459 156.126367 
L 749.087914 249.125841 
L 833.633368 152.641867 
" style="fill:none;opacity:0.5;stroke:#fde725;stroke-linecap:square;stroke-width:1.5;"/>
   </g>
   <g id="line2d_68">
    <path clip-path="url(#pe3bc5bb25d)" d="M 495.45155 235.567747 
L 579.997005 245.385419 
L 664.542459 151.31961 
L 749.087914 243.220188 
L 833.633368 152.302106 
" style="fill:none;opacity:0.5;stroke:#fde725;stroke-linecap:square;stroke-width:1.5;"/>
   </g>
   <g id="line2d_69">
    <path clip-path="url(#pe3bc5bb25d)" d="M 495.45155 248.523611 
L 579.997005 244.266025 
L 664.542459 143.057611 
L 749.087914 246.229033 
L 833.633368 154.600838 
" style="fill:none;opacity:0.5;stroke:#fde725;stroke-linecap:square;stroke-width:1.5;"/>
   </g>
   <g id="line2d_70">
    <path clip-path="url(#pe3bc5bb25d)" d="M 495.45155 245.809413 
L 579.997005 234.002201 
L 664.542459 145.838174 
L 749.087914 244.33239 
L 833.633368 142.984593 
" style="fill:none;opacity:0.5;stroke:#fde725;stroke-linecap:square;stroke-width:1.5;"/>
   </g>
   <g id="text_1">
    <!-- train -->
    <defs>
     <path d="M 16.703125 37 
L 29.703125 37 
L 29.703125 42.765625 
L 16.703125 42.765625 
L 16.703125 55 
L 9.59375 55 
L 9.59375 42.765625 
L 1.703125 42.765625 
L 1.703125 37 
L 9.40625 37 
L 9.40625 11.703125 
C 9.40625 6 10.703125 -1 17.296875 -1 
C 22.296875 -1 26.90625 0.390625 31.296875 2.6875 
L 29.703125 8.5625 
C 27.296875 6.46875 24.40625 5.265625 21.296875 5.265625 
C 16.90625 5.265625 16.703125 10.875 16.703125 13.375 
z
" id="CMSS17-116"/>
     <path d="M 14.90625 21.296875 
C 14.90625 30.703125 21.796875 37 30.59375 37 
L 30.59375 43.578125 
C 24.203125 43.578125 18.203125 40.390625 14.59375 35.203125 
L 14.59375 43.09375 
L 7.5 43.09375 
L 7.5 0 
L 14.90625 0 
z
" id="CMSS17-114"/>
     <path d="M 37.59375 27.984375 
C 37.59375 37.375 30.90625 43.875 21.90625 43.875 
C 17.5 43.875 12.703125 43.078125 7.203125 39.890625 
L 7.796875 33.359375 
C 10.296875 35.125 14.59375 38 21.796875 38 
C 26.90625 38 30 34.0625 30 27.84375 
L 30 24 
C 14 24 4 19.34375 4 11.34375 
C 4 7.203125 6.5 -1 14.796875 -1 
C 16.296875 -1 24.40625 -1 30.203125 3.390625 
L 30.203125 -0.296875 
L 37.59375 -0.296875 
z
M 30 12.75 
C 30 10.953125 30 8.5625 27 6.78125 
C 24.40625 5.078125 21.09375 5.078125 19.703125 5.078125 
C 14.703125 5.078125 11.296875 7.984375 11.296875 11.625 
C 11.296875 18.921875 26.90625 18.921875 30 18.921875 
z
" id="CMSS17-97"/>
     <path d="M 15.296875 65.359375 
L 6.90625 65.359375 
L 6.90625 57 
L 15.296875 57 
z
M 14.796875 42.796875 
L 7.40625 42.796875 
L 7.40625 0 
L 14.796875 0 
z
" id="CMSS17-105"/>
     <path d="M 40.90625 29.328125 
C 40.90625 35.671875 39.40625 44 28.09375 44 
C 21.703125 44 17.5 40.71875 14.703125 37.328125 
L 14.703125 43.09375 
L 7.40625 43.09375 
L 7.40625 0 
L 15 0 
L 15 24.359375 
C 15 30.6875 17.40625 37.9375 24.203125 37.9375 
C 33 37.9375 33.296875 32 33.296875 28.578125 
L 33.296875 0 
L 40.90625 0 
z
" id="CMSS17-110"/>
    </defs>
    <g transform="translate(220.089323 39.776824)scale(0.24 -0.24)">
     <use transform="scale(0.996264)" xlink:href="#CMSS17-116"/>
     <use transform="translate(33.831567 0)scale(0.996264)" xlink:href="#CMSS17-114"/>
     <use transform="translate(65.741339 0)scale(0.996264)" xlink:href="#CMSS17-97"/>
     <use transform="translate(110.66326 0)scale(0.996264)" xlink:href="#CMSS17-105"/>
     <use transform="translate(132.843983 0)scale(0.996264)" xlink:href="#CMSS17-110"/>
    </g>
   </g>
   <g id="text_2">
    <!-- test -->
    <defs>
     <path d="M 39.09375 21.515625 
C 39.09375 24.84375 38.90625 31.296875 35.703125 36.640625 
C 32.203125 42.390625 26.5 44 22.203125 44 
C 11.796875 44 3 34.1875 3 21.484375 
C 3 9.09375 12.09375 -1 23.59375 -1 
C 28.09375 -1 33.59375 0.296875 38.59375 3.875 
C 38.59375 4.28125 38.40625 6.46875 38.296875 6.5625 
C 38.296875 6.765625 38 9.84375 38 10.25 
C 33.203125 6.359375 27.703125 5.078125 23.703125 5.078125 
C 17.296875 5.078125 10.40625 10.421875 10.09375 21.515625 
z
M 10.90625 27 
C 12.203125 32.5625 16.59375 37.828125 22.203125 37.828125 
C 23.703125 37.828125 30.703125 37.828125 32.5 27 
z
" id="CMSS17-101"/>
     <path d="M 32.203125 41.046875 
C 26.296875 43.859375 21.703125 43.859375 18.703125 43.859375 
C 11.59375 43.859375 3.09375 41.375 3.09375 31.296875 
C 3.09375 21.234375 14.09375 19.03125 17.09375 18.421875 
C 21.703125 17.53125 26.796875 16.53125 26.796875 11.5625 
C 26.796875 5.265625 19.59375 5.265625 18.296875 5.265625 
C 14.296875 5.265625 8.796875 6.359375 3.796875 9.96875 
L 2.59375 3.28125 
C 8.296875 0 13.796875 -1 18.40625 -1 
C 30.703125 -1 33.796875 6.5 33.796875 12.203125 
C 33.796875 17.09375 31 20.390625 29.09375 21.890625 
C 25.796875 24.5 24.59375 24.796875 16.40625 26.5 
C 15 26.703125 10.09375 27.796875 10.09375 32.28125 
C 10.09375 38 16.40625 38 17.796875 38 
C 24.296875 38 28.296875 35.984375 31 34.5 
z
" id="CMSS17-115"/>
    </defs>
    <g transform="translate(647.116603 39.776824)scale(0.24 -0.24)">
     <use transform="scale(0.996264)" xlink:href="#CMSS17-116"/>
     <use transform="translate(33.831567 0)scale(0.996264)" xlink:href="#CMSS17-101"/>
     <use transform="translate(75.470389 0)scale(0.996264)" xlink:href="#CMSS17-115"/>
     <use transform="translate(111.383931 0)scale(0.996264)" xlink:href="#CMSS17-116"/>
    </g>
   </g>
   <g id="legend_1">
    <g id="patch_2">
     <path d="M 199.90991 296.69 
L 706.447735 296.69 
Q 711.247735 296.69 711.247735 291.89 
L 711.247735 260.839243 
Q 711.247735 256.039243 706.447735 256.039243 
L 199.90991 256.039243 
Q 195.10991 256.039243 195.10991 260.839243 
L 195.10991 291.89 
Q 195.10991 296.69 199.90991 296.69 
z
" style="fill:#ffffff;opacity:0.8;stroke:#cccccc;stroke-linejoin:miter;"/>
    </g>
    <g id="line2d_71">
     <path d="M 204.70991 274.039243 
L 252.70991 274.039243 
" style="fill:none;opacity:0.5;stroke:#440154;stroke-linecap:square;stroke-width:1.5;"/>
    </g>
    <g id="line2d_72"/>
    <g id="text_3">
     <!-- Class 0 -->
     <defs>
      <path d="M 54.703125 11.15625 
C 48 6.671875 44.90625 5.375 36.796875 5.375 
C 22.796875 5.375 14.59375 20.359375 14.59375 34.046875 
C 14.59375 48.625 23 63 37.203125 63 
C 43.59375 63 47.796875 61.21875 52.90625 58.046875 
L 54.296875 65.890625 
C 49.5 68.28125 43.40625 69.375 37.296875 69.375 
C 18.09375 69.375 6.203125 51.8125 6.203125 34.046875 
C 6.203125 14.484375 20.296875 -1 36.296875 -1 
C 44.90625 -1 47.90625 -0.296875 55.296875 4.375 
z
" id="CMSS17-67"/>
      <path d="M 14.796875 69 
L 7.40625 69 
L 7.40625 0 
L 14.796875 0 
z
" id="CMSS17-108"/>
      <path d="M 43.09375 31.9375 
C 43.09375 37.578125 43 48.078125 38.90625 56.1875 
C 34.796875 64 28.203125 66.078125 23.5 66.078125 
C 16.703125 66.078125 10.90625 62.109375 7.90625 55.78125 
C 4.703125 49.15625 3.796875 42.328125 3.796875 31.9375 
C 3.796875 24.828125 4.09375 16.109375 7.703125 8.484375 
C 11.796875 0.078125 18.703125 -2 23.40625 -2 
C 29.59375 -2 35.59375 1.265625 39 8.09375 
C 42.5 15.21875 43.09375 23.03125 43.09375 31.9375 
z
M 23.40625 4.078125 
C 15.796875 4.078125 13.5 12.671875 12.796875 15.546875 
C 11.59375 20.46875 11.40625 25.21875 11.40625 33.03125 
C 11.40625 39.15625 11.40625 46.0625 13.296875 51.515625 
C 15.59375 57.828125 19.59375 60 23.40625 60 
C 30.796875 60 33.203125 52.6875 34 50.125 
C 35.5 44.890625 35.5 38.765625 35.5 33.03125 
C 35.5 23.84375 35.5 4.078125 23.40625 4.078125 
z
" id="CMSS17-48"/>
     </defs>
     <g transform="translate(271.90991 282.439243)scale(0.24 -0.24)">
      <use transform="scale(0.996264)" xlink:href="#CMSS17-67"/>
      <use transform="translate(59.855772 0)scale(0.996264)" xlink:href="#CMSS17-108"/>
      <use transform="translate(82.036495 0)scale(0.996264)" xlink:href="#CMSS17-97"/>
      <use transform="translate(126.958415 0)scale(0.996264)" xlink:href="#CMSS17-115"/>
      <use transform="translate(162.871957 0)scale(0.996264)" xlink:href="#CMSS17-115"/>
      <use transform="translate(230.014612 0)scale(0.996264)" xlink:href="#CMSS17-48"/>
     </g>
    </g>
    <g id="line2d_73">
     <path d="M 386.355852 274.039243 
L 434.355852 274.039243 
" style="fill:none;opacity:0.5;stroke:#21918c;stroke-linecap:square;stroke-width:1.5;"/>
    </g>
    <g id="line2d_74"/>
    <g id="text_4">
     <!-- Class 1 -->
     <defs>
      <path d="M 28.40625 67 
L 26.5 67 
C 21.09375 61.5625 14.796875 60.78125 8.40625 60.78125 
L 8.40625 55 
C 11.296875 55 16 55 20.703125 57.296875 
L 20.703125 5.765625 
L 8.90625 5.765625 
L 8.90625 0 
L 40.203125 0 
L 40.203125 5.765625 
L 28.40625 5.765625 
z
" id="CMSS17-49"/>
     </defs>
     <g transform="translate(453.555852 282.439243)scale(0.24 -0.24)">
      <use transform="scale(0.996264)" xlink:href="#CMSS17-67"/>
      <use transform="translate(59.855772 0)scale(0.996264)" xlink:href="#CMSS17-108"/>
      <use transform="translate(82.036495 0)scale(0.996264)" xlink:href="#CMSS17-97"/>
      <use transform="translate(126.958415 0)scale(0.996264)" xlink:href="#CMSS17-115"/>
      <use transform="translate(162.871957 0)scale(0.996264)" xlink:href="#CMSS17-115"/>
      <use transform="translate(230.014612 0)scale(0.996264)" xlink:href="#CMSS17-49"/>
     </g>
    </g>
    <g id="line2d_75">
     <path d="M 568.001794 274.039243 
L 616.001794 274.039243 
" style="fill:none;opacity:0.5;stroke:#fde725;stroke-linecap:square;stroke-width:1.5;"/>
    </g>
    <g id="line2d_76"/>
    <g id="text_5">
     <!-- Class 2 -->
     <defs>
      <path d="M 25.796875 21.203125 
C 28.59375 24.078125 32.796875 27.5625 35.703125 31.046875 
C 38.5 34.4375 42.203125 39.234375 42.203125 46.203125 
C 42.203125 57.140625 34.796875 67 22.203125 67 
C 12.296875 67 6.59375 60.828125 3.90625 51.15625 
L 7.796875 45.765625 
C 10 54.84375 13.09375 60.625 20.90625 60.625 
C 29.5 60.625 34.296875 53.640625 34.296875 45.96875 
C 34.296875 36.796875 27.296875 29.703125 22 24.421875 
C 16.09375 18.546875 10.296875 12.5625 4.703125 6.375 
L 4.703125 0 
L 42.203125 0 
L 42.203125 6.765625 
L 25.203125 6.765625 
C 24 6.765625 22.796875 6.765625 21.59375 6.765625 
L 11.59375 6.765625 
L 11.59375 6.859375 
z
" id="CMSS17-50"/>
     </defs>
     <g transform="translate(635.201794 282.439243)scale(0.24 -0.24)">
      <use transform="scale(0.996264)" xlink:href="#CMSS17-67"/>
      <use transform="translate(59.855772 0)scale(0.996264)" xlink:href="#CMSS17-108"/>
      <use transform="translate(82.036495 0)scale(0.996264)" xlink:href="#CMSS17-97"/>
      <use transform="translate(126.958415 0)scale(0.996264)" xlink:href="#CMSS17-115"/>
      <use transform="translate(162.871957 0)scale(0.996264)" xlink:href="#CMSS17-115"/>
      <use transform="translate(230.014612 0)scale(0.996264)" xlink:href="#CMSS17-50"/>
     </g>
    </g>
   </g>
  </g>
 </g>
 <defs>
  <clipPath id="pe3bc5bb25d">
   <rect height="277.2" width="837" x="34.678823" y="10.7"/>
  </clipPath>
 </defs>
</svg>
