<?xml version="1.0" encoding="utf-8" standalone="no"?>
<!DOCTYPE svg PUBLIC "-//W3C//DTD SVG 1.1//EN"
  "http://www.w3.org/Graphics/SVG/1.1/DTD/svg11.dtd">
<!-- Created with matplotlib (http://matplotlib.org/) -->
<svg height="323pt" version="1.1" viewBox="0 0 886 323" width="886pt" xmlns="http://www.w3.org/2000/svg" xmlns:xlink="http://www.w3.org/1999/xlink">
 <defs>
  <style type="text/css">
*{stroke-linecap:butt;stroke-linejoin:round;}
  </style>
 </defs>
 <g id="figure_1">
  <g id="patch_1">
   <path d="M 0 323.39625 
L 886.182812 323.39625 
L 886.182812 0 
L 0 0 
z
" style="fill:#ffffff;"/>
  </g>
  <g id="axes_1">
   <g id="line2d_1">
    <path clip-path="url(#pd182d07cfc)" d="M 76.528267 161.173858 
L 161.073722 67.980495 
L 245.619176 158.933004 
L 330.164631 254.500371 
L 414.710085 160.454021 
" style="fill:none;opacity:0.5;stroke:#440154;stroke-linecap:square;stroke-width:1.5;"/>
   </g>
   <g id="line2d_2">
    <path clip-path="url(#pd182d07cfc)" d="M 76.528267 160.127154 
L 161.073722 68.650063 
L 245.619176 160.816412 
L 330.164631 253.953897 
L 414.710085 160.517512 
" style="fill:none;opacity:0.5;stroke:#440154;stroke-linecap:square;stroke-width:1.5;"/>
   </g>
   <g id="line2d_3">
    <path clip-path="url(#pd182d07cfc)" d="M 76.528267 160.446681 
L 161.073722 68.670706 
L 245.619176 162.167169 
L 330.164631 252.813038 
L 414.710085 159.781 
" style="fill:none;opacity:0.5;stroke:#440154;stroke-linecap:square;stroke-width:1.5;"/>
   </g>
   <g id="line2d_4">
    <path clip-path="url(#pd182d07cfc)" d="M 76.528267 159.923489 
L 161.073722 69.636742 
L 245.619176 161.201494 
L 330.164631 254.29518 
L 414.710085 160.546624 
" style="fill:none;opacity:0.5;stroke:#440154;stroke-linecap:square;stroke-width:1.5;"/>
   </g>
   <g id="line2d_5">
    <path clip-path="url(#pd182d07cfc)" d="M 76.528267 160.650936 
L 161.073722 67.33288 
L 245.619176 161.902828 
L 330.164631 254.895054 
L 414.710085 161.07779 
" style="fill:none;opacity:0.5;stroke:#440154;stroke-linecap:square;stroke-width:1.5;"/>
   </g>
   <g id="line2d_6">
    <path clip-path="url(#pd182d07cfc)" d="M 76.528267 160.859257 
L 161.073722 68.175664 
L 245.619176 162.400723 
L 330.164631 255.319259 
L 414.710085 160.566663 
" style="fill:none;opacity:0.5;stroke:#440154;stroke-linecap:square;stroke-width:1.5;"/>
   </g>
   <g id="line2d_7">
    <path clip-path="url(#pd182d07cfc)" d="M 76.528267 161.173612 
L 161.073722 69.050055 
L 245.619176 160.528332 
L 330.164631 252.666908 
L 414.710085 160.876174 
" style="fill:none;opacity:0.5;stroke:#440154;stroke-linecap:square;stroke-width:1.5;"/>
   </g>
   <g id="line2d_8">
    <path clip-path="url(#pd182d07cfc)" d="M 76.528267 160.427767 
L 161.073722 68.390497 
L 245.619176 160.575817 
L 330.164631 253.367908 
L 414.710085 159.926861 
" style="fill:none;opacity:0.5;stroke:#440154;stroke-linecap:square;stroke-width:1.5;"/>
   </g>
   <g id="line2d_9">
    <path clip-path="url(#pd182d07cfc)" d="M 76.528267 160.534432 
L 161.073722 69.249524 
L 245.619176 161.660443 
L 330.164631 253.314429 
L 414.710085 160.143639 
" style="fill:none;opacity:0.5;stroke:#440154;stroke-linecap:square;stroke-width:1.5;"/>
   </g>
   <g id="line2d_10">
    <path clip-path="url(#pd182d07cfc)" d="M 76.528267 160.87462 
L 161.073722 70.570502 
L 245.619176 160.503443 
L 330.164631 253.330538 
L 414.710085 160.190898 
" style="fill:none;opacity:0.5;stroke:#440154;stroke-linecap:square;stroke-width:1.5;"/>
   </g>
   <g id="line2d_11">
    <path clip-path="url(#pd182d07cfc)" d="M 76.528267 160.744104 
L 161.073722 69.978258 
L 245.619176 161.300247 
L 330.164631 254.312684 
L 414.710085 161.705221 
" style="fill:none;opacity:0.5;stroke:#440154;stroke-linecap:square;stroke-width:1.5;"/>
   </g>
   <g id="line2d_12">
    <path clip-path="url(#pd182d07cfc)" d="M 76.528267 160.193012 
L 161.073722 69.077859 
L 245.619176 161.05537 
L 330.164631 253.194532 
L 414.710085 161.77568 
" style="fill:none;opacity:0.5;stroke:#440154;stroke-linecap:square;stroke-width:1.5;"/>
   </g>
   <g id="line2d_13">
    <path clip-path="url(#pd182d07cfc)" d="M 76.528267 160.957576 
L 161.073722 67.28189 
L 245.619176 160.939426 
L 330.164631 252.457358 
L 414.710085 161.952083 
" style="fill:none;opacity:0.5;stroke:#440154;stroke-linecap:square;stroke-width:1.5;"/>
   </g>
   <g id="line2d_14">
    <path clip-path="url(#pd182d07cfc)" d="M 76.528267 160.793101 
L 161.073722 68.689279 
L 245.619176 161.638783 
L 330.164631 252.899305 
L 414.710085 160.470829 
" style="fill:none;opacity:0.5;stroke:#440154;stroke-linecap:square;stroke-width:1.5;"/>
   </g>
   <g id="line2d_15">
    <path clip-path="url(#pd182d07cfc)" d="M 76.528267 161.535854 
L 161.073722 69.425156 
L 245.619176 161.401942 
L 330.164631 252.990958 
L 414.710085 161.200688 
" style="fill:none;opacity:0.5;stroke:#440154;stroke-linecap:square;stroke-width:1.5;"/>
   </g>
   <g id="line2d_16">
    <path clip-path="url(#pd182d07cfc)" d="M 76.528267 161.243481 
L 161.073722 69.137883 
L 245.619176 163.18757 
L 330.164631 253.372542 
L 414.710085 161.780893 
" style="fill:none;opacity:0.5;stroke:#440154;stroke-linecap:square;stroke-width:1.5;"/>
   </g>
   <g id="line2d_17">
    <path clip-path="url(#pd182d07cfc)" d="M 76.528267 160.537363 
L 161.073722 68.068454 
L 245.619176 159.709751 
L 330.164631 254.011642 
L 414.710085 163.215259 
" style="fill:none;opacity:0.5;stroke:#440154;stroke-linecap:square;stroke-width:1.5;"/>
   </g>
   <g id="line2d_18">
    <path clip-path="url(#pd182d07cfc)" d="M 76.528267 159.487271 
L 161.073722 67.844644 
L 245.619176 159.168069 
L 330.164631 251.974275 
L 414.710085 162.34659 
" style="fill:none;opacity:0.5;stroke:#440154;stroke-linecap:square;stroke-width:1.5;"/>
   </g>
   <g id="line2d_19">
    <path clip-path="url(#pd182d07cfc)" d="M 76.528267 161.631377 
L 161.073722 68.232457 
L 245.619176 160.212112 
L 330.164631 253.659719 
L 414.710085 161.178526 
" style="fill:none;opacity:0.5;stroke:#440154;stroke-linecap:square;stroke-width:1.5;"/>
   </g>
   <g id="line2d_20">
    <path clip-path="url(#pd182d07cfc)" d="M 76.528267 161.272879 
L 161.073722 70.047145 
L 245.619176 161.391863 
L 330.164631 253.157042 
L 414.710085 160.646898 
" style="fill:none;opacity:0.5;stroke:#440154;stroke-linecap:square;stroke-width:1.5;"/>
   </g>
   <g id="line2d_21">
    <path clip-path="url(#pd182d07cfc)" d="M 76.528267 160.195546 
L 161.073722 68.140455 
L 245.619176 159.2579 
L 330.164631 253.348464 
L 414.710085 160.292877 
" style="fill:none;opacity:0.5;stroke:#440154;stroke-linecap:square;stroke-width:1.5;"/>
   </g>
   <g id="line2d_22">
    <path clip-path="url(#pd182d07cfc)" d="M 76.528267 160.266936 
L 161.073722 67.979021 
L 245.619176 163.22513 
L 330.164631 252.643232 
L 414.710085 161.569049 
" style="fill:none;opacity:0.5;stroke:#440154;stroke-linecap:square;stroke-width:1.5;"/>
   </g>
   <g id="line2d_23">
    <path clip-path="url(#pd182d07cfc)" d="M 76.528267 161.328225 
L 161.073722 68.012747 
L 245.619176 161.433209 
L 330.164631 253.719483 
L 414.710085 160.025257 
" style="fill:none;opacity:0.5;stroke:#440154;stroke-linecap:square;stroke-width:1.5;"/>
   </g>
   <g id="line2d_24">
    <path clip-path="url(#pd182d07cfc)" d="M 76.528267 161.466409 
L 161.073722 68.511988 
L 245.619176 161.358451 
L 330.164631 253.503348 
L 414.710085 162.02477 
" style="fill:none;opacity:0.5;stroke:#440154;stroke-linecap:square;stroke-width:1.5;"/>
   </g>
   <g id="line2d_25">
    <path clip-path="url(#pd182d07cfc)" d="M 76.528267 159.898663 
L 161.073722 69.116272 
L 245.619176 160.215315 
L 330.164631 254.146876 
L 414.710085 160.911806 
" style="fill:none;opacity:0.5;stroke:#440154;stroke-linecap:square;stroke-width:1.5;"/>
   </g>
   <g id="line2d_26">
    <path clip-path="url(#pd182d07cfc)" d="M 76.528267 65.434842 
L 161.073722 68.003375 
L 245.619176 154.690397 
L 330.164631 57.679832 
L 414.710085 160.211624 
" style="fill:none;opacity:0.5;stroke:#21918c;stroke-linecap:square;stroke-width:1.5;"/>
   </g>
   <g id="line2d_27">
    <path clip-path="url(#pd182d07cfc)" d="M 76.528267 67.115946 
L 161.073722 74.246475 
L 245.619176 160.58603 
L 330.164631 75.980322 
L 414.710085 153.157769 
" style="fill:none;opacity:0.5;stroke:#21918c;stroke-linecap:square;stroke-width:1.5;"/>
   </g>
   <g id="line2d_28">
    <path clip-path="url(#pd182d07cfc)" d="M 76.528267 67.763819 
L 161.073722 65.512926 
L 245.619176 162.907086 
L 330.164631 65.858701 
L 414.710085 164.488251 
" style="fill:none;opacity:0.5;stroke:#21918c;stroke-linecap:square;stroke-width:1.5;"/>
   </g>
   <g id="line2d_29">
    <path clip-path="url(#pd182d07cfc)" d="M 76.528267 74.703386 
L 161.073722 65.595503 
L 245.619176 168.927762 
L 330.164631 72.24099 
L 414.710085 159.786845 
" style="fill:none;opacity:0.5;stroke:#21918c;stroke-linecap:square;stroke-width:1.5;"/>
   </g>
   <g id="line2d_30">
    <path clip-path="url(#pd182d07cfc)" d="M 76.528267 64.682822 
L 161.073722 69.237388 
L 245.619176 161.816718 
L 330.164631 65.58027 
L 414.710085 173.024763 
" style="fill:none;opacity:0.5;stroke:#21918c;stroke-linecap:square;stroke-width:1.5;"/>
   </g>
   <g id="line2d_31">
    <path clip-path="url(#pd182d07cfc)" d="M 76.528267 251.570305 
L 161.073722 248.040717 
L 245.619176 163.09941 
L 330.164631 253.083244 
L 414.710085 157.904713 
" style="fill:none;opacity:0.5;stroke:#fde725;stroke-linecap:square;stroke-width:1.5;"/>
   </g>
   <g id="line2d_32">
    <path clip-path="url(#pd182d07cfc)" d="M 76.528267 253.983469 
L 161.073722 244.813804 
L 245.619176 161.279256 
L 330.164631 260.75706 
L 414.710085 161.400926 
" style="fill:none;opacity:0.5;stroke:#fde725;stroke-linecap:square;stroke-width:1.5;"/>
   </g>
   <g id="line2d_33">
    <path clip-path="url(#pd182d07cfc)" d="M 76.528267 256.865581 
L 161.073722 249.292587 
L 245.619176 160.869107 
L 330.164631 254.002101 
L 414.710085 169.115219 
" style="fill:none;opacity:0.5;stroke:#fde725;stroke-linecap:square;stroke-width:1.5;"/>
   </g>
   <g id="line2d_34">
    <path clip-path="url(#pd182d07cfc)" d="M 76.528267 263.703644 
L 161.073722 255.62452 
L 245.619176 168.829719 
L 330.164631 243.957095 
L 414.710085 164.095148 
" style="fill:none;opacity:0.5;stroke:#fde725;stroke-linecap:square;stroke-width:1.5;"/>
   </g>
   <g id="line2d_35">
    <path clip-path="url(#pd182d07cfc)" d="M 76.528267 254.730661 
L 161.073722 251.060047 
L 245.619176 161.520675 
L 330.164631 249.73732 
L 414.710085 161.607585 
" style="fill:none;opacity:0.5;stroke:#fde725;stroke-linecap:square;stroke-width:1.5;"/>
   </g>
   <g id="line2d_36">
    <path clip-path="url(#pd182d07cfc)" d="M 499.25554 160.292217 
L 583.800994 69.05137 
L 668.346449 161.988747 
L 752.891903 255.269999 
L 837.437358 161.225371 
" style="fill:none;opacity:0.5;stroke:#440154;stroke-linecap:square;stroke-width:1.5;"/>
   </g>
   <g id="line2d_37">
    <path clip-path="url(#pd182d07cfc)" d="M 499.25554 161.584106 
L 583.800994 69.058042 
L 668.346449 160.738743 
L 752.891903 253.120081 
L 837.437358 160.44586 
" style="fill:none;opacity:0.5;stroke:#440154;stroke-linecap:square;stroke-width:1.5;"/>
   </g>
   <g id="line2d_38">
    <path clip-path="url(#pd182d07cfc)" d="M 499.25554 161.319641 
L 583.800994 69.217734 
L 668.346449 161.058103 
L 752.891903 252.958221 
L 837.437358 160.517219 
" style="fill:none;opacity:0.5;stroke:#440154;stroke-linecap:square;stroke-width:1.5;"/>
   </g>
   <g id="line2d_39">
    <path clip-path="url(#pd182d07cfc)" d="M 499.25554 158.905617 
L 583.800994 68.215867 
L 668.346449 159.935484 
L 752.891903 253.880829 
L 837.437358 160.158095 
" style="fill:none;opacity:0.5;stroke:#440154;stroke-linecap:square;stroke-width:1.5;"/>
   </g>
   <g id="line2d_40">
    <path clip-path="url(#pd182d07cfc)" d="M 499.25554 159.877845 
L 583.800994 67.691021 
L 668.346449 161.380495 
L 752.891903 253.94372 
L 837.437358 160.180533 
" style="fill:none;opacity:0.5;stroke:#440154;stroke-linecap:square;stroke-width:1.5;"/>
   </g>
   <g id="line2d_41">
    <path clip-path="url(#pd182d07cfc)" d="M 499.25554 161.333456 
L 583.800994 67.748124 
L 668.346449 160.94557 
L 752.891903 253.895325 
L 837.437358 159.264072 
" style="fill:none;opacity:0.5;stroke:#440154;stroke-linecap:square;stroke-width:1.5;"/>
   </g>
   <g id="line2d_42">
    <path clip-path="url(#pd182d07cfc)" d="M 499.25554 161.112823 
L 583.800994 68.568539 
L 668.346449 159.60032 
L 752.891903 254.285044 
L 837.437358 159.840857 
" style="fill:none;opacity:0.5;stroke:#440154;stroke-linecap:square;stroke-width:1.5;"/>
   </g>
   <g id="line2d_43">
    <path clip-path="url(#pd182d07cfc)" d="M 499.25554 160.992201 
L 583.800994 67.697416 
L 668.346449 158.595754 
L 752.891903 254.359502 
L 837.437358 163.281615 
" style="fill:none;opacity:0.5;stroke:#440154;stroke-linecap:square;stroke-width:1.5;"/>
   </g>
   <g id="line2d_44">
    <path clip-path="url(#pd182d07cfc)" d="M 499.25554 158.800915 
L 583.800994 68.406553 
L 668.346449 161.016134 
L 752.891903 251.341371 
L 837.437358 159.109405 
" style="fill:none;opacity:0.5;stroke:#440154;stroke-linecap:square;stroke-width:1.5;"/>
   </g>
   <g id="line2d_45">
    <path clip-path="url(#pd182d07cfc)" d="M 499.25554 162.615941 
L 583.800994 67.425079 
L 668.346449 159.782227 
L 752.891903 252.666502 
L 837.437358 161.395994 
" style="fill:none;opacity:0.5;stroke:#440154;stroke-linecap:square;stroke-width:1.5;"/>
   </g>
   <g id="line2d_46">
    <path clip-path="url(#pd182d07cfc)" d="M 499.25554 160.478195 
L 583.800994 68.513977 
L 668.346449 160.872341 
L 752.891903 251.238371 
L 837.437358 161.778046 
" style="fill:none;opacity:0.5;stroke:#440154;stroke-linecap:square;stroke-width:1.5;"/>
   </g>
   <g id="line2d_47">
    <path clip-path="url(#pd182d07cfc)" d="M 499.25554 159.464608 
L 583.800994 70.223255 
L 668.346449 161.305492 
L 752.891903 251.699941 
L 837.437358 161.555591 
" style="fill:none;opacity:0.5;stroke:#440154;stroke-linecap:square;stroke-width:1.5;"/>
   </g>
   <g id="line2d_48">
    <path clip-path="url(#pd182d07cfc)" d="M 499.25554 159.921351 
L 583.800994 68.661885 
L 668.346449 161.19396 
L 752.891903 252.5228 
L 837.437358 161.275384 
" style="fill:none;opacity:0.5;stroke:#440154;stroke-linecap:square;stroke-width:1.5;"/>
   </g>
   <g id="line2d_49">
    <path clip-path="url(#pd182d07cfc)" d="M 499.25554 161.718376 
L 583.800994 68.286579 
L 668.346449 162.444411 
L 752.891903 253.915638 
L 837.437358 160.846636 
" style="fill:none;opacity:0.5;stroke:#440154;stroke-linecap:square;stroke-width:1.5;"/>
   </g>
   <g id="line2d_50">
    <path clip-path="url(#pd182d07cfc)" d="M 499.25554 161.501889 
L 583.800994 67.558968 
L 668.346449 160.487652 
L 752.891903 250.97343 
L 837.437358 161.616732 
" style="fill:none;opacity:0.5;stroke:#440154;stroke-linecap:square;stroke-width:1.5;"/>
   </g>
   <g id="line2d_51">
    <path clip-path="url(#pd182d07cfc)" d="M 499.25554 160.055446 
L 583.800994 69.006554 
L 668.346449 161.288226 
L 752.891903 253.952216 
L 837.437358 159.575824 
" style="fill:none;opacity:0.5;stroke:#440154;stroke-linecap:square;stroke-width:1.5;"/>
   </g>
   <g id="line2d_52">
    <path clip-path="url(#pd182d07cfc)" d="M 499.25554 158.864897 
L 583.800994 67.924153 
L 668.346449 159.566983 
L 752.891903 254.436163 
L 837.437358 161.516744 
" style="fill:none;opacity:0.5;stroke:#440154;stroke-linecap:square;stroke-width:1.5;"/>
   </g>
   <g id="line2d_53">
    <path clip-path="url(#pd182d07cfc)" d="M 499.25554 162.17847 
L 583.800994 69.417616 
L 668.346449 159.776214 
L 752.891903 253.351105 
L 837.437358 161.12147 
" style="fill:none;opacity:0.5;stroke:#440154;stroke-linecap:square;stroke-width:1.5;"/>
   </g>
   <g id="line2d_54">
    <path clip-path="url(#pd182d07cfc)" d="M 499.25554 161.170913 
L 583.800994 67.331939 
L 668.346449 161.487306 
L 752.891903 252.972889 
L 837.437358 159.989203 
" style="fill:none;opacity:0.5;stroke:#440154;stroke-linecap:square;stroke-width:1.5;"/>
   </g>
   <g id="line2d_55">
    <path clip-path="url(#pd182d07cfc)" d="M 499.25554 161.902788 
L 583.800994 69.327573 
L 668.346449 161.482083 
L 752.891903 253.288583 
L 837.437358 161.255549 
" style="fill:none;opacity:0.5;stroke:#440154;stroke-linecap:square;stroke-width:1.5;"/>
   </g>
   <g id="line2d_56">
    <path clip-path="url(#pd182d07cfc)" d="M 499.25554 160.348708 
L 583.800994 68.484669 
L 668.346449 161.824316 
L 752.891903 254.604634 
L 837.437358 159.666736 
" style="fill:none;opacity:0.5;stroke:#440154;stroke-linecap:square;stroke-width:1.5;"/>
   </g>
   <g id="line2d_57">
    <path clip-path="url(#pd182d07cfc)" d="M 499.25554 162.083512 
L 583.800994 67.862989 
L 668.346449 161.559359 
L 752.891903 253.613438 
L 837.437358 161.372286 
" style="fill:none;opacity:0.5;stroke:#440154;stroke-linecap:square;stroke-width:1.5;"/>
   </g>
   <g id="line2d_58">
    <path clip-path="url(#pd182d07cfc)" d="M 499.25554 159.94304 
L 583.800994 68.548226 
L 668.346449 160.851594 
L 752.891903 252.983999 
L 837.437358 160.263772 
" style="fill:none;opacity:0.5;stroke:#440154;stroke-linecap:square;stroke-width:1.5;"/>
   </g>
   <g id="line2d_59">
    <path clip-path="url(#pd182d07cfc)" d="M 499.25554 161.33972 
L 583.800994 68.391676 
L 668.346449 162.978155 
L 752.891903 253.001649 
L 837.437358 161.071978 
" style="fill:none;opacity:0.5;stroke:#440154;stroke-linecap:square;stroke-width:1.5;"/>
   </g>
   <g id="line2d_60">
    <path clip-path="url(#pd182d07cfc)" d="M 499.25554 161.651757 
L 583.800994 69.436072 
L 668.346449 162.240769 
L 752.891903 253.094087 
L 837.437358 160.093505 
" style="fill:none;opacity:0.5;stroke:#440154;stroke-linecap:square;stroke-width:1.5;"/>
   </g>
   <g id="line2d_61">
    <path clip-path="url(#pd182d07cfc)" d="M 499.25554 64.421016 
L 583.800994 59.695262 
L 668.346449 162.880001 
L 752.891903 67.415097 
L 837.437358 163.312105 
" style="fill:none;opacity:0.5;stroke:#21918c;stroke-linecap:square;stroke-width:1.5;"/>
   </g>
   <g id="line2d_62">
    <path clip-path="url(#pd182d07cfc)" d="M 499.25554 67.665789 
L 583.800994 70.447003 
L 668.346449 165.24484 
L 752.891903 66.382754 
L 837.437358 158.901431 
" style="fill:none;opacity:0.5;stroke:#21918c;stroke-linecap:square;stroke-width:1.5;"/>
   </g>
   <g id="line2d_63">
    <path clip-path="url(#pd182d07cfc)" d="M 499.25554 69.641002 
L 583.800994 60.107705 
L 668.346449 158.226709 
L 752.891903 67.852656 
L 837.437358 163.495458 
" style="fill:none;opacity:0.5;stroke:#21918c;stroke-linecap:square;stroke-width:1.5;"/>
   </g>
   <g id="line2d_64">
    <path clip-path="url(#pd182d07cfc)" d="M 499.25554 66.168965 
L 583.800994 63.623784 
L 668.346449 153.288008 
L 752.891903 66.770137 
L 837.437358 160.451476 
" style="fill:none;opacity:0.5;stroke:#21918c;stroke-linecap:square;stroke-width:1.5;"/>
   </g>
   <g id="line2d_65">
    <path clip-path="url(#pd182d07cfc)" d="M 499.25554 65.365583 
L 583.800994 60.293475 
L 668.346449 157.5838 
L 752.891903 73.681867 
L 837.437358 168.273456 
" style="fill:none;opacity:0.5;stroke:#21918c;stroke-linecap:square;stroke-width:1.5;"/>
   </g>
   <g id="line2d_66">
    <path clip-path="url(#pd182d07cfc)" d="M 499.25554 246.787147 
L 583.800994 257.10362 
L 668.346449 160.394093 
L 752.891903 258.376068 
L 837.437358 153.320935 
" style="fill:none;opacity:0.5;stroke:#fde725;stroke-linecap:square;stroke-width:1.5;"/>
   </g>
   <g id="line2d_67">
    <path clip-path="url(#pd182d07cfc)" d="M 499.25554 247.511225 
L 583.800994 257.645922 
L 668.346449 167.744492 
L 752.891903 260.743966 
L 837.437358 164.259992 
" style="fill:none;opacity:0.5;stroke:#fde725;stroke-linecap:square;stroke-width:1.5;"/>
   </g>
   <g id="line2d_68">
    <path clip-path="url(#pd182d07cfc)" d="M 499.25554 247.185872 
L 583.800994 257.003544 
L 668.346449 162.937735 
L 752.891903 254.838313 
L 837.437358 163.920231 
" style="fill:none;opacity:0.5;stroke:#fde725;stroke-linecap:square;stroke-width:1.5;"/>
   </g>
   <g id="line2d_69">
    <path clip-path="url(#pd182d07cfc)" d="M 499.25554 260.141736 
L 583.800994 255.88415 
L 668.346449 154.675736 
L 752.891903 257.847158 
L 837.437358 166.218963 
" style="fill:none;opacity:0.5;stroke:#fde725;stroke-linecap:square;stroke-width:1.5;"/>
   </g>
   <g id="line2d_70">
    <path clip-path="url(#pd182d07cfc)" d="M 499.25554 257.427538 
L 583.800994 245.620326 
L 668.346449 157.456299 
L 752.891903 255.950515 
L 837.437358 154.602718 
" style="fill:none;opacity:0.5;stroke:#fde725;stroke-linecap:square;stroke-width:1.5;"/>
   </g>
   <g id="text_1">
    <!-- train -->
    <defs>
     <path d="M 18.3125 70.21875 
L 18.3125 54.6875 
L 36.8125 54.6875 
L 36.8125 47.703125 
L 18.3125 47.703125 
L 18.3125 18.015625 
Q 18.3125 11.328125 20.140625 9.421875 
Q 21.96875 7.515625 27.59375 7.515625 
L 36.8125 7.515625 
L 36.8125 0 
L 27.59375 0 
Q 17.1875 0 13.234375 3.875 
Q 9.28125 7.765625 9.28125 18.015625 
L 9.28125 47.703125 
L 2.6875 47.703125 
L 2.6875 54.6875 
L 9.28125 54.6875 
L 9.28125 70.21875 
z
" id="DejaVuSans-74"/>
     <path d="M 41.109375 46.296875 
Q 39.59375 47.171875 37.8125 47.578125 
Q 36.03125 48 33.890625 48 
Q 26.265625 48 22.1875 43.046875 
Q 18.109375 38.09375 18.109375 28.8125 
L 18.109375 0 
L 9.078125 0 
L 9.078125 54.6875 
L 18.109375 54.6875 
L 18.109375 46.1875 
Q 20.953125 51.171875 25.484375 53.578125 
Q 30.03125 56 36.53125 56 
Q 37.453125 56 38.578125 55.875 
Q 39.703125 55.765625 41.0625 55.515625 
z
" id="DejaVuSans-72"/>
     <path d="M 34.28125 27.484375 
Q 23.390625 27.484375 19.1875 25 
Q 14.984375 22.515625 14.984375 16.5 
Q 14.984375 11.71875 18.140625 8.90625 
Q 21.296875 6.109375 26.703125 6.109375 
Q 34.1875 6.109375 38.703125 11.40625 
Q 43.21875 16.703125 43.21875 25.484375 
L 43.21875 27.484375 
z
M 52.203125 31.203125 
L 52.203125 0 
L 43.21875 0 
L 43.21875 8.296875 
Q 40.140625 3.328125 35.546875 0.953125 
Q 30.953125 -1.421875 24.3125 -1.421875 
Q 15.921875 -1.421875 10.953125 3.296875 
Q 6 8.015625 6 15.921875 
Q 6 25.140625 12.171875 29.828125 
Q 18.359375 34.515625 30.609375 34.515625 
L 43.21875 34.515625 
L 43.21875 35.40625 
Q 43.21875 41.609375 39.140625 45 
Q 35.0625 48.390625 27.6875 48.390625 
Q 23 48.390625 18.546875 47.265625 
Q 14.109375 46.140625 10.015625 43.890625 
L 10.015625 52.203125 
Q 14.9375 54.109375 19.578125 55.046875 
Q 24.21875 56 28.609375 56 
Q 40.484375 56 46.34375 49.84375 
Q 52.203125 43.703125 52.203125 31.203125 
z
" id="DejaVuSans-61"/>
     <path d="M 9.421875 54.6875 
L 18.40625 54.6875 
L 18.40625 0 
L 9.421875 0 
z
M 9.421875 75.984375 
L 18.40625 75.984375 
L 18.40625 64.59375 
L 9.421875 64.59375 
z
" id="DejaVuSans-69"/>
     <path d="M 54.890625 33.015625 
L 54.890625 0 
L 45.90625 0 
L 45.90625 32.71875 
Q 45.90625 40.484375 42.875 44.328125 
Q 39.84375 48.1875 33.796875 48.1875 
Q 26.515625 48.1875 22.3125 43.546875 
Q 18.109375 38.921875 18.109375 30.90625 
L 18.109375 0 
L 9.078125 0 
L 9.078125 54.6875 
L 18.109375 54.6875 
L 18.109375 46.1875 
Q 21.34375 51.125 25.703125 53.5625 
Q 30.078125 56 35.796875 56 
Q 45.21875 56 50.046875 50.171875 
Q 54.890625 44.34375 54.890625 33.015625 
z
" id="DejaVuSans-6e"/>
    </defs>
    <g transform="translate(224.482813 276.418125)scale(0.16 -0.16)">
     <use xlink:href="#DejaVuSans-74"/>
     <use x="39.208984" xlink:href="#DejaVuSans-72"/>
     <use x="80.322266" xlink:href="#DejaVuSans-61"/>
     <use x="141.601562" xlink:href="#DejaVuSans-69"/>
     <use x="169.384766" xlink:href="#DejaVuSans-6e"/>
    </g>
   </g>
   <g id="text_2">
    <!-- test -->
    <defs>
     <path d="M 56.203125 29.59375 
L 56.203125 25.203125 
L 14.890625 25.203125 
Q 15.484375 15.921875 20.484375 11.0625 
Q 25.484375 6.203125 34.421875 6.203125 
Q 39.59375 6.203125 44.453125 7.46875 
Q 49.3125 8.734375 54.109375 11.28125 
L 54.109375 2.78125 
Q 49.265625 0.734375 44.1875 -0.34375 
Q 39.109375 -1.421875 33.890625 -1.421875 
Q 20.796875 -1.421875 13.15625 6.1875 
Q 5.515625 13.8125 5.515625 26.8125 
Q 5.515625 40.234375 12.765625 48.109375 
Q 20.015625 56 32.328125 56 
Q 43.359375 56 49.78125 48.890625 
Q 56.203125 41.796875 56.203125 29.59375 
z
M 47.21875 32.234375 
Q 47.125 39.59375 43.09375 43.984375 
Q 39.0625 48.390625 32.421875 48.390625 
Q 24.90625 48.390625 20.390625 44.140625 
Q 15.875 39.890625 15.1875 32.171875 
z
" id="DejaVuSans-65"/>
     <path d="M 44.28125 53.078125 
L 44.28125 44.578125 
Q 40.484375 46.53125 36.375 47.5 
Q 32.28125 48.484375 27.875 48.484375 
Q 21.1875 48.484375 17.84375 46.4375 
Q 14.5 44.390625 14.5 40.28125 
Q 14.5 37.15625 16.890625 35.375 
Q 19.28125 33.59375 26.515625 31.984375 
L 29.59375 31.296875 
Q 39.15625 29.25 43.1875 25.515625 
Q 47.21875 21.78125 47.21875 15.09375 
Q 47.21875 7.46875 41.1875 3.015625 
Q 35.15625 -1.421875 24.609375 -1.421875 
Q 20.21875 -1.421875 15.453125 -0.5625 
Q 10.6875 0.296875 5.421875 2 
L 5.421875 11.28125 
Q 10.40625 8.6875 15.234375 7.390625 
Q 20.0625 6.109375 24.8125 6.109375 
Q 31.15625 6.109375 34.5625 8.28125 
Q 37.984375 10.453125 37.984375 14.40625 
Q 37.984375 18.0625 35.515625 20.015625 
Q 33.0625 21.96875 24.703125 23.78125 
L 21.578125 24.515625 
Q 13.234375 26.265625 9.515625 29.90625 
Q 5.8125 33.546875 5.8125 39.890625 
Q 5.8125 47.609375 11.28125 51.796875 
Q 16.75 56 26.8125 56 
Q 31.78125 56 36.171875 55.265625 
Q 40.578125 54.546875 44.28125 53.078125 
z
" id="DejaVuSans-73"/>
    </defs>
    <g transform="translate(647.210085 276.418125)scale(0.16 -0.16)">
     <use xlink:href="#DejaVuSans-74"/>
     <use x="39.208984" xlink:href="#DejaVuSans-65"/>
     <use x="100.732422" xlink:href="#DejaVuSans-73"/>
     <use x="152.832031" xlink:href="#DejaVuSans-74"/>
    </g>
   </g>
   <g id="text_3">
    <!-- Generated train and test set -->
    <defs>
     <path d="M 59.515625 10.40625 
L 59.515625 29.984375 
L 43.40625 29.984375 
L 43.40625 38.09375 
L 69.28125 38.09375 
L 69.28125 6.78125 
Q 63.578125 2.734375 56.6875 0.65625 
Q 49.8125 -1.421875 42 -1.421875 
Q 24.90625 -1.421875 15.25 8.5625 
Q 5.609375 18.5625 5.609375 36.375 
Q 5.609375 54.25 15.25 64.234375 
Q 24.90625 74.21875 42 74.21875 
Q 49.125 74.21875 55.546875 72.453125 
Q 61.96875 70.703125 67.390625 67.28125 
L 67.390625 56.78125 
Q 61.921875 61.421875 55.765625 63.765625 
Q 49.609375 66.109375 42.828125 66.109375 
Q 29.4375 66.109375 22.71875 58.640625 
Q 16.015625 51.171875 16.015625 36.375 
Q 16.015625 21.625 22.71875 14.15625 
Q 29.4375 6.6875 42.828125 6.6875 
Q 48.046875 6.6875 52.140625 7.59375 
Q 56.25 8.5 59.515625 10.40625 
z
" id="DejaVuSans-47"/>
     <path d="M 45.40625 46.390625 
L 45.40625 75.984375 
L 54.390625 75.984375 
L 54.390625 0 
L 45.40625 0 
L 45.40625 8.203125 
Q 42.578125 3.328125 38.25 0.953125 
Q 33.9375 -1.421875 27.875 -1.421875 
Q 17.96875 -1.421875 11.734375 6.484375 
Q 5.515625 14.40625 5.515625 27.296875 
Q 5.515625 40.1875 11.734375 48.09375 
Q 17.96875 56 27.875 56 
Q 33.9375 56 38.25 53.625 
Q 42.578125 51.265625 45.40625 46.390625 
z
M 14.796875 27.296875 
Q 14.796875 17.390625 18.875 11.75 
Q 22.953125 6.109375 30.078125 6.109375 
Q 37.203125 6.109375 41.296875 11.75 
Q 45.40625 17.390625 45.40625 27.296875 
Q 45.40625 37.203125 41.296875 42.84375 
Q 37.203125 48.484375 30.078125 48.484375 
Q 22.953125 48.484375 18.875 42.84375 
Q 14.796875 37.203125 14.796875 27.296875 
z
" id="DejaVuSans-64"/>
     <path id="DejaVuSans-20"/>
    </defs>
    <g transform="translate(371.578438 16.318125)scale(0.12 -0.12)">
     <use xlink:href="#DejaVuSans-47"/>
     <use x="77.490234" xlink:href="#DejaVuSans-65"/>
     <use x="139.013672" xlink:href="#DejaVuSans-6e"/>
     <use x="202.392578" xlink:href="#DejaVuSans-65"/>
     <use x="263.916016" xlink:href="#DejaVuSans-72"/>
     <use x="305.029297" xlink:href="#DejaVuSans-61"/>
     <use x="366.308594" xlink:href="#DejaVuSans-74"/>
     <use x="405.517578" xlink:href="#DejaVuSans-65"/>
     <use x="467.041016" xlink:href="#DejaVuSans-64"/>
     <use x="530.517578" xlink:href="#DejaVuSans-20"/>
     <use x="562.304688" xlink:href="#DejaVuSans-74"/>
     <use x="601.513672" xlink:href="#DejaVuSans-72"/>
     <use x="642.626953" xlink:href="#DejaVuSans-61"/>
     <use x="703.90625" xlink:href="#DejaVuSans-69"/>
     <use x="731.689453" xlink:href="#DejaVuSans-6e"/>
     <use x="795.068359" xlink:href="#DejaVuSans-20"/>
     <use x="826.855469" xlink:href="#DejaVuSans-61"/>
     <use x="888.134766" xlink:href="#DejaVuSans-6e"/>
     <use x="951.513672" xlink:href="#DejaVuSans-64"/>
     <use x="1014.990234" xlink:href="#DejaVuSans-20"/>
     <use x="1046.777344" xlink:href="#DejaVuSans-74"/>
     <use x="1085.986328" xlink:href="#DejaVuSans-65"/>
     <use x="1147.509766" xlink:href="#DejaVuSans-73"/>
     <use x="1199.609375" xlink:href="#DejaVuSans-74"/>
     <use x="1238.818359" xlink:href="#DejaVuSans-20"/>
     <use x="1270.605469" xlink:href="#DejaVuSans-73"/>
     <use x="1322.705078" xlink:href="#DejaVuSans-65"/>
     <use x="1384.228516" xlink:href="#DejaVuSans-74"/>
    </g>
   </g>
   <g id="legend_1">
    <g id="patch_2">
     <path d="M 430.129063 193.842188 
L 483.836563 193.842188 
Q 486.636563 193.842188 486.636563 191.042188 
L 486.636563 130.794063 
Q 486.636563 127.994063 483.836563 127.994063 
L 430.129063 127.994063 
Q 427.329063 127.994063 427.329063 130.794063 
L 427.329063 191.042188 
Q 427.329063 193.842188 430.129063 193.842188 
z
" style="fill:#ffffff;opacity:0.8;stroke:#cccccc;stroke-linejoin:miter;"/>
    </g>
    <g id="line2d_71">
     <path d="M 432.929063 139.331875 
L 460.929063 139.331875 
" style="fill:none;opacity:0.5;stroke:#440154;stroke-linecap:square;stroke-width:1.5;"/>
    </g>
    <g id="line2d_72"/>
    <g id="text_4">
     <!-- 0 -->
     <defs>
      <path d="M 31.78125 66.40625 
Q 24.171875 66.40625 20.328125 58.90625 
Q 16.5 51.421875 16.5 36.375 
Q 16.5 21.390625 20.328125 13.890625 
Q 24.171875 6.390625 31.78125 6.390625 
Q 39.453125 6.390625 43.28125 13.890625 
Q 47.125 21.390625 47.125 36.375 
Q 47.125 51.421875 43.28125 58.90625 
Q 39.453125 66.40625 31.78125 66.40625 
z
M 31.78125 74.21875 
Q 44.046875 74.21875 50.515625 64.515625 
Q 56.984375 54.828125 56.984375 36.375 
Q 56.984375 17.96875 50.515625 8.265625 
Q 44.046875 -1.421875 31.78125 -1.421875 
Q 19.53125 -1.421875 13.0625 8.265625 
Q 6.59375 17.96875 6.59375 36.375 
Q 6.59375 54.828125 13.0625 64.515625 
Q 19.53125 74.21875 31.78125 74.21875 
z
" id="DejaVuSans-30"/>
     </defs>
     <g transform="translate(472.129063 144.231875)scale(0.14 -0.14)">
      <use xlink:href="#DejaVuSans-30"/>
     </g>
    </g>
    <g id="line2d_73">
     <path d="M 432.929063 159.88125 
L 460.929063 159.88125 
" style="fill:none;opacity:0.5;stroke:#21918c;stroke-linecap:square;stroke-width:1.5;"/>
    </g>
    <g id="line2d_74"/>
    <g id="text_5">
     <!-- 1 -->
     <defs>
      <path d="M 12.40625 8.296875 
L 28.515625 8.296875 
L 28.515625 63.921875 
L 10.984375 60.40625 
L 10.984375 69.390625 
L 28.421875 72.90625 
L 38.28125 72.90625 
L 38.28125 8.296875 
L 54.390625 8.296875 
L 54.390625 0 
L 12.40625 0 
z
" id="DejaVuSans-31"/>
     </defs>
     <g transform="translate(472.129063 164.78125)scale(0.14 -0.14)">
      <use xlink:href="#DejaVuSans-31"/>
     </g>
    </g>
    <g id="line2d_75">
     <path d="M 432.929063 180.430625 
L 460.929063 180.430625 
" style="fill:none;opacity:0.5;stroke:#fde725;stroke-linecap:square;stroke-width:1.5;"/>
    </g>
    <g id="line2d_76"/>
    <g id="text_6">
     <!-- 2 -->
     <defs>
      <path d="M 19.1875 8.296875 
L 53.609375 8.296875 
L 53.609375 0 
L 7.328125 0 
L 7.328125 8.296875 
Q 12.9375 14.109375 22.625 23.890625 
Q 32.328125 33.6875 34.8125 36.53125 
Q 39.546875 41.84375 41.421875 45.53125 
Q 43.3125 49.21875 43.3125 52.78125 
Q 43.3125 58.59375 39.234375 62.25 
Q 35.15625 65.921875 28.609375 65.921875 
Q 23.96875 65.921875 18.8125 64.3125 
Q 13.671875 62.703125 7.8125 59.421875 
L 7.8125 69.390625 
Q 13.765625 71.78125 18.9375 73 
Q 24.125 74.21875 28.421875 74.21875 
Q 39.75 74.21875 46.484375 68.546875 
Q 53.21875 62.890625 53.21875 53.421875 
Q 53.21875 48.921875 51.53125 44.890625 
Q 49.859375 40.875 45.40625 35.40625 
Q 44.1875 33.984375 37.640625 27.21875 
Q 31.109375 20.453125 19.1875 8.296875 
z
" id="DejaVuSans-32"/>
     </defs>
     <g transform="translate(472.129063 185.330625)scale(0.14 -0.14)">
      <use xlink:href="#DejaVuSans-32"/>
     </g>
    </g>
   </g>
  </g>
 </g>
 <defs>
  <clipPath id="pd182d07cfc">
   <rect height="277.2" width="837" x="38.482813" y="22.318125"/>
  </clipPath>
 </defs>
</svg>
