<?xml version="1.0" encoding="utf-8" standalone="no"?>
<!DOCTYPE svg PUBLIC "-//W3C//DTD SVG 1.1//EN"
  "http://www.w3.org/Graphics/SVG/1.1/DTD/svg11.dtd">
<!-- Created with matplotlib (http://matplotlib.org/) -->
<svg height="310pt" version="1.1" viewBox="0 0 882 310" width="882pt" xmlns="http://www.w3.org/2000/svg" xmlns:xlink="http://www.w3.org/1999/xlink">
 <defs>
  <style type="text/css">
*{stroke-linecap:butt;stroke-linejoin:round;}
  </style>
 </defs>
 <g id="figure_1">
  <g id="patch_1">
   <path d="M 0 310.955677 
L 882.378823 310.955677 
L 882.378823 0 
L 0 0 
z
" style="fill:#ffffff;"/>
  </g>
  <g id="axes_1">
   <g id="line2d_1">
    <path clip-path="url(#pa3875aee4c)" d="M 72.724277 149.555733 
L 108.958043 56.36237 
L 145.19181 147.314879 
L 181.425576 242.882246 
L 217.659342 148.835896 
L 253.893108 56.109029 
L 290.126875 149.431938 
L 326.360641 241.598287 
L 362.594407 149.935772 
L 398.828173 56.499387 
L 435.06194 148.828556 
" style="fill:none;opacity:0.5;stroke:#440154;stroke-dasharray:5.55,2.4;stroke-dashoffset:0;stroke-width:1.5;"/>
   </g>
   <g id="line2d_2">
    <path clip-path="url(#pa3875aee4c)" d="M 72.724277 149.452581 
L 108.958043 58.149044 
L 145.19181 148.794913 
L 181.425576 240.562875 
L 217.659342 148.305364 
L 253.893108 58.018617 
L 290.126875 149.583369 
L 326.360641 242.677055 
L 362.594407 148.928499 
L 398.828173 56.632811 
L 435.06194 148.114755 
" style="fill:none;opacity:0.5;stroke:#440154;stroke-dasharray:5.55,2.4;stroke-dashoffset:0;stroke-width:1.5;"/>
   </g>
   <g id="line2d_3">
    <path clip-path="url(#pa3875aee4c)" d="M 72.724277 150.284703 
L 108.958043 58.476929 
L 145.19181 149.459665 
L 181.425576 241.641132 
L 217.659342 148.957539 
L 253.893108 58.382598 
L 290.126875 151.301134 
L 326.360641 241.348538 
L 362.594407 149.555487 
L 398.828173 57.43193 
L 435.06194 148.910207 
" style="fill:none;opacity:0.5;stroke:#440154;stroke-dasharray:5.55,2.4;stroke-dashoffset:0;stroke-width:1.5;"/>
   </g>
   <g id="line2d_4">
    <path clip-path="url(#pa3875aee4c)" d="M 72.724277 148.648783 
L 108.958043 56.858049 
L 145.19181 148.809642 
L 181.425576 241.572372 
L 217.659342 148.957692 
L 253.893108 56.949783 
L 290.126875 148.308736 
L 326.360641 241.316307 
L 362.594407 150.031399 
L 398.828173 57.642318 
L 435.06194 149.296304 
" style="fill:none;opacity:0.5;stroke:#440154;stroke-dasharray:5.55,2.4;stroke-dashoffset:0;stroke-width:1.5;"/>
   </g>
   <g id="line2d_5">
    <path clip-path="url(#pa3875aee4c)" d="M 72.724277 148.525514 
L 108.958043 56.856495 
L 145.19181 151.352377 
L 181.425576 241.285318 
L 217.659342 149.312413 
L 253.893108 56.172773 
L 290.126875 149.125979 
L 326.360641 243.160133 
L 362.594407 149.682122 
L 398.828173 57.894559 
L 435.06194 150.087096 
" style="fill:none;opacity:0.5;stroke:#440154;stroke-dasharray:5.55,2.4;stroke-dashoffset:0;stroke-width:1.5;"/>
   </g>
   <g id="line2d_6">
    <path clip-path="url(#pa3875aee4c)" d="M 72.724277 148.574887 
L 108.958043 57.459734 
L 145.19181 149.437245 
L 181.425576 241.576407 
L 217.659342 150.157555 
L 253.893108 56.939451 
L 290.126875 148.063765 
L 326.360641 241.721301 
L 362.594407 148.439233 
L 398.828173 57.933958 
L 435.06194 149.174976 
" style="fill:none;opacity:0.5;stroke:#440154;stroke-dasharray:5.55,2.4;stroke-dashoffset:0;stroke-width:1.5;"/>
   </g>
   <g id="line2d_7">
    <path clip-path="url(#pa3875aee4c)" d="M 72.724277 149.471154 
L 108.958043 57.620658 
L 145.19181 148.88118 
L 181.425576 241.252704 
L 217.659342 149.917729 
L 253.893108 57.807031 
L 290.126875 149.783817 
L 326.360641 241.372833 
L 362.594407 149.582563 
L 398.828173 57.225356 
L 435.06194 149.919758 
" style="fill:none;opacity:0.5;stroke:#440154;stroke-dasharray:5.55,2.4;stroke-dashoffset:0;stroke-width:1.5;"/>
   </g>
   <g id="line2d_8">
    <path clip-path="url(#pa3875aee4c)" d="M 72.724277 151.569445 
L 108.958043 56.954417 
L 145.19181 150.162768 
L 181.425576 241.319238 
L 217.659342 148.850329 
L 253.893108 55.691626 
L 290.126875 149.993517 
L 326.360641 243.997134 
L 362.594407 147.869146 
L 398.828173 56.226519 
L 435.06194 147.549944 
" style="fill:none;opacity:0.5;stroke:#440154;stroke-dasharray:5.55,2.4;stroke-dashoffset:0;stroke-width:1.5;"/>
   </g>
   <g id="line2d_9">
    <path clip-path="url(#pa3875aee4c)" d="M 72.724277 147.95615 
L 108.958043 58.328465 
L 145.19181 150.013252 
L 181.425576 241.414332 
L 217.659342 148.593987 
L 253.893108 57.241594 
L 290.126875 149.560401 
L 326.360641 242.054754 
L 362.594407 150.82902 
L 398.828173 57.373738 
L 435.06194 149.138917 
" style="fill:none;opacity:0.5;stroke:#440154;stroke-dasharray:5.55,2.4;stroke-dashoffset:0;stroke-width:1.5;"/>
   </g>
   <g id="line2d_10">
    <path clip-path="url(#pa3875aee4c)" d="M 72.724277 149.028773 
L 108.958043 56.177421 
L 145.19181 148.92233 
L 181.425576 240.039775 
L 217.659342 149.330339 
L 253.893108 56.274752 
L 290.126875 148.648811 
L 326.360641 241.160896 
L 362.594407 151.607005 
L 398.828173 56.225107 
L 435.06194 149.950924 
" style="fill:none;opacity:0.5;stroke:#440154;stroke-dasharray:5.55,2.4;stroke-dashoffset:0;stroke-width:1.5;"/>
   </g>
   <g id="line2d_11">
    <path clip-path="url(#pa3875aee4c)" d="M 72.724277 149.7101 
L 108.958043 56.394622 
L 145.19181 149.815084 
L 181.425576 242.101358 
L 217.659342 148.407132 
L 253.893108 57.448284 
L 290.126875 149.293863 
L 326.360641 242.140326 
L 362.594407 149.485223 
L 398.828173 58.006645 
L 435.06194 148.280538 
" style="fill:none;opacity:0.5;stroke:#440154;stroke-dasharray:5.55,2.4;stroke-dashoffset:0;stroke-width:1.5;"/>
   </g>
   <g id="line2d_12">
    <path clip-path="url(#pa3875aee4c)" d="M 72.724277 149.898147 
L 108.958043 56.19719 
L 145.19181 150.128751 
L 181.425576 241.693681 
L 217.659342 148.683343 
L 253.893108 56.79705 
L 290.126875 148.054454 
L 326.360641 239.532341 
L 362.594407 149.1587 
L 398.828173 56.619564 
L 435.06194 150.44567 
" style="fill:none;opacity:0.5;stroke:#440154;stroke-dasharray:5.55,2.4;stroke-dashoffset:0;stroke-width:1.5;"/>
   </g>
   <g id="line2d_13">
    <path clip-path="url(#pa3875aee4c)" d="M 72.724277 149.233581 
L 108.958043 58.392439 
L 145.19181 147.747929 
L 181.425576 241.549139 
L 217.659342 148.69896 
L 253.893108 57.297792 
L 290.126875 148.768115 
L 326.360641 242.414025 
L 362.594407 150.537052 
L 398.828173 56.315476 
L 435.06194 150.901927 
" style="fill:none;opacity:0.5;stroke:#440154;stroke-dasharray:5.55,2.4;stroke-dashoffset:0;stroke-width:1.5;"/>
   </g>
   <g id="line2d_14">
    <path clip-path="url(#pa3875aee4c)" d="M 72.724277 150.044573 
L 108.958043 56.673744 
L 145.19181 148.532939 
L 181.425576 241.843853 
L 217.659342 149.479719 
L 253.893108 56.312429 
L 290.126875 151.721328 
L 326.360641 241.350436 
L 362.594407 148.244518 
L 398.828173 57.336257 
L 435.06194 149.253024 
" style="fill:none;opacity:0.5;stroke:#440154;stroke-dasharray:5.55,2.4;stroke-dashoffset:0;stroke-width:1.5;"/>
   </g>
   <g id="line2d_15">
    <path clip-path="url(#pa3875aee4c)" d="M 72.724277 148.697318 
L 108.958043 57.033069 
L 145.19181 147.599136 
L 181.425576 241.772226 
L 217.659342 150.787787 
L 253.893108 56.99656 
L 290.126875 150.009491 
L 326.360641 240.894892 
L 362.594407 149.290196 
L 398.828173 57.036795 
L 435.06194 150.939419 
" style="fill:none;opacity:0.5;stroke:#440154;stroke-dasharray:5.55,2.4;stroke-dashoffset:0;stroke-width:1.5;"/>
   </g>
   <g id="line2d_16">
    <path clip-path="url(#pa3875aee4c)" d="M 72.724277 151.377104 
L 108.958043 57.361279 
L 145.19181 150.882319 
L 181.425576 239.827794 
L 217.659342 149.935405 
L 253.893108 57.182507 
L 290.126875 148.848384 
L 326.360641 241.82051 
L 362.594407 148.583839 
L 398.828173 57.037892 
L 435.06194 148.674092 
" style="fill:none;opacity:0.5;stroke:#440154;stroke-dasharray:5.55,2.4;stroke-dashoffset:0;stroke-width:1.5;"/>
   </g>
   <g id="line2d_17">
    <path clip-path="url(#pa3875aee4c)" d="M 72.724277 149.833245 
L 108.958043 57.970622 
L 145.19181 151.251874 
L 181.425576 242.007246 
L 217.659342 149.965981 
L 253.893108 57.439917 
L 290.126875 149.120618 
L 326.360641 241.501956 
L 362.594407 148.827735 
L 398.828173 57.301516 
L 435.06194 149.999609 
" style="fill:none;opacity:0.5;stroke:#440154;stroke-dasharray:5.55,2.4;stroke-dashoffset:0;stroke-width:1.5;"/>
   </g>
   <g id="line2d_18">
    <path clip-path="url(#pa3875aee4c)" d="M 72.724277 149.439978 
L 108.958043 56.540096 
L 145.19181 148.899094 
L 181.425576 239.687492 
L 217.659342 148.997742 
L 253.893108 55.917359 
L 290.126875 149.862704 
L 326.360641 240.93997 
L 362.594407 148.25972 
L 398.828173 56.072896 
L 435.06194 149.76237 
" style="fill:none;opacity:0.5;stroke:#440154;stroke-dasharray:5.55,2.4;stroke-dashoffset:0;stroke-width:1.5;"/>
   </g>
   <g id="line2d_19">
    <path clip-path="url(#pa3875aee4c)" d="M 72.724277 149.925595 
L 108.958043 56.162408 
L 145.19181 149.715331 
L 181.425576 240.929999 
L 217.659342 149.327445 
L 253.893108 57.4772 
L 290.126875 147.645947 
L 326.360641 241.894698 
L 362.594407 149.350414 
L 398.828173 55.582195 
L 435.06194 150.266919 
" style="fill:none;opacity:0.5;stroke:#440154;stroke-dasharray:5.55,2.4;stroke-dashoffset:0;stroke-width:1.5;"/>
   </g>
   <g id="line2d_20">
    <path clip-path="url(#pa3875aee4c)" d="M 72.724277 148.222732 
L 108.958043 56.974076 
L 145.19181 148.479291 
L 181.425576 239.377629 
L 217.659342 150.341377 
L 253.893108 59.26349 
L 290.126875 147.18279 
L 326.360641 241.588428 
L 362.594407 149.398009 
L 398.828173 54.923246 
L 435.06194 147.49128 
" style="fill:none;opacity:0.5;stroke:#440154;stroke-dasharray:5.55,2.4;stroke-dashoffset:0;stroke-width:1.5;"/>
   </g>
   <g id="line2d_21">
    <path clip-path="url(#pa3875aee4c)" d="M 72.724277 150.997816 
L 108.958043 55.806954 
L 145.19181 148.164102 
L 181.425576 241.048377 
L 217.659342 149.777869 
L 253.893108 56.46007 
L 290.126875 149.295852 
L 326.360641 241.654216 
L 362.594407 147.220246 
L 398.828173 57.759921 
L 435.06194 147.846483 
" style="fill:none;opacity:0.5;stroke:#440154;stroke-dasharray:5.55,2.4;stroke-dashoffset:0;stroke-width:1.5;"/>
   </g>
   <g id="line2d_22">
    <path clip-path="url(#pa3875aee4c)" d="M 72.724277 151.00513 
L 108.958043 57.287367 
L 145.19181 147.681816 
L 181.425576 242.337466 
L 217.659342 148.303226 
L 253.893108 57.04376 
L 290.126875 149.575835 
L 326.360641 240.904675 
L 362.594407 149.657259 
L 398.828173 57.700251 
L 435.06194 149.068454 
" style="fill:none;opacity:0.5;stroke:#440154;stroke-dasharray:5.55,2.4;stroke-dashoffset:0;stroke-width:1.5;"/>
   </g>
   <g id="line2d_23">
    <path clip-path="url(#pa3875aee4c)" d="M 72.724277 150.826286 
L 108.958043 57.497513 
L 145.19181 149.228511 
L 181.425576 242.283764 
L 217.659342 148.340843 
L 253.893108 56.469527 
L 290.126875 146.955305 
L 326.360641 242.398607 
L 362.594407 148.437321 
L 398.828173 57.388429 
L 435.06194 149.670101 
" style="fill:none;opacity:0.5;stroke:#440154;stroke-dasharray:5.55,2.4;stroke-dashoffset:0;stroke-width:1.5;"/>
   </g>
   <g id="line2d_24">
    <path clip-path="url(#pa3875aee4c)" d="M 72.724277 149.934091 
L 108.958043 55.557699 
L 145.19181 147.246772 
L 181.425576 241.106028 
L 217.659342 147.948858 
L 253.893108 58.018038 
L 290.126875 149.898619 
L 326.360641 242.960345 
L 362.594407 150.199491 
L 398.828173 55.758089 
L 435.06194 149.33298 
" style="fill:none;opacity:0.5;stroke:#440154;stroke-dasharray:5.55,2.4;stroke-dashoffset:0;stroke-width:1.5;"/>
   </g>
   <g id="line2d_25">
    <path clip-path="url(#pa3875aee4c)" d="M 72.724277 149.503345 
L 108.958043 57.152788 
L 145.19181 148.113814 
L 181.425576 242.269181 
L 217.659342 148.954764 
L 253.893108 55.971078 
L 290.126875 150.284663 
L 326.360641 242.509448 
L 362.594407 149.863958 
L 398.828173 56.870458 
L 435.06194 149.637424 
" style="fill:none;opacity:0.5;stroke:#440154;stroke-dasharray:5.55,2.4;stroke-dashoffset:0;stroke-width:1.5;"/>
   </g>
   <g id="line2d_26">
    <path clip-path="url(#pa3875aee4c)" d="M 72.724277 146.452917 
L 108.958043 149.132718 
L 145.19181 246.230956 
L 181.425576 155.732545 
L 217.659342 50.643055 
L 253.893108 155.126933 
L 290.126875 238.424321 
L 326.360641 152.506169 
L 362.594407 58.376563 
L 398.828173 151.570803 
L 435.06194 144.424577 
" style="fill:none;opacity:0.5;stroke:#21918c;stroke-linecap:square;stroke-width:1.5;"/>
   </g>
   <g id="line2d_27">
    <path clip-path="url(#pa3875aee4c)" d="M 72.724277 149.450506 
L 108.958043 148.967347 
L 145.19181 240.029372 
L 181.425576 146.028235 
L 217.659342 59.007977 
L 253.893108 148.667754 
L 290.126875 252.00015 
L 326.360641 147.717621 
L 362.594407 57.669265 
L 398.828173 152.968162 
L 435.06194 153.889737 
" style="fill:none;opacity:0.5;stroke:#21918c;stroke-linecap:square;stroke-width:1.5;"/>
   </g>
   <g id="line2d_28">
    <path clip-path="url(#pa3875aee4c)" d="M 72.724277 155.913221 
L 108.958043 148.179811 
L 145.19181 237.576902 
L 181.425576 145.202891 
L 217.659342 48.077137 
L 253.893108 151.261876 
L 290.126875 240.596972 
L 326.360641 151.69398 
L 362.594407 56.047664 
L 398.828173 151.228878 
L 435.06194 153.626715 
" style="fill:none;opacity:0.5;stroke:#21918c;stroke-linecap:square;stroke-width:1.5;"/>
   </g>
   <g id="line2d_29">
    <path clip-path="url(#pa3875aee4c)" d="M 72.724277 147.164629 
L 108.958043 147.283306 
L 145.19181 242.822877 
L 181.425576 140.88958 
L 217.659342 54.208584 
L 253.893108 148.634531 
L 290.126875 244.277333 
L 326.360641 146.95084 
L 362.594407 52.005659 
L 398.828173 141.669883 
L 435.06194 147.552012 
" style="fill:none;opacity:0.5;stroke:#21918c;stroke-linecap:square;stroke-width:1.5;"/>
   </g>
   <g id="line2d_30">
    <path clip-path="url(#pa3875aee4c)" d="M 72.724277 148.833351 
L 108.958043 146.147458 
L 145.19181 233.47535 
L 181.425576 145.965675 
L 217.659342 62.063742 
L 253.893108 156.655331 
L 290.126875 235.169022 
L 326.360641 153.085495 
L 362.594407 56.375968 
L 398.828173 154.357943 
L 435.06194 141.70281 
" style="fill:none;opacity:0.5;stroke:#21918c;stroke-linecap:square;stroke-width:1.5;"/>
   </g>
   <g id="line2d_31">
    <path clip-path="url(#pa3875aee4c)" d="M 72.724277 143.4931 
L 108.958043 153.627797 
L 145.19181 63.726367 
L 181.425576 156.725841 
L 217.659342 245.041867 
L 253.893108 143.167747 
L 290.126875 60.585419 
L 326.360641 151.31961 
L 362.594407 243.220188 
L 398.828173 152.302106 
L 435.06194 156.123611 
" style="fill:none;opacity:0.5;stroke:#fde725;stroke-linecap:square;stroke-width:1.5;"/>
   </g>
   <g id="line2d_32">
    <path clip-path="url(#pa3875aee4c)" d="M 72.724277 151.866025 
L 108.958043 143.057611 
L 145.19181 61.429033 
L 181.425576 154.600838 
L 217.659342 245.809413 
L 253.893108 141.602201 
L 290.126875 53.438174 
L 326.360641 151.93239 
L 362.594407 235.384593 
L 398.828173 155.050282 
L 435.06194 146.304153 
" style="fill:none;opacity:0.5;stroke:#fde725;stroke-linecap:square;stroke-width:1.5;"/>
   </g>
   <g id="line2d_33">
    <path clip-path="url(#pa3875aee4c)" d="M 72.724277 152.200203 
L 108.958043 148.174846 
L 145.19181 63.296619 
L 181.425576 146.89542 
L 217.659342 242.310104 
L 253.893108 146.385588 
L 290.126875 55.355698 
L 326.360641 144.050388 
L 362.594407 234.018829 
L 398.828173 155.877219 
L 435.06194 147.020826 
" style="fill:none;opacity:0.5;stroke:#fde725;stroke-linecap:square;stroke-width:1.5;"/>
   </g>
   <g id="line2d_34">
    <path clip-path="url(#pa3875aee4c)" d="M 72.724277 142.658297 
L 108.958043 153.732185 
L 145.19181 57.396888 
L 181.425576 150.422794 
L 217.659342 244.164391 
L 253.893108 149.716004 
L 290.126875 52.872758 
L 326.360641 149.365967 
L 362.594407 244.022106 
L 398.828173 146.078564 
L 435.06194 144.722209 
" style="fill:none;opacity:0.5;stroke:#fde725;stroke-linecap:square;stroke-width:1.5;"/>
   </g>
   <g id="line2d_35">
    <path clip-path="url(#pa3875aee4c)" d="M 72.724277 146.888907 
L 108.958043 146.409054 
L 145.19181 53.304374 
L 181.425576 150.450791 
L 217.659342 251.988387 
L 253.893108 143.846004 
L 290.126875 55.796304 
L 326.360641 147.83419 
L 362.594407 241.772967 
L 398.828173 154.870197 
L 435.06194 147.550137 
" style="fill:none;opacity:0.5;stroke:#fde725;stroke-linecap:square;stroke-width:1.5;"/>
   </g>
   <g id="line2d_36">
    <path clip-path="url(#pa3875aee4c)" d="M 471.295706 151.71335 
L 507.529472 57.229617 
L 543.763238 147.441766 
L 579.997005 240.873541 
L 616.230771 150.270643 
L 652.464537 56.905203 
L 688.698303 149.861303 
L 724.932069 240.975775 
L 761.165836 150.061103 
L 797.399602 56.788354 
L 833.633368 149.432761 
" style="fill:none;opacity:0.5;stroke:#440154;stroke-linecap:square;stroke-width:1.5;"/>
   </g>
   <g id="line2d_37">
    <path clip-path="url(#pa3875aee4c)" d="M 471.295706 148.937028 
L 507.529472 56.210283 
L 543.763238 148.783936 
L 579.997005 241.432048 
L 616.230771 148.159268 
L 652.464537 56.47063 
L 688.698303 148.656182 
L 724.932069 243.106142 
L 761.165836 149.336667 
L 797.399602 56.592956 
L 833.633368 149.166348 
" style="fill:none;opacity:0.5;stroke:#440154;stroke-linecap:square;stroke-width:1.5;"/>
   </g>
   <g id="line2d_38">
    <path clip-path="url(#pa3875aee4c)" d="M 471.295706 149.324486 
L 507.529472 57.064442 
L 543.763238 147.740692 
L 579.997005 240.57485 
L 616.230771 150.637078 
L 652.464537 57.232624 
L 688.698303 149.950458 
L 724.932069 242.126064 
L 761.165836 149.811103 
L 797.399602 56.97797 
L 833.633368 149.029672 
" style="fill:none;opacity:0.5;stroke:#440154;stroke-linecap:square;stroke-width:1.5;"/>
   </g>
   <g id="line2d_39">
    <path clip-path="url(#pa3875aee4c)" d="M 471.295706 149.09954 
L 507.529472 56.096315 
L 543.763238 149.878001 
L 579.997005 242.831804 
L 616.230771 149.287264 
L 652.464537 56.485758 
L 688.698303 150.702727 
L 724.932069 242.739192 
L 761.165836 150.453905 
L 797.399602 56.125469 
L 833.633368 149.772948 
" style="fill:none;opacity:0.5;stroke:#440154;stroke-linecap:square;stroke-width:1.5;"/>
   </g>
   <g id="line2d_40">
    <path clip-path="url(#pa3875aee4c)" d="M 471.295706 149.41481 
L 507.529472 58.090653 
L 543.763238 148.100678 
L 579.997005 242.337116 
L 616.230771 150.43207 
L 652.464537 57.157005 
L 688.698303 149.206874 
L 724.932069 241.362365 
L 761.165836 149.11529 
L 797.399602 58.064174 
L 833.633368 148.792171 
" style="fill:none;opacity:0.5;stroke:#440154;stroke-linecap:square;stroke-width:1.5;"/>
   </g>
   <g id="line2d_41">
    <path clip-path="url(#pa3875aee4c)" d="M 471.295706 150.059047 
L 507.529472 58.546929 
L 543.763238 149.70111 
L 579.997005 243.197682 
L 616.230771 150.513167 
L 652.464537 55.178981 
L 688.698303 150.091718 
L 724.932069 242.181917 
L 761.165836 149.708411 
L 797.399602 57.68451 
L 833.633368 148.678625 
" style="fill:none;opacity:0.5;stroke:#440154;stroke-linecap:square;stroke-width:1.5;"/>
   </g>
   <g id="line2d_42">
    <path clip-path="url(#pa3875aee4c)" d="M 471.295706 149.193077 
L 507.529472 56.935369 
L 543.763238 147.058381 
L 579.997005 240.091848 
L 616.230771 148.924366 
L 652.464537 56.001791 
L 688.698303 149.632436 
L 724.932069 242.367406 
L 761.165836 149.797701 
L 797.399602 57.660657 
L 833.633368 149.008532 
" style="fill:none;opacity:0.5;stroke:#440154;stroke-linecap:square;stroke-width:1.5;"/>
   </g>
   <g id="line2d_43">
    <path clip-path="url(#pa3875aee4c)" d="M 471.295706 148.144733 
L 507.529472 56.509586 
L 543.763238 148.975542 
L 579.997005 241.891658 
L 616.230771 148.6085 
L 652.464537 54.868315 
L 688.698303 148.93977 
L 724.932069 241.692286 
L 761.165836 148.946571 
L 797.399602 56.039429 
L 833.633368 149.667275 
" style="fill:none;opacity:0.5;stroke:#440154;stroke-linecap:square;stroke-width:1.5;"/>
   </g>
   <g id="line2d_44">
    <path clip-path="url(#pa3875aee4c)" d="M 471.295706 147.714047 
L 507.529472 56.218233 
L 543.763238 149.447078 
L 579.997005 241.817532 
L 616.230771 149.764815 
L 652.464537 56.355965 
L 688.698303 150.211418 
L 724.932069 241.796781 
L 761.165836 150.04637 
L 797.399602 56.347493 
L 833.633368 148.887088 
" style="fill:none;opacity:0.5;stroke:#440154;stroke-linecap:square;stroke-width:1.5;"/>
   </g>
   <g id="line2d_45">
    <path clip-path="url(#pa3875aee4c)" d="M 471.295706 147.584477 
L 507.529472 55.768824 
L 543.763238 149.900891 
L 579.997005 240.128545 
L 616.230771 149.183531 
L 652.464537 56.64964 
L 688.698303 148.33527 
L 724.932069 242.511022 
L 761.165836 150.359016 
L 797.399602 56.930368 
L 833.633368 147.881657 
" style="fill:none;opacity:0.5;stroke:#440154;stroke-linecap:square;stroke-width:1.5;"/>
   </g>
   <g id="line2d_46">
    <path clip-path="url(#pa3875aee4c)" d="M 471.295706 149.236988 
L 507.529472 56.996505 
L 543.763238 149.417236 
L 579.997005 241.931884 
L 616.230771 148.335997 
L 652.464537 56.248329 
L 688.698303 148.441762 
L 724.932069 242.476141 
L 761.165836 149.051649 
L 797.399602 57.291086 
L 833.633368 148.500463 
" style="fill:none;opacity:0.5;stroke:#440154;stroke-linecap:square;stroke-width:1.5;"/>
   </g>
   <g id="line2d_47">
    <path clip-path="url(#pa3875aee4c)" d="M 471.295706 148.501643 
L 507.529472 58.492824 
L 543.763238 149.963688 
L 579.997005 242.322968 
L 616.230771 149.109973 
L 652.464537 56.505963 
L 688.698303 148.41802 
L 724.932069 241.353278 
L 761.165836 147.782034 
L 797.399602 56.595389 
L 833.633368 148.955273 
" style="fill:none;opacity:0.5;stroke:#440154;stroke-linecap:square;stroke-width:1.5;"/>
   </g>
   <g id="line2d_48">
    <path clip-path="url(#pa3875aee4c)" d="M 471.295706 150.43816 
L 507.529472 57.406291 
L 543.763238 148.026198 
L 579.997005 242.472464 
L 616.230771 150.349064 
L 652.464537 56.751776 
L 688.698303 147.808749 
L 724.932069 240.852584 
L 761.165836 149.722307 
L 797.399602 57.509983 
L 833.633368 148.850755 
" style="fill:none;opacity:0.5;stroke:#440154;stroke-linecap:square;stroke-width:1.5;"/>
   </g>
   <g id="line2d_49">
    <path clip-path="url(#pa3875aee4c)" d="M 471.295706 150.68069 
L 507.529472 56.888837 
L 543.763238 148.235817 
L 579.997005 242.325046 
L 616.230771 148.233275 
L 652.464537 55.81395 
L 688.698303 150.603165 
L 724.932069 241.978335 
L 761.165836 150.440684 
L 797.399602 57.091533 
L 833.633368 147.812401 
" style="fill:none;opacity:0.5;stroke:#440154;stroke-linecap:square;stroke-width:1.5;"/>
   </g>
   <g id="line2d_50">
    <path clip-path="url(#pa3875aee4c)" d="M 471.295706 149.074495 
L 507.529472 56.973272 
L 543.763238 150.749824 
L 579.997005 239.342287 
L 616.230771 148.369965 
L 652.464537 56.449949 
L 688.698303 149.289602 
L 724.932069 241.210309 
L 761.165836 151.776361 
L 797.399602 56.74044 
L 833.633368 148.926569 
" style="fill:none;opacity:0.5;stroke:#440154;stroke-linecap:square;stroke-width:1.5;"/>
   </g>
   <g id="line2d_51">
    <path clip-path="url(#pa3875aee4c)" d="M 471.295706 148.719573 
L 507.529472 56.985983 
L 543.763238 148.716278 
L 579.997005 241.777557 
L 616.230771 148.825723 
L 652.464537 56.969729 
L 688.698303 149.224651 
L 724.932069 242.180075 
L 761.165836 148.627523 
L 797.399602 56.569732 
L 833.633368 149.342303 
" style="fill:none;opacity:0.5;stroke:#440154;stroke-linecap:square;stroke-width:1.5;"/>
   </g>
   <g id="line2d_52">
    <path clip-path="url(#pa3875aee4c)" d="M 471.295706 149.541379 
L 507.529472 56.507008 
L 543.763238 149.458885 
L 579.997005 242.159912 
L 616.230771 150.043696 
L 652.464537 54.466393 
L 688.698303 149.479326 
L 724.932069 241.864835 
L 761.165836 149.927919 
L 797.399602 57.635066 
L 833.633368 149.748065 
" style="fill:none;opacity:0.5;stroke:#440154;stroke-linecap:square;stroke-width:1.5;"/>
   </g>
   <g id="line2d_53">
    <path clip-path="url(#pa3875aee4c)" d="M 471.295706 151.111336 
L 507.529472 55.746656 
L 543.763238 149.097023 
L 579.997005 240.124056 
L 616.230771 149.137782 
L 652.464537 55.886422 
L 688.698303 148.575066 
L 724.932069 241.433714 
L 761.165836 149.193665 
L 797.399602 58.704942 
L 833.633368 149.679783 
" style="fill:none;opacity:0.5;stroke:#440154;stroke-linecap:square;stroke-width:1.5;"/>
   </g>
   <g id="line2d_54">
    <path clip-path="url(#pa3875aee4c)" d="M 471.295706 148.107879 
L 507.529472 57.650622 
L 543.763238 148.074567 
L 579.997005 240.367457 
L 616.230771 148.242142 
L 652.464537 56.662072 
L 688.698303 149.867924 
L 724.932069 241.771145 
L 761.165836 148.039904 
L 797.399602 55.736595 
L 833.633368 150.403486 
" style="fill:none;opacity:0.5;stroke:#440154;stroke-linecap:square;stroke-width:1.5;"/>
   </g>
   <g id="line2d_55">
    <path clip-path="url(#pa3875aee4c)" d="M 471.295706 148.446591 
L 507.529472 57.119037 
L 543.763238 149.984475 
L 579.997005 240.287741 
L 616.230771 149.380252 
L 652.464537 58.652528 
L 688.698303 149.482081 
L 724.932069 241.87937 
L 761.165836 148.893881 
L 797.399602 56.055126 
L 833.633368 150.986539 
" style="fill:none;opacity:0.5;stroke:#440154;stroke-linecap:square;stroke-width:1.5;"/>
   </g>
   <g id="line2d_56">
    <path clip-path="url(#pa3875aee4c)" d="M 471.295706 149.631427 
L 507.529472 55.954663 
L 543.763238 150.050671 
L 579.997005 242.233362 
L 616.230771 148.41571 
L 652.464537 56.597324 
L 688.698303 149.548903 
L 724.932069 242.477125 
L 761.165836 149.43779 
L 797.399602 57.158739 
L 833.633368 149.673909 
" style="fill:none;opacity:0.5;stroke:#440154;stroke-linecap:square;stroke-width:1.5;"/>
   </g>
   <g id="line2d_57">
    <path clip-path="url(#pa3875aee4c)" d="M 471.295706 149.943632 
L 507.529472 57.427799 
L 543.763238 150.917542 
L 579.997005 241.009009 
L 616.230771 148.828014 
L 652.464537 55.041597 
L 688.698303 149.643437 
L 724.932069 240.216147 
L 761.165836 148.871453 
L 797.399602 56.780274 
L 833.633368 149.656264 
" style="fill:none;opacity:0.5;stroke:#440154;stroke-linecap:square;stroke-width:1.5;"/>
   </g>
   <g id="line2d_58">
    <path clip-path="url(#pa3875aee4c)" d="M 471.295706 149.90166 
L 507.529472 56.665204 
L 543.763238 150.012002 
L 579.997005 242.067191 
L 616.230771 148.450308 
L 652.464537 57.404582 
L 688.698303 150.841783 
L 724.932069 241.681363 
L 761.165836 148.203727 
L 797.399602 58.081404 
L 833.633368 149.043833 
" style="fill:none;opacity:0.5;stroke:#440154;stroke-linecap:square;stroke-width:1.5;"/>
   </g>
   <g id="line2d_59">
    <path clip-path="url(#pa3875aee4c)" d="M 471.295706 148.645408 
L 507.529472 55.315857 
L 543.763238 150.875542 
L 579.997005 241.296643 
L 616.230771 149.944629 
L 652.464537 56.612475 
L 688.698303 150.151969 
L 724.932069 243.246671 
L 761.165836 148.729609 
L 797.399602 56.496152 
L 833.633368 149.743357 
" style="fill:none;opacity:0.5;stroke:#440154;stroke-linecap:square;stroke-width:1.5;"/>
   </g>
   <g id="line2d_60">
    <path clip-path="url(#pa3875aee4c)" d="M 471.295706 149.903954 
L 507.529472 58.771216 
L 543.763238 149.519347 
L 579.997005 241.390783 
L 616.230771 148.852007 
L 652.464537 55.704919 
L 688.698303 150.910309 
L 724.932069 240.646446 
L 761.165836 147.588627 
L 797.399602 54.591104 
L 833.633368 149.484812 
" style="fill:none;opacity:0.5;stroke:#440154;stroke-linecap:square;stroke-width:1.5;"/>
   </g>
   <g id="line2d_61">
    <path clip-path="url(#pa3875aee4c)" d="M 471.295706 148.806977 
L 507.529472 155.304362 
L 543.763238 245.647442 
L 579.997005 152.796029 
L 616.230771 62.947956 
L 652.464537 156.602282 
L 688.698303 243.742777 
L 724.932069 145.94419 
L 761.165836 56.940089 
L 797.399602 151.510632 
L 833.633368 153.417029 
" style="fill:none;opacity:0.5;stroke:#21918c;stroke-linecap:square;stroke-width:1.5;"/>
   </g>
   <g id="line2d_62">
    <path clip-path="url(#pa3875aee4c)" d="M 471.295706 153.024271 
L 507.529472 152.952889 
L 543.763238 243.231153 
L 579.997005 147.729531 
L 616.230771 58.715711 
L 652.464537 149.524087 
L 688.698303 243.746736 
L 724.932069 148.191693 
L 761.165836 54.314492 
L 797.399602 156.690354 
L 833.633368 153.697317 
" style="fill:none;opacity:0.5;stroke:#21918c;stroke-linecap:square;stroke-width:1.5;"/>
   </g>
   <g id="line2d_63">
    <path clip-path="url(#pa3875aee4c)" d="M 471.295706 156.135483 
L 507.529472 154.169755 
L 543.763238 244.92011 
L 579.997005 145.952194 
L 616.230771 63.387223 
L 652.464537 147.060866 
L 688.698303 239.429108 
L 724.932069 144.819761 
L 761.165836 53.770871 
L 797.399602 152.073695 
L 833.633368 146.553218 
" style="fill:none;opacity:0.5;stroke:#21918c;stroke-linecap:square;stroke-width:1.5;"/>
   </g>
   <g id="line2d_64">
    <path clip-path="url(#pa3875aee4c)" d="M 471.295706 146.982 
L 507.529472 146.181849 
L 543.763238 242.95373 
L 579.997005 141.593529 
L 616.230771 52.012458 
L 652.464537 141.961489 
L 688.698303 244.414332 
L 724.932069 150.266213 
L 761.165836 56.118541 
L 797.399602 155.135638 
L 833.633368 149.392665 
" style="fill:none;opacity:0.5;stroke:#21918c;stroke-linecap:square;stroke-width:1.5;"/>
   </g>
   <g id="line2d_65">
    <path clip-path="url(#pa3875aee4c)" d="M 471.295706 146.667642 
L 507.529472 153.424595 
L 543.763238 242.607707 
L 579.997005 143.501319 
L 616.230771 51.031661 
L 652.464537 156.740855 
L 688.698303 239.715155 
L 724.932069 144.96129 
L 761.165836 56.741244 
L 797.399602 153.945378 
L 833.633368 149.968927 
" style="fill:none;opacity:0.5;stroke:#21918c;stroke-linecap:square;stroke-width:1.5;"/>
   </g>
   <g id="line2d_66">
    <path clip-path="url(#pa3875aee4c)" d="M 471.295706 150.797206 
L 507.529472 149.935552 
L 543.763238 60.979611 
L 579.997005 147.487515 
L 616.230771 236.17171 
L 652.464537 156.91139 
L 688.698303 50.97339 
L 724.932069 142.521975 
L 761.165836 240.801226 
L 797.399602 151.757323 
L 833.633368 145.892297 
" style="fill:none;opacity:0.5;stroke:#fde725;stroke-linecap:square;stroke-width:1.5;"/>
   </g>
   <g id="line2d_67">
    <path clip-path="url(#pa3875aee4c)" d="M 471.295706 145.597743 
L 507.529472 142.452374 
L 543.763238 56.149382 
L 579.997005 147.76608 
L 616.230771 240.434412 
L 652.464537 151.440549 
L 688.698303 59.031416 
L 724.932069 150.347989 
L 761.165836 239.720323 
L 797.399602 145.925478 
L 833.633368 155.96347 
" style="fill:none;opacity:0.5;stroke:#fde725;stroke-linecap:square;stroke-width:1.5;"/>
   </g>
   <g id="line2d_68">
    <path clip-path="url(#pa3875aee4c)" d="M 471.295706 159.429074 
L 507.529472 148.858321 
L 543.763238 61.045056 
L 579.997005 151.953536 
L 616.230771 245.860339 
L 652.464537 153.312843 
L 688.698303 57.142989 
L 724.932069 147.808852 
L 761.165836 251.464591 
L 797.399602 153.032807 
L 833.633368 150.675672 
" style="fill:none;opacity:0.5;stroke:#fde725;stroke-linecap:square;stroke-width:1.5;"/>
   </g>
   <g id="line2d_69">
    <path clip-path="url(#pa3875aee4c)" d="M 471.295706 144.045301 
L 507.529472 154.199103 
L 543.763238 52.724414 
L 579.997005 152.359358 
L 616.230771 239.021125 
L 652.464537 150.236263 
L 688.698303 61.209121 
L 724.932069 156.107624 
L 761.165836 248.029394 
L 797.399602 144.303354 
L 833.633368 151.411296 
" style="fill:none;opacity:0.5;stroke:#fde725;stroke-linecap:square;stroke-width:1.5;"/>
   </g>
   <g id="line2d_70">
    <path clip-path="url(#pa3875aee4c)" d="M 471.295706 151.825068 
L 507.529472 142.547034 
L 543.763238 57.769889 
L 579.997005 152.744602 
L 616.230771 252.11553 
L 652.464537 147.956251 
L 688.698303 53.870653 
L 724.932069 150.985365 
L 761.165836 236.571655 
L 797.399602 150.377054 
L 833.633368 150.39877 
" style="fill:none;opacity:0.5;stroke:#fde725;stroke-linecap:square;stroke-width:1.5;"/>
   </g>
   <g id="text_1">
    <!-- train -->
    <defs>
     <path d="M 16.703125 37 
L 29.703125 37 
L 29.703125 42.765625 
L 16.703125 42.765625 
L 16.703125 55 
L 9.59375 55 
L 9.59375 42.765625 
L 1.703125 42.765625 
L 1.703125 37 
L 9.40625 37 
L 9.40625 11.703125 
C 9.40625 6 10.703125 -1 17.296875 -1 
C 22.296875 -1 26.90625 0.390625 31.296875 2.6875 
L 29.703125 8.5625 
C 27.296875 6.46875 24.40625 5.265625 21.296875 5.265625 
C 16.90625 5.265625 16.703125 10.875 16.703125 13.375 
z
" id="CMSS17-116"/>
     <path d="M 14.90625 21.296875 
C 14.90625 30.703125 21.796875 37 30.59375 37 
L 30.59375 43.578125 
C 24.203125 43.578125 18.203125 40.390625 14.59375 35.203125 
L 14.59375 43.09375 
L 7.5 43.09375 
L 7.5 0 
L 14.90625 0 
z
" id="CMSS17-114"/>
     <path d="M 37.59375 27.984375 
C 37.59375 37.375 30.90625 43.875 21.90625 43.875 
C 17.5 43.875 12.703125 43.078125 7.203125 39.890625 
L 7.796875 33.359375 
C 10.296875 35.125 14.59375 38 21.796875 38 
C 26.90625 38 30 34.0625 30 27.84375 
L 30 24 
C 14 24 4 19.34375 4 11.34375 
C 4 7.203125 6.5 -1 14.796875 -1 
C 16.296875 -1 24.40625 -1 30.203125 3.390625 
L 30.203125 -0.296875 
L 37.59375 -0.296875 
z
M 30 12.75 
C 30 10.953125 30 8.5625 27 6.78125 
C 24.40625 5.078125 21.09375 5.078125 19.703125 5.078125 
C 14.703125 5.078125 11.296875 7.984375 11.296875 11.625 
C 11.296875 18.921875 26.90625 18.921875 30 18.921875 
z
" id="CMSS17-97"/>
     <path d="M 15.296875 65.359375 
L 6.90625 65.359375 
L 6.90625 57 
L 15.296875 57 
z
M 14.796875 42.796875 
L 7.40625 42.796875 
L 7.40625 0 
L 14.796875 0 
z
" id="CMSS17-105"/>
     <path d="M 40.90625 29.328125 
C 40.90625 35.671875 39.40625 44 28.09375 44 
C 21.703125 44 17.5 40.71875 14.703125 37.328125 
L 14.703125 43.09375 
L 7.40625 43.09375 
L 7.40625 0 
L 15 0 
L 15 24.359375 
C 15 30.6875 17.40625 37.9375 24.203125 37.9375 
C 33 37.9375 33.296875 32 33.296875 28.578125 
L 33.296875 0 
L 40.90625 0 
z
" id="CMSS17-110"/>
    </defs>
    <g transform="translate(232.167246 39.776824)scale(0.24 -0.24)">
     <use transform="scale(0.996264)" xlink:href="#CMSS17-116"/>
     <use transform="translate(33.831567 0)scale(0.996264)" xlink:href="#CMSS17-114"/>
     <use transform="translate(65.741339 0)scale(0.996264)" xlink:href="#CMSS17-97"/>
     <use transform="translate(110.66326 0)scale(0.996264)" xlink:href="#CMSS17-105"/>
     <use transform="translate(132.843983 0)scale(0.996264)" xlink:href="#CMSS17-110"/>
    </g>
   </g>
   <g id="text_2">
    <!-- test -->
    <defs>
     <path d="M 39.09375 21.515625 
C 39.09375 24.84375 38.90625 31.296875 35.703125 36.640625 
C 32.203125 42.390625 26.5 44 22.203125 44 
C 11.796875 44 3 34.1875 3 21.484375 
C 3 9.09375 12.09375 -1 23.59375 -1 
C 28.09375 -1 33.59375 0.296875 38.59375 3.875 
C 38.59375 4.28125 38.40625 6.46875 38.296875 6.5625 
C 38.296875 6.765625 38 9.84375 38 10.25 
C 33.203125 6.359375 27.703125 5.078125 23.703125 5.078125 
C 17.296875 5.078125 10.40625 10.421875 10.09375 21.515625 
z
M 10.90625 27 
C 12.203125 32.5625 16.59375 37.828125 22.203125 37.828125 
C 23.703125 37.828125 30.703125 37.828125 32.5 27 
z
" id="CMSS17-101"/>
     <path d="M 32.203125 41.046875 
C 26.296875 43.859375 21.703125 43.859375 18.703125 43.859375 
C 11.59375 43.859375 3.09375 41.375 3.09375 31.296875 
C 3.09375 21.234375 14.09375 19.03125 17.09375 18.421875 
C 21.703125 17.53125 26.796875 16.53125 26.796875 11.5625 
C 26.796875 5.265625 19.59375 5.265625 18.296875 5.265625 
C 14.296875 5.265625 8.796875 6.359375 3.796875 9.96875 
L 2.59375 3.28125 
C 8.296875 0 13.796875 -1 18.40625 -1 
C 30.703125 -1 33.796875 6.5 33.796875 12.203125 
C 33.796875 17.09375 31 20.390625 29.09375 21.890625 
C 25.796875 24.5 24.59375 24.796875 16.40625 26.5 
C 15 26.703125 10.09375 27.796875 10.09375 32.28125 
C 10.09375 38 16.40625 38 17.796875 38 
C 24.296875 38 28.296875 35.984375 31 34.5 
z
" id="CMSS17-115"/>
    </defs>
    <g transform="translate(635.038681 39.776824)scale(0.24 -0.24)">
     <use transform="scale(0.996264)" xlink:href="#CMSS17-116"/>
     <use transform="translate(33.831567 0)scale(0.996264)" xlink:href="#CMSS17-101"/>
     <use transform="translate(75.470389 0)scale(0.996264)" xlink:href="#CMSS17-115"/>
     <use transform="translate(111.383931 0)scale(0.996264)" xlink:href="#CMSS17-116"/>
    </g>
   </g>
   <g id="legend_1">
    <g id="patch_2">
     <path d="M 199.90991 296.69 
L 706.447735 296.69 
Q 711.247735 296.69 711.247735 291.89 
L 711.247735 260.839243 
Q 711.247735 256.039243 706.447735 256.039243 
L 199.90991 256.039243 
Q 195.10991 256.039243 195.10991 260.839243 
L 195.10991 291.89 
Q 195.10991 296.69 199.90991 296.69 
z
" style="fill:#ffffff;opacity:0.8;stroke:#cccccc;stroke-linejoin:miter;"/>
    </g>
    <g id="line2d_71">
     <path d="M 204.70991 274.039243 
L 252.70991 274.039243 
" style="fill:none;opacity:0.5;stroke:#440154;stroke-dasharray:5.55,2.4;stroke-dashoffset:0;stroke-width:1.5;"/>
    </g>
    <g id="line2d_72"/>
    <g id="text_3">
     <!-- Class 0 -->
     <defs>
      <path d="M 54.703125 11.15625 
C 48 6.671875 44.90625 5.375 36.796875 5.375 
C 22.796875 5.375 14.59375 20.359375 14.59375 34.046875 
C 14.59375 48.625 23 63 37.203125 63 
C 43.59375 63 47.796875 61.21875 52.90625 58.046875 
L 54.296875 65.890625 
C 49.5 68.28125 43.40625 69.375 37.296875 69.375 
C 18.09375 69.375 6.203125 51.8125 6.203125 34.046875 
C 6.203125 14.484375 20.296875 -1 36.296875 -1 
C 44.90625 -1 47.90625 -0.296875 55.296875 4.375 
z
" id="CMSS17-67"/>
      <path d="M 14.796875 69 
L 7.40625 69 
L 7.40625 0 
L 14.796875 0 
z
" id="CMSS17-108"/>
      <path d="M 43.09375 31.9375 
C 43.09375 37.578125 43 48.078125 38.90625 56.1875 
C 34.796875 64 28.203125 66.078125 23.5 66.078125 
C 16.703125 66.078125 10.90625 62.109375 7.90625 55.78125 
C 4.703125 49.15625 3.796875 42.328125 3.796875 31.9375 
C 3.796875 24.828125 4.09375 16.109375 7.703125 8.484375 
C 11.796875 0.078125 18.703125 -2 23.40625 -2 
C 29.59375 -2 35.59375 1.265625 39 8.09375 
C 42.5 15.21875 43.09375 23.03125 43.09375 31.9375 
z
M 23.40625 4.078125 
C 15.796875 4.078125 13.5 12.671875 12.796875 15.546875 
C 11.59375 20.46875 11.40625 25.21875 11.40625 33.03125 
C 11.40625 39.15625 11.40625 46.0625 13.296875 51.515625 
C 15.59375 57.828125 19.59375 60 23.40625 60 
C 30.796875 60 33.203125 52.6875 34 50.125 
C 35.5 44.890625 35.5 38.765625 35.5 33.03125 
C 35.5 23.84375 35.5 4.078125 23.40625 4.078125 
z
" id="CMSS17-48"/>
     </defs>
     <g transform="translate(271.90991 282.439243)scale(0.24 -0.24)">
      <use transform="scale(0.996264)" xlink:href="#CMSS17-67"/>
      <use transform="translate(59.855772 0)scale(0.996264)" xlink:href="#CMSS17-108"/>
      <use transform="translate(82.036495 0)scale(0.996264)" xlink:href="#CMSS17-97"/>
      <use transform="translate(126.958415 0)scale(0.996264)" xlink:href="#CMSS17-115"/>
      <use transform="translate(162.871957 0)scale(0.996264)" xlink:href="#CMSS17-115"/>
      <use transform="translate(230.014612 0)scale(0.996264)" xlink:href="#CMSS17-48"/>
     </g>
    </g>
    <g id="line2d_73">
     <path d="M 386.355852 274.039243 
L 434.355852 274.039243 
" style="fill:none;opacity:0.5;stroke:#21918c;stroke-linecap:square;stroke-width:1.5;"/>
    </g>
    <g id="line2d_74"/>
    <g id="text_4">
     <!-- Class 1 -->
     <defs>
      <path d="M 28.40625 67 
L 26.5 67 
C 21.09375 61.5625 14.796875 60.78125 8.40625 60.78125 
L 8.40625 55 
C 11.296875 55 16 55 20.703125 57.296875 
L 20.703125 5.765625 
L 8.90625 5.765625 
L 8.90625 0 
L 40.203125 0 
L 40.203125 5.765625 
L 28.40625 5.765625 
z
" id="CMSS17-49"/>
     </defs>
     <g transform="translate(453.555852 282.439243)scale(0.24 -0.24)">
      <use transform="scale(0.996264)" xlink:href="#CMSS17-67"/>
      <use transform="translate(59.855772 0)scale(0.996264)" xlink:href="#CMSS17-108"/>
      <use transform="translate(82.036495 0)scale(0.996264)" xlink:href="#CMSS17-97"/>
      <use transform="translate(126.958415 0)scale(0.996264)" xlink:href="#CMSS17-115"/>
      <use transform="translate(162.871957 0)scale(0.996264)" xlink:href="#CMSS17-115"/>
      <use transform="translate(230.014612 0)scale(0.996264)" xlink:href="#CMSS17-49"/>
     </g>
    </g>
    <g id="line2d_75">
     <path d="M 568.001794 274.039243 
L 616.001794 274.039243 
" style="fill:none;opacity:0.5;stroke:#fde725;stroke-linecap:square;stroke-width:1.5;"/>
    </g>
    <g id="line2d_76"/>
    <g id="text_5">
     <!-- Class 2 -->
     <defs>
      <path d="M 25.796875 21.203125 
C 28.59375 24.078125 32.796875 27.5625 35.703125 31.046875 
C 38.5 34.4375 42.203125 39.234375 42.203125 46.203125 
C 42.203125 57.140625 34.796875 67 22.203125 67 
C 12.296875 67 6.59375 60.828125 3.90625 51.15625 
L 7.796875 45.765625 
C 10 54.84375 13.09375 60.625 20.90625 60.625 
C 29.5 60.625 34.296875 53.640625 34.296875 45.96875 
C 34.296875 36.796875 27.296875 29.703125 22 24.421875 
C 16.09375 18.546875 10.296875 12.5625 4.703125 6.375 
L 4.703125 0 
L 42.203125 0 
L 42.203125 6.765625 
L 25.203125 6.765625 
C 24 6.765625 22.796875 6.765625 21.59375 6.765625 
L 11.59375 6.765625 
L 11.59375 6.859375 
z
" id="CMSS17-50"/>
     </defs>
     <g transform="translate(635.201794 282.439243)scale(0.24 -0.24)">
      <use transform="scale(0.996264)" xlink:href="#CMSS17-67"/>
      <use transform="translate(59.855772 0)scale(0.996264)" xlink:href="#CMSS17-108"/>
      <use transform="translate(82.036495 0)scale(0.996264)" xlink:href="#CMSS17-97"/>
      <use transform="translate(126.958415 0)scale(0.996264)" xlink:href="#CMSS17-115"/>
      <use transform="translate(162.871957 0)scale(0.996264)" xlink:href="#CMSS17-115"/>
      <use transform="translate(230.014612 0)scale(0.996264)" xlink:href="#CMSS17-50"/>
     </g>
    </g>
   </g>
  </g>
 </g>
 <defs>
  <clipPath id="pa3875aee4c">
   <rect height="277.2" width="837" x="34.678823" y="10.7"/>
  </clipPath>
 </defs>
</svg>
