<?xml version="1.0" encoding="utf-8" standalone="no"?>
<!DOCTYPE svg PUBLIC "-//W3C//DTD SVG 1.1//EN"
  "http://www.w3.org/Graphics/SVG/1.1/DTD/svg11.dtd">
<!-- Created with matplotlib (http://matplotlib.org/) -->
<svg height="339pt" version="1.1" viewBox="0 0 454 339" width="454pt" xmlns="http://www.w3.org/2000/svg" xmlns:xlink="http://www.w3.org/1999/xlink">
 <defs>
  <style type="text/css">
*{stroke-linecap:butt;stroke-linejoin:round;}
  </style>
 </defs>
 <g id="figure_1">
  <g id="patch_1">
   <path d="M 0 339.38 
L 454.58 339.38 
L 454.58 0 
L 0 0 
z
" style="fill:#ffffff;"/>
  </g>
  <g id="axes_1">
   <g id="patch_2">
    <path d="M 26.930079 316.324323 
L 443.88 316.324323 
L 443.88 10.7 
L 26.930079 10.7 
z
" style="fill:#ffffff;"/>
   </g>
   <g id="PathCollection_1">
    <defs>
     <path d="M 0 5 
C 1.326016 5 2.597899 4.473168 3.535534 3.535534 
C 4.473168 2.597899 5 1.326016 5 0 
C 5 -1.326016 4.473168 -2.597899 3.535534 -3.535534 
C 2.597899 -4.473168 1.326016 -5 0 -5 
C -1.326016 -5 -2.597899 -4.473168 -3.535534 -3.535534 
C -4.473168 -2.597899 -5 -1.326016 -5 0 
C -5 1.326016 -4.473168 2.597899 -3.535534 3.535534 
C -2.597899 4.473168 -1.326016 5 0 5 
z
" id="m0909ca0ef8" style="stroke:#440154;"/>
    </defs>
    <g clip-path="url(#p5ee41baec2)">
     <use style="fill:#440154;stroke:#440154;" x="53.900522" xlink:href="#m0909ca0ef8" y="295.214887"/>
     <use style="fill:#440154;stroke:#440154;" x="52.17964" xlink:href="#m0909ca0ef8" y="296.838967"/>
     <use style="fill:#440154;stroke:#440154;" x="53.100118" xlink:href="#m0909ca0ef8" y="295.850513"/>
     <use style="fill:#440154;stroke:#440154;" x="53.085258" xlink:href="#m0909ca0ef8" y="296.256632"/>
     <use style="fill:#440154;stroke:#440154;" x="52.801371" xlink:href="#m0909ca0ef8" y="296.186443"/>
     <use style="fill:#440154;stroke:#440154;" x="53.281016" xlink:href="#m0909ca0ef8" y="295.658295"/>
     <use style="fill:#440154;stroke:#440154;" x="53.551361" xlink:href="#m0909ca0ef8" y="295.614306"/>
     <use style="fill:#440154;stroke:#440154;" x="53.001413" xlink:href="#m0909ca0ef8" y="295.872439"/>
     <use style="fill:#440154;stroke:#440154;" x="53.110892" xlink:href="#m0909ca0ef8" y="296.089251"/>
     <use style="fill:#440154;stroke:#440154;" x="53.870317" xlink:href="#m0909ca0ef8" y="295.680779"/>
     <use style="fill:#440154;stroke:#440154;" x="51.143704" xlink:href="#m0909ca0ef8" y="297.594221"/>
     <use style="fill:#440154;stroke:#440154;" x="52.792137" xlink:href="#m0909ca0ef8" y="296.011466"/>
     <use style="fill:#440154;stroke:#440154;" x="53.221307" xlink:href="#m0909ca0ef8" y="295.848464"/>
     <use style="fill:#440154;stroke:#440154;" x="52.987134" xlink:href="#m0909ca0ef8" y="296.219976"/>
     <use style="fill:#440154;stroke:#440154;" x="54.607589" xlink:href="#m0909ca0ef8" y="295.116291"/>
     <use style="fill:#440154;stroke:#440154;" x="51.460128" xlink:href="#m0909ca0ef8" y="297.15924"/>
     <use style="fill:#440154;stroke:#440154;" x="52.713004" xlink:href="#m0909ca0ef8" y="296.128314"/>
     <use style="fill:#440154;stroke:#440154;" x="53.365278" xlink:href="#m0909ca0ef8" y="295.905833"/>
     <use style="fill:#440154;stroke:#440154;" x="53.675495" xlink:href="#m0909ca0ef8" y="295.354702"/>
     <use style="fill:#440154;stroke:#440154;" x="53.35648" xlink:href="#m0909ca0ef8" y="295.926634"/>
     <use style="fill:#440154;stroke:#440154;" x="51.489126" xlink:href="#m0909ca0ef8" y="297.774627"/>
     <use style="fill:#440154;stroke:#440154;" x="53.066547" xlink:href="#m0909ca0ef8" y="295.792044"/>
     <use style="fill:#440154;stroke:#440154;" x="52.511922" xlink:href="#m0909ca0ef8" y="296.905144"/>
     <use style="fill:#440154;stroke:#440154;" x="53.298468" xlink:href="#m0909ca0ef8" y="295.947984"/>
     <use style="fill:#440154;stroke:#440154;" x="54.560513" xlink:href="#m0909ca0ef8" y="294.456345"/>
    </g>
   </g>
   <g id="PathCollection_2">
    <defs>
     <path d="M 0 5 
C 1.326016 5 2.597899 4.473168 3.535534 3.535534 
C 4.473168 2.597899 5 1.326016 5 0 
C 5 -1.326016 4.473168 -2.597899 3.535534 -3.535534 
C 2.597899 -4.473168 1.326016 -5 0 -5 
C -1.326016 -5 -2.597899 -4.473168 -3.535534 -3.535534 
C -4.473168 -2.597899 -5 -1.326016 -5 0 
C -5 1.326016 -4.473168 2.597899 -3.535534 3.535534 
C -2.597899 4.473168 -1.326016 5 0 5 
z
" id="m0190dd6ab7" style="stroke:#21918c;"/>
    </defs>
    <g clip-path="url(#p5ee41baec2)">
     <use style="fill:#21918c;stroke:#21918c;" x="418.039785" xlink:href="#m0190dd6ab7" y="29.652951"/>
     <use style="fill:#21918c;stroke:#21918c;" x="419.123794" xlink:href="#m0190dd6ab7" y="28.855159"/>
     <use style="fill:#21918c;stroke:#21918c;" x="416.108616" xlink:href="#m0190dd6ab7" y="31.038387"/>
     <use style="fill:#21918c;stroke:#21918c;" x="416.555525" xlink:href="#m0190dd6ab7" y="30.735291"/>
     <use style="fill:#21918c;stroke:#21918c;" x="424.862351" xlink:href="#m0190dd6ab7" y="24.676887"/>
    </g>
   </g>
   <g id="PathCollection_3">
    <defs>
     <path d="M 0 5 
C 1.326016 5 2.597899 4.473168 3.535534 3.535534 
C 4.473168 2.597899 5 1.326016 5 0 
C 5 -1.326016 4.473168 -2.597899 3.535534 -3.535534 
C 2.597899 -4.473168 1.326016 -5 0 -5 
C -1.326016 -5 -2.597899 -4.473168 -3.535534 -3.535534 
C -4.473168 -2.597899 -5 -1.326016 -5 0 
C -5 1.326016 -4.473168 2.597899 -3.535534 3.535534 
C -2.597899 4.473168 -1.326016 5 0 5 
z
" id="m7084148ce2" style="stroke:#fde725;"/>
    </defs>
    <g clip-path="url(#p5ee41baec2)">
     <use style="fill:#fde725;stroke:#fde725;" x="166.627525" xlink:href="#m7084148ce2" y="213.507564"/>
     <use style="fill:#fde725;stroke:#fde725;" x="178.944282" xlink:href="#m7084148ce2" y="204.596338"/>
     <use style="fill:#fde725;stroke:#fde725;" x="172.57715" xlink:href="#m7084148ce2" y="209.247541"/>
     <use style="fill:#fde725;stroke:#fde725;" x="173.643822" xlink:href="#m7084148ce2" y="208.477967"/>
     <use style="fill:#fde725;stroke:#fde725;" x="172.609987" xlink:href="#m7084148ce2" y="209.256499"/>
    </g>
   </g>
   <g id="PathCollection_4">
    <defs>
     <path d="M -5 5 
L 5 -5 
M -5 -5 
L 5 5 
" id="m296985524f" style="stroke:#440154;stroke-width:1.5;"/>
    </defs>
    <g clip-path="url(#p5ee41baec2)">
     <use style="fill:#440154;stroke:#440154;stroke-width:1.5;" x="52.396571" xlink:href="#m296985524f" y="296.734282"/>
     <use style="fill:#440154;stroke:#440154;stroke-width:1.5;" x="50.809903" xlink:href="#m296985524f" y="297.496068"/>
     <use style="fill:#440154;stroke:#440154;stroke-width:1.5;" x="52.113845" xlink:href="#m296985524f" y="296.733319"/>
     <use style="fill:#440154;stroke:#440154;stroke-width:1.5;" x="51.49382" xlink:href="#m296985524f" y="297.273703"/>
     <use style="fill:#440154;stroke:#440154;stroke-width:1.5;" x="50.876122" xlink:href="#m296985524f" y="297.338659"/>
     <use style="fill:#440154;stroke:#440154;stroke-width:1.5;" x="52.117057" xlink:href="#m296985524f" y="296.780986"/>
     <use style="fill:#440154;stroke:#440154;stroke-width:1.5;" x="51.284459" xlink:href="#m296985524f" y="297.444346"/>
     <use style="fill:#440154;stroke:#440154;stroke-width:1.5;" x="50.684946" xlink:href="#m296985524f" y="297.954091"/>
     <use style="fill:#440154;stroke:#440154;stroke-width:1.5;" x="51.471855" xlink:href="#m296985524f" y="297.571211"/>
     <use style="fill:#440154;stroke:#440154;stroke-width:1.5;" x="50.433447" xlink:href="#m296985524f" y="297.51475"/>
     <use style="fill:#440154;stroke:#440154;stroke-width:1.5;" x="50.556209" xlink:href="#m296985524f" y="298.030087"/>
     <use style="fill:#440154;stroke:#440154;stroke-width:1.5;" x="51.094997" xlink:href="#m296985524f" y="297.76069"/>
     <use style="fill:#440154;stroke:#440154;stroke-width:1.5;" x="51.702449" xlink:href="#m296985524f" y="296.65429"/>
     <use style="fill:#440154;stroke:#440154;stroke-width:1.5;" x="51.962745" xlink:href="#m296985524f" y="296.949959"/>
     <use style="fill:#440154;stroke:#440154;stroke-width:1.5;" x="51.312584" xlink:href="#m296985524f" y="297.658477"/>
     <use style="fill:#440154;stroke:#440154;stroke-width:1.5;" x="50.040615" xlink:href="#m296985524f" y="298.349345"/>
     <use style="fill:#440154;stroke:#440154;stroke-width:1.5;" x="51.017147" xlink:href="#m296985524f" y="297.54555"/>
     <use style="fill:#440154;stroke:#440154;stroke-width:1.5;" x="51.557784" xlink:href="#m296985524f" y="297.055144"/>
     <use style="fill:#440154;stroke:#440154;stroke-width:1.5;" x="51.18071" xlink:href="#m296985524f" y="297.954987"/>
     <use style="fill:#440154;stroke:#440154;stroke-width:1.5;" x="51.525456" xlink:href="#m296985524f" y="297.451984"/>
     <use style="fill:#440154;stroke:#440154;stroke-width:1.5;" x="50.649499" xlink:href="#m296985524f" y="298.054241"/>
     <use style="fill:#440154;stroke:#440154;stroke-width:1.5;" x="52.958103" xlink:href="#m296985524f" y="296.57031"/>
     <use style="fill:#440154;stroke:#440154;stroke-width:1.5;" x="51.676041" xlink:href="#m296985524f" y="297.419221"/>
     <use style="fill:#440154;stroke:#440154;stroke-width:1.5;" x="52.037755" xlink:href="#m296985524f" y="296.822488"/>
     <use style="fill:#440154;stroke:#440154;stroke-width:1.5;" x="52.215574" xlink:href="#m296985524f" y="296.913733"/>
    </g>
   </g>
   <g id="PathCollection_5">
    <defs>
     <path d="M -5 5 
L 5 -5 
M -5 -5 
L 5 5 
" id="m7bbf794fa9" style="stroke:#21918c;stroke-width:1.5;"/>
    </defs>
    <g clip-path="url(#p5ee41baec2)">
     <use style="fill:#21918c;stroke:#21918c;stroke-width:1.5;" x="63.036254" xlink:href="#m7bbf794fa9" y="289.16174"/>
     <use style="fill:#21918c;stroke:#21918c;stroke-width:1.5;" x="52.233648" xlink:href="#m7bbf794fa9" y="296.892545"/>
     <use style="fill:#21918c;stroke:#21918c;stroke-width:1.5;" x="59.037825" xlink:href="#m7bbf794fa9" y="291.97358"/>
     <use style="fill:#21918c;stroke:#21918c;stroke-width:1.5;" x="64.042895" xlink:href="#m7bbf794fa9" y="287.87931"/>
     <use style="fill:#21918c;stroke:#21918c;stroke-width:1.5;" x="64.51712" xlink:href="#m7bbf794fa9" y="288.226832"/>
    </g>
   </g>
   <g id="PathCollection_6">
    <defs>
     <path d="M -5 5 
L 5 -5 
M -5 -5 
L 5 5 
" id="m992191df4f" style="stroke:#fde725;stroke-width:1.5;"/>
    </defs>
    <g clip-path="url(#p5ee41baec2)">
     <use style="fill:#fde725;stroke:#fde725;stroke-width:1.5;" x="58.971662" xlink:href="#m992191df4f" y="291.969744"/>
     <use style="fill:#fde725;stroke:#fde725;stroke-width:1.5;" x="55.107126" xlink:href="#m992191df4f" y="294.837712"/>
     <use style="fill:#fde725;stroke:#fde725;stroke-width:1.5;" x="57.071975" xlink:href="#m992191df4f" y="293.393315"/>
     <use style="fill:#fde725;stroke:#fde725;stroke-width:1.5;" x="60.578552" xlink:href="#m992191df4f" y="290.698938"/>
     <use style="fill:#fde725;stroke:#fde725;stroke-width:1.5;" x="58.583872" xlink:href="#m992191df4f" y="292.428771"/>
    </g>
   </g>
   <g id="matplotlib.axis_1">
    <g id="xtick_1">
     <g id="line2d_1">
      <defs>
       <path d="M 0 0 
L 0 3.5 
" id="mda008a3588" style="stroke:#000000;stroke-width:0.8;"/>
      </defs>
      <g>
       <use style="stroke:#000000;stroke-width:0.8;" x="49.22858" xlink:href="#mda008a3588" y="316.324323"/>
      </g>
     </g>
     <g id="text_1">
      <!-- $0.0$ -->
      <defs>
       <path d="M 42 31.640625 
C 42 37.75 41.90625 48.125 37.703125 56.109375 
C 34 63.109375 28.09375 65.59375 22.90625 65.59375 
C 18.09375 65.59375 12 63.40625 8.203125 56.203125 
C 4.203125 48.71875 3.796875 39.4375 3.796875 31.640625 
C 3.796875 25.953125 3.90625 17.28125 7 9.671875 
C 11.296875 -0.609375 19 -2 22.90625 -2 
C 27.5 -2 34.5 -0.109375 38.59375 9.375 
C 41.59375 16.28125 42 24.359375 42 31.640625 
z
M 22.90625 -0.40625 
C 16.5 -0.40625 12.703125 5.078125 11.296875 12.6875 
C 10.203125 18.5625 10.203125 27.15625 10.203125 32.75 
C 10.203125 40.4375 10.203125 46.828125 11.5 52.921875 
C 13.40625 61.390625 19 64 22.90625 64 
C 27 64 32.296875 61.296875 34.203125 53.125 
C 35.5 47.4375 35.59375 40.734375 35.59375 32.75 
C 35.59375 26.25 35.59375 18.265625 34.40625 12.375 
C 32.296875 1.484375 26.40625 -0.40625 22.90625 -0.40625 
z
" id="CMR17-48"/>
       <path d="M 18.40625 4.796875 
C 18.40625 7.6875 16 9.671875 13.59375 9.671875 
C 10.703125 9.671875 8.703125 7.28125 8.703125 4.890625 
C 8.703125 2 11.09375 0 13.5 0 
C 16.40625 0 18.40625 2.390625 18.40625 4.796875 
z
" id="CMMI12-58"/>
      </defs>
      <g transform="translate(42.863541 330.242822)scale(0.1 -0.1)">
       <use transform="scale(0.996264)" xlink:href="#CMR17-48"/>
       <use transform="translate(45.690477 0)scale(0.996264)" xlink:href="#CMMI12-58"/>
       <use transform="translate(72.787654 0)scale(0.996264)" xlink:href="#CMR17-48"/>
      </g>
     </g>
    </g>
    <g id="xtick_2">
     <g id="line2d_2">
      <g>
       <use style="stroke:#000000;stroke-width:0.8;" x="109.546222" xlink:href="#mda008a3588" y="316.324323"/>
      </g>
     </g>
     <g id="text_2">
      <!-- $0.5$ -->
      <defs>
       <path d="M 11.40625 57.6875 
C 12.40625 57.28125 16.5 56 20.703125 56 
C 30 56 35.09375 61.109375 38 64.0625 
C 38 64.953125 38 65.5 37.40625 65.5 
C 37.296875 65.5 37.09375 65.5 36.296875 65.046875 
C 32.796875 63.40625 28.703125 62.078125 23.703125 62.078125 
C 20.703125 62.078125 16.203125 62.484375 11.296875 64.671875 
C 10.203125 65.171875 10 65.171875 9.90625 65.171875 
C 9.40625 65.171875 9.296875 65.0625 9.296875 63.078125 
L 9.296875 34.421875 
C 9.296875 32.640625 9.296875 32.140625 10.296875 32.140625 
C 10.796875 32.140625 11 32.34375 11.5 33.03125 
C 14.703125 37.515625 19.09375 39.40625 24.09375 39.40625 
C 27.59375 39.40625 35.09375 37.21875 35.09375 20.140625 
C 35.09375 16.953125 35.09375 11.171875 32.09375 6.578125 
C 29.59375 2.484375 25.703125 0.390625 21.40625 0.390625 
C 14.796875 0.390625 8.09375 5 6.296875 12.71875 
C 6.703125 12.609375 7.5 12.421875 7.90625 12.421875 
C 9.203125 12.421875 11.703125 13.125 11.703125 16.21875 
C 11.703125 18.90625 9.796875 20 7.90625 20 
C 5.59375 20 4.09375 18.59375 4.09375 15.796875 
C 4.09375 7.09375 11 -2 21.59375 -2 
C 31.90625 -2 41.703125 6.875 41.703125 19.75 
C 41.703125 31.71875 33.90625 41 24.203125 41 
C 19.09375 41 14.796875 39.109375 11.40625 35.53125 
z
" id="CMR17-53"/>
      </defs>
      <g transform="translate(103.181183 330.242822)scale(0.1 -0.1)">
       <use transform="scale(0.996264)" xlink:href="#CMR17-48"/>
       <use transform="translate(45.690477 0)scale(0.996264)" xlink:href="#CMMI12-58"/>
       <use transform="translate(72.787654 0)scale(0.996264)" xlink:href="#CMR17-53"/>
      </g>
     </g>
    </g>
    <g id="xtick_3">
     <g id="line2d_3">
      <g>
       <use style="stroke:#000000;stroke-width:0.8;" x="169.863864" xlink:href="#mda008a3588" y="316.324323"/>
      </g>
     </g>
     <g id="text_3">
      <!-- $1.0$ -->
      <defs>
       <path d="M 26.59375 63.40625 
C 26.59375 65.5 26.5 65.5 25.09375 65.5 
C 21.203125 61.1875 15.296875 59.796875 9.703125 59.796875 
C 9.40625 59.796875 8.90625 59.796875 8.796875 59.5 
C 8.703125 59.296875 8.703125 59.09375 8.703125 57 
C 11.796875 57 17 57.59375 21 59.984375 
L 21 7.203125 
C 21 3.6875 20.796875 2.5 12.203125 2.5 
L 9.203125 2.5 
L 9.203125 0 
C 14 0 19 0 23.796875 0 
C 28.59375 0 33.59375 0 38.40625 0 
L 38.40625 2.5 
L 35.40625 2.5 
C 26.796875 2.5 26.59375 3.59375 26.59375 7.15625 
z
" id="CMR17-49"/>
      </defs>
      <g transform="translate(163.498824 330.242822)scale(0.1 -0.1)">
       <use transform="scale(0.996264)" xlink:href="#CMR17-49"/>
       <use transform="translate(45.690477 0)scale(0.996264)" xlink:href="#CMMI12-58"/>
       <use transform="translate(72.787654 0)scale(0.996264)" xlink:href="#CMR17-48"/>
      </g>
     </g>
    </g>
    <g id="xtick_4">
     <g id="line2d_4">
      <g>
       <use style="stroke:#000000;stroke-width:0.8;" x="230.181506" xlink:href="#mda008a3588" y="316.324323"/>
      </g>
     </g>
     <g id="text_4">
      <!-- $1.5$ -->
      <g transform="translate(223.816466 330.242822)scale(0.1 -0.1)">
       <use transform="scale(0.996264)" xlink:href="#CMR17-49"/>
       <use transform="translate(45.690477 0)scale(0.996264)" xlink:href="#CMMI12-58"/>
       <use transform="translate(72.787654 0)scale(0.996264)" xlink:href="#CMR17-53"/>
      </g>
     </g>
    </g>
    <g id="xtick_5">
     <g id="line2d_5">
      <g>
       <use style="stroke:#000000;stroke-width:0.8;" x="290.499148" xlink:href="#mda008a3588" y="316.324323"/>
      </g>
     </g>
     <g id="text_5">
      <!-- $2.0$ -->
      <defs>
       <path d="M 41.703125 15.453125 
L 39.90625 15.453125 
C 38.90625 8.375 38.09375 7.171875 37.703125 6.5625 
C 37.203125 5.765625 30 5.765625 28.59375 5.765625 
L 9.40625 5.765625 
C 13 9.671875 20 16.75 28.5 24.953125 
C 34.59375 30.734375 41.703125 37.53125 41.703125 47.421875 
C 41.703125 59.21875 32.296875 66 21.796875 66 
C 10.796875 66 4.09375 56.3125 4.09375 47.34375 
C 4.09375 43.4375 7 42.9375 8.203125 42.9375 
C 9.203125 42.9375 12.203125 43.546875 12.203125 47.03125 
C 12.203125 50.109375 9.59375 51 8.203125 51 
C 7.59375 51 7 50.90625 6.59375 50.703125 
C 8.5 59.21875 14.296875 63.40625 20.40625 63.40625 
C 29.09375 63.40625 34.796875 56.515625 34.796875 47.421875 
C 34.796875 38.734375 29.703125 31.25 24 24.75 
L 4.09375 2.28125 
L 4.09375 0 
L 39.296875 0 
z
" id="CMR17-50"/>
      </defs>
      <g transform="translate(284.134108 330.242822)scale(0.1 -0.1)">
       <use transform="scale(0.996264)" xlink:href="#CMR17-50"/>
       <use transform="translate(45.690477 0)scale(0.996264)" xlink:href="#CMMI12-58"/>
       <use transform="translate(72.787654 0)scale(0.996264)" xlink:href="#CMR17-48"/>
      </g>
     </g>
    </g>
    <g id="xtick_6">
     <g id="line2d_6">
      <g>
       <use style="stroke:#000000;stroke-width:0.8;" x="350.81679" xlink:href="#mda008a3588" y="316.324323"/>
      </g>
     </g>
     <g id="text_6">
      <!-- $2.5$ -->
      <g transform="translate(344.45175 330.242822)scale(0.1 -0.1)">
       <use transform="scale(0.996264)" xlink:href="#CMR17-50"/>
       <use transform="translate(45.690477 0)scale(0.996264)" xlink:href="#CMMI12-58"/>
       <use transform="translate(72.787654 0)scale(0.996264)" xlink:href="#CMR17-53"/>
      </g>
     </g>
    </g>
    <g id="xtick_7">
     <g id="line2d_7">
      <g>
       <use style="stroke:#000000;stroke-width:0.8;" x="411.134431" xlink:href="#mda008a3588" y="316.324323"/>
      </g>
     </g>
     <g id="text_7">
      <!-- $3.0$ -->
      <defs>
       <path d="M 22.09375 33.703125 
C 31 33.703125 34.90625 25.96875 34.90625 17.03125 
C 34.90625 5 28.5 0.390625 22.703125 0.390625 
C 17.40625 0.390625 8.796875 3.03125 6.09375 10.828125 
C 6.59375 10.625 7.09375 10.625 7.59375 10.625 
C 10 10.625 11.796875 12.21875 11.796875 14.8125 
C 11.796875 17.703125 9.59375 19 7.59375 19 
C 5.90625 19 3.296875 18.203125 3.296875 14.46875 
C 3.296875 5.234375 12.296875 -2 22.90625 -2 
C 34 -2 42.5 6.71875 42.5 16.953125 
C 42.5 26.671875 34.5 33.703125 25 34.796875 
C 32.59375 36.375 39.90625 43.0625 39.90625 52.015625 
C 39.90625 59.6875 32 65.296875 23 65.296875 
C 13.90625 65.296875 5.90625 59.828125 5.90625 52.015625 
C 5.90625 48.59375 8.5 48 9.796875 48 
C 11.90625 48 13.703125 49.296875 13.703125 51.890625 
C 13.703125 54.46875 11.90625 55.765625 9.796875 55.765625 
C 9.40625 55.765625 8.90625 55.765625 8.5 55.578125 
C 11.40625 61.859375 19.296875 63 22.796875 63 
C 26.296875 63 32.90625 61.328125 32.90625 51.875 
C 32.90625 49.109375 32.5 44.1875 29.09375 39.84375 
C 26.09375 36 22.703125 36 19.40625 35.6875 
C 18.90625 35.6875 16.59375 35.453125 16.203125 35.453125 
C 15.5 35.359375 15.09375 35.265625 15.09375 34.5 
C 15.09375 33.796875 15.203125 33.703125 17.203125 33.703125 
z
" id="CMR17-51"/>
      </defs>
      <g transform="translate(404.769392 330.242822)scale(0.1 -0.1)">
       <use transform="scale(0.996264)" xlink:href="#CMR17-51"/>
       <use transform="translate(45.690477 0)scale(0.996264)" xlink:href="#CMMI12-58"/>
       <use transform="translate(72.787654 0)scale(0.996264)" xlink:href="#CMR17-48"/>
      </g>
     </g>
    </g>
   </g>
   <g id="matplotlib.axis_2">
    <g id="ytick_1">
     <g id="line2d_8">
      <defs>
       <path d="M 0 0 
L -3.5 0 
" id="m92e188f3b0" style="stroke:#000000;stroke-width:0.8;"/>
      </defs>
      <g>
       <use style="stroke:#000000;stroke-width:0.8;" x="26.930079" xlink:href="#m92e188f3b0" y="298.960689"/>
      </g>
     </g>
     <g id="text_8">
      <!-- $0.0$ -->
      <g transform="translate(7.2 302.419938)scale(0.1 -0.1)">
       <use transform="scale(0.996264)" xlink:href="#CMR17-48"/>
       <use transform="translate(45.690477 0)scale(0.996264)" xlink:href="#CMMI12-58"/>
       <use transform="translate(72.787654 0)scale(0.996264)" xlink:href="#CMR17-48"/>
      </g>
     </g>
    </g>
    <g id="ytick_2">
     <g id="line2d_9">
      <g>
       <use style="stroke:#000000;stroke-width:0.8;" x="26.930079" xlink:href="#m92e188f3b0" y="254.883227"/>
      </g>
     </g>
     <g id="text_9">
      <!-- $0.5$ -->
      <g transform="translate(7.2 258.342476)scale(0.1 -0.1)">
       <use transform="scale(0.996264)" xlink:href="#CMR17-48"/>
       <use transform="translate(45.690477 0)scale(0.996264)" xlink:href="#CMMI12-58"/>
       <use transform="translate(72.787654 0)scale(0.996264)" xlink:href="#CMR17-53"/>
      </g>
     </g>
    </g>
    <g id="ytick_3">
     <g id="line2d_10">
      <g>
       <use style="stroke:#000000;stroke-width:0.8;" x="26.930079" xlink:href="#m92e188f3b0" y="210.805766"/>
      </g>
     </g>
     <g id="text_10">
      <!-- $1.0$ -->
      <g transform="translate(7.2 214.265015)scale(0.1 -0.1)">
       <use transform="scale(0.996264)" xlink:href="#CMR17-49"/>
       <use transform="translate(45.690477 0)scale(0.996264)" xlink:href="#CMMI12-58"/>
       <use transform="translate(72.787654 0)scale(0.996264)" xlink:href="#CMR17-48"/>
      </g>
     </g>
    </g>
    <g id="ytick_4">
     <g id="line2d_11">
      <g>
       <use style="stroke:#000000;stroke-width:0.8;" x="26.930079" xlink:href="#m92e188f3b0" y="166.728304"/>
      </g>
     </g>
     <g id="text_11">
      <!-- $1.5$ -->
      <g transform="translate(7.2 170.187553)scale(0.1 -0.1)">
       <use transform="scale(0.996264)" xlink:href="#CMR17-49"/>
       <use transform="translate(45.690477 0)scale(0.996264)" xlink:href="#CMMI12-58"/>
       <use transform="translate(72.787654 0)scale(0.996264)" xlink:href="#CMR17-53"/>
      </g>
     </g>
    </g>
    <g id="ytick_5">
     <g id="line2d_12">
      <g>
       <use style="stroke:#000000;stroke-width:0.8;" x="26.930079" xlink:href="#m92e188f3b0" y="122.650843"/>
      </g>
     </g>
     <g id="text_12">
      <!-- $2.0$ -->
      <g transform="translate(7.2 126.110092)scale(0.1 -0.1)">
       <use transform="scale(0.996264)" xlink:href="#CMR17-50"/>
       <use transform="translate(45.690477 0)scale(0.996264)" xlink:href="#CMMI12-58"/>
       <use transform="translate(72.787654 0)scale(0.996264)" xlink:href="#CMR17-48"/>
      </g>
     </g>
    </g>
    <g id="ytick_6">
     <g id="line2d_13">
      <g>
       <use style="stroke:#000000;stroke-width:0.8;" x="26.930079" xlink:href="#m92e188f3b0" y="78.573381"/>
      </g>
     </g>
     <g id="text_13">
      <!-- $2.5$ -->
      <g transform="translate(7.2 82.03263)scale(0.1 -0.1)">
       <use transform="scale(0.996264)" xlink:href="#CMR17-50"/>
       <use transform="translate(45.690477 0)scale(0.996264)" xlink:href="#CMMI12-58"/>
       <use transform="translate(72.787654 0)scale(0.996264)" xlink:href="#CMR17-53"/>
      </g>
     </g>
    </g>
    <g id="ytick_7">
     <g id="line2d_14">
      <g>
       <use style="stroke:#000000;stroke-width:0.8;" x="26.930079" xlink:href="#m92e188f3b0" y="34.495919"/>
      </g>
     </g>
     <g id="text_14">
      <!-- $3.0$ -->
      <g transform="translate(7.2 37.955169)scale(0.1 -0.1)">
       <use transform="scale(0.996264)" xlink:href="#CMR17-51"/>
       <use transform="translate(45.690477 0)scale(0.996264)" xlink:href="#CMMI12-58"/>
       <use transform="translate(72.787654 0)scale(0.996264)" xlink:href="#CMR17-48"/>
      </g>
     </g>
    </g>
   </g>
   <g id="patch_3">
    <path d="M 26.930079 316.324323 
L 26.930079 10.7 
" style="fill:none;stroke:#000000;stroke-linecap:square;stroke-linejoin:miter;stroke-width:0.8;"/>
   </g>
   <g id="patch_4">
    <path d="M 443.88 316.324323 
L 443.88 10.7 
" style="fill:none;stroke:#000000;stroke-linecap:square;stroke-linejoin:miter;stroke-width:0.8;"/>
   </g>
   <g id="patch_5">
    <path d="M 26.930079 316.324323 
L 443.88 316.324323 
" style="fill:none;stroke:#000000;stroke-linecap:square;stroke-linejoin:miter;stroke-width:0.8;"/>
   </g>
   <g id="patch_6">
    <path d="M 26.930079 10.7 
L 443.88 10.7 
" style="fill:none;stroke:#000000;stroke-linecap:square;stroke-linejoin:miter;stroke-width:0.8;"/>
   </g>
   <g id="legend_1">
    <g id="patch_7">
     <path d="M 33.930079 102.32307 
L 157.448062 102.32307 
Q 159.448062 102.32307 159.448062 100.32307 
L 159.448062 17.7 
Q 159.448062 15.7 157.448062 15.7 
L 33.930079 15.7 
Q 31.930079 15.7 31.930079 17.7 
L 31.930079 100.32307 
Q 31.930079 102.32307 33.930079 102.32307 
z
" style="fill:#ffffff;opacity:0.8;stroke:#cccccc;stroke-linejoin:miter;"/>
    </g>
    <g id="PathCollection_7">
     <g>
      <use style="fill:#440154;stroke:#440154;" x="45.930079" xlink:href="#m0909ca0ef8" y="24.075"/>
     </g>
    </g>
    <g id="text_15">
     <!-- Class 0 - - dependent -->
     <defs>
      <path d="M 54.703125 11.15625 
C 48 6.671875 44.90625 5.375 36.796875 5.375 
C 22.796875 5.375 14.59375 20.359375 14.59375 34.046875 
C 14.59375 48.625 23 63 37.203125 63 
C 43.59375 63 47.796875 61.21875 52.90625 58.046875 
L 54.296875 65.890625 
C 49.5 68.28125 43.40625 69.375 37.296875 69.375 
C 18.09375 69.375 6.203125 51.8125 6.203125 34.046875 
C 6.203125 14.484375 20.296875 -1 36.296875 -1 
C 44.90625 -1 47.90625 -0.296875 55.296875 4.375 
z
" id="CMSS17-67"/>
      <path d="M 14.796875 69 
L 7.40625 69 
L 7.40625 0 
L 14.796875 0 
z
" id="CMSS17-108"/>
      <path d="M 37.59375 27.984375 
C 37.59375 37.375 30.90625 43.875 21.90625 43.875 
C 17.5 43.875 12.703125 43.078125 7.203125 39.890625 
L 7.796875 33.359375 
C 10.296875 35.125 14.59375 38 21.796875 38 
C 26.90625 38 30 34.0625 30 27.84375 
L 30 24 
C 14 24 4 19.34375 4 11.34375 
C 4 7.203125 6.5 -1 14.796875 -1 
C 16.296875 -1 24.40625 -1 30.203125 3.390625 
L 30.203125 -0.296875 
L 37.59375 -0.296875 
z
M 30 12.75 
C 30 10.953125 30 8.5625 27 6.78125 
C 24.40625 5.078125 21.09375 5.078125 19.703125 5.078125 
C 14.703125 5.078125 11.296875 7.984375 11.296875 11.625 
C 11.296875 18.921875 26.90625 18.921875 30 18.921875 
z
" id="CMSS17-97"/>
      <path d="M 32.203125 41.046875 
C 26.296875 43.859375 21.703125 43.859375 18.703125 43.859375 
C 11.59375 43.859375 3.09375 41.375 3.09375 31.296875 
C 3.09375 21.234375 14.09375 19.03125 17.09375 18.421875 
C 21.703125 17.53125 26.796875 16.53125 26.796875 11.5625 
C 26.796875 5.265625 19.59375 5.265625 18.296875 5.265625 
C 14.296875 5.265625 8.796875 6.359375 3.796875 9.96875 
L 2.59375 3.28125 
C 8.296875 0 13.796875 -1 18.40625 -1 
C 30.703125 -1 33.796875 6.5 33.796875 12.203125 
C 33.796875 17.09375 31 20.390625 29.09375 21.890625 
C 25.796875 24.5 24.59375 24.796875 16.40625 26.5 
C 15 26.703125 10.09375 27.796875 10.09375 32.28125 
C 10.09375 38 16.40625 38 17.796875 38 
C 24.296875 38 28.296875 35.984375 31 34.5 
z
" id="CMSS17-115"/>
      <path d="M 43.09375 31.9375 
C 43.09375 37.578125 43 48.078125 38.90625 56.1875 
C 34.796875 64 28.203125 66.078125 23.5 66.078125 
C 16.703125 66.078125 10.90625 62.109375 7.90625 55.78125 
C 4.703125 49.15625 3.796875 42.328125 3.796875 31.9375 
C 3.796875 24.828125 4.09375 16.109375 7.703125 8.484375 
C 11.796875 0.078125 18.703125 -2 23.40625 -2 
C 29.59375 -2 35.59375 1.265625 39 8.09375 
C 42.5 15.21875 43.09375 23.03125 43.09375 31.9375 
z
M 23.40625 4.078125 
C 15.796875 4.078125 13.5 12.671875 12.796875 15.546875 
C 11.59375 20.46875 11.40625 25.21875 11.40625 33.03125 
C 11.40625 39.15625 11.40625 46.0625 13.296875 51.515625 
C 15.59375 57.828125 19.59375 60 23.40625 60 
C 30.796875 60 33.203125 52.6875 34 50.125 
C 35.5 44.890625 35.5 38.765625 35.5 33.03125 
C 35.5 23.84375 35.5 4.078125 23.40625 4.078125 
z
" id="CMSS17-48"/>
      <path d="M 46.90625 23 
L 46.90625 29.078125 
L 0 29.078125 
L 0 23 
z
" id="CMSS17-123"/>
      <path d="M 40.796875 69 
L 33.40625 69 
L 33.40625 38.09375 
C 30.296875 40.671875 25.203125 43.0625 19.59375 43.0625 
C 10.5 43.0625 3.296875 33.296875 3.296875 21.046875 
C 3.296875 8.78125 10.40625 -1 19.296875 -1 
C 26.203125 -1 30.796875 2.6875 33.203125 4.78125 
L 33.203125 -0.203125 
L 40.796875 -0.203125 
z
M 33.203125 13.0625 
C 33.203125 11.671875 33.203125 10.203125 30.09375 7.53125 
C 28.09375 5.859375 25.703125 5.078125 23.40625 5.078125 
C 18 5.078125 10.90625 9 10.90625 20.9375 
C 10.90625 33.34375 18.90625 37 24.40625 37 
C 28.09375 37 31.09375 35.21875 33.203125 32.265625 
z
" id="CMSS17-100"/>
      <path d="M 39.09375 21.515625 
C 39.09375 24.84375 38.90625 31.296875 35.703125 36.640625 
C 32.203125 42.390625 26.5 44 22.203125 44 
C 11.796875 44 3 34.1875 3 21.484375 
C 3 9.09375 12.09375 -1 23.59375 -1 
C 28.09375 -1 33.59375 0.296875 38.59375 3.875 
C 38.59375 4.28125 38.40625 6.46875 38.296875 6.5625 
C 38.296875 6.765625 38 9.84375 38 10.25 
C 33.203125 6.359375 27.703125 5.078125 23.703125 5.078125 
C 17.296875 5.078125 10.40625 10.421875 10.09375 21.515625 
z
M 10.90625 27 
C 12.203125 32.5625 16.59375 37.828125 22.203125 37.828125 
C 23.703125 37.828125 30.703125 37.828125 32.5 27 
z
" id="CMSS17-101"/>
      <path d="M 15.09375 5.203125 
C 18.40625 2.015625 22.90625 -0.078125 27.703125 -0.078125 
C 37 -0.078125 45 9.421875 45 22.0625 
C 45 33.734375 39 44 30.40625 44 
C 25.40625 44 19.40625 42.21875 14.90625 38.625 
L 14.90625 43.203125 
L 7.5 43.203125 
L 7.5 -19 
L 15.09375 -19 
z
M 15.09375 32.8125 
C 15.90625 34 19.296875 37.734375 24.796875 37.734375 
C 31.796875 37.734375 37.40625 30.625 37.40625 22.0625 
C 37.40625 12.296875 30.59375 6 23.90625 6 
C 21.90625 6 19.796875 6.484375 17.796875 8.171875 
C 15.09375 10.53125 15.09375 12 15.09375 13.390625 
z
" id="CMSS17-112"/>
      <path d="M 40.90625 29.328125 
C 40.90625 35.671875 39.40625 44 28.09375 44 
C 21.703125 44 17.5 40.71875 14.703125 37.328125 
L 14.703125 43.09375 
L 7.40625 43.09375 
L 7.40625 0 
L 15 0 
L 15 24.359375 
C 15 30.6875 17.40625 37.9375 24.203125 37.9375 
C 33 37.9375 33.296875 32 33.296875 28.578125 
L 33.296875 0 
L 40.90625 0 
z
" id="CMSS17-110"/>
      <path d="M 16.703125 37 
L 29.703125 37 
L 29.703125 42.765625 
L 16.703125 42.765625 
L 16.703125 55 
L 9.59375 55 
L 9.59375 42.765625 
L 1.703125 42.765625 
L 1.703125 37 
L 9.40625 37 
L 9.40625 11.703125 
C 9.40625 6 10.703125 -1 17.296875 -1 
C 22.296875 -1 26.90625 0.390625 31.296875 2.6875 
L 29.703125 8.5625 
C 27.296875 6.46875 24.40625 5.265625 21.296875 5.265625 
C 16.90625 5.265625 16.703125 10.875 16.703125 13.375 
z
" id="CMSS17-116"/>
     </defs>
     <g transform="translate(63.930079 26.7)scale(0.1 -0.1)">
      <use transform="scale(0.996264)" xlink:href="#CMSS17-67"/>
      <use transform="translate(59.855772 0)scale(0.996264)" xlink:href="#CMSS17-108"/>
      <use transform="translate(82.036495 0)scale(0.996264)" xlink:href="#CMSS17-97"/>
      <use transform="translate(126.958415 0)scale(0.996264)" xlink:href="#CMSS17-115"/>
      <use transform="translate(162.871957 0)scale(0.996264)" xlink:href="#CMSS17-115"/>
      <use transform="translate(230.014612 0)scale(0.996264)" xlink:href="#CMSS17-48"/>
      <use transform="translate(308.087348 0)scale(0.996264)" xlink:href="#CMSS17-123"/>
      <use transform="translate(386.160084 0)scale(0.996264)" xlink:href="#CMSS17-100"/>
      <use transform="translate(434.365028 0)scale(0.996264)" xlink:href="#CMSS17-101"/>
      <use transform="translate(476.00385 0)scale(0.996264)" xlink:href="#CMSS17-112"/>
      <use transform="translate(526.811232 0)scale(0.996264)" xlink:href="#CMSS17-101"/>
      <use transform="translate(568.450054 0)scale(0.996264)" xlink:href="#CMSS17-110"/>
      <use transform="translate(616.654997 0)scale(0.996264)" xlink:href="#CMSS17-100"/>
      <use transform="translate(664.85994 0)scale(0.996264)" xlink:href="#CMSS17-101"/>
      <use transform="translate(706.498762 0)scale(0.996264)" xlink:href="#CMSS17-110"/>
      <use transform="translate(754.703705 0)scale(0.996264)" xlink:href="#CMSS17-116"/>
     </g>
    </g>
    <g id="PathCollection_8">
     <g>
      <use style="fill:#21918c;stroke:#21918c;" x="45.930079" xlink:href="#m0190dd6ab7" y="38.012178"/>
     </g>
    </g>
    <g id="text_16">
     <!-- Class 1 - - dependent -->
     <defs>
      <path d="M 28.40625 67 
L 26.5 67 
C 21.09375 61.5625 14.796875 60.78125 8.40625 60.78125 
L 8.40625 55 
C 11.296875 55 16 55 20.703125 57.296875 
L 20.703125 5.765625 
L 8.90625 5.765625 
L 8.90625 0 
L 40.203125 0 
L 40.203125 5.765625 
L 28.40625 5.765625 
z
" id="CMSS17-49"/>
     </defs>
     <g transform="translate(63.930079 40.637178)scale(0.1 -0.1)">
      <use transform="scale(0.996264)" xlink:href="#CMSS17-67"/>
      <use transform="translate(59.855772 0)scale(0.996264)" xlink:href="#CMSS17-108"/>
      <use transform="translate(82.036495 0)scale(0.996264)" xlink:href="#CMSS17-97"/>
      <use transform="translate(126.958415 0)scale(0.996264)" xlink:href="#CMSS17-115"/>
      <use transform="translate(162.871957 0)scale(0.996264)" xlink:href="#CMSS17-115"/>
      <use transform="translate(230.014612 0)scale(0.996264)" xlink:href="#CMSS17-49"/>
      <use transform="translate(308.087348 0)scale(0.996264)" xlink:href="#CMSS17-123"/>
      <use transform="translate(386.160084 0)scale(0.996264)" xlink:href="#CMSS17-100"/>
      <use transform="translate(434.365028 0)scale(0.996264)" xlink:href="#CMSS17-101"/>
      <use transform="translate(476.00385 0)scale(0.996264)" xlink:href="#CMSS17-112"/>
      <use transform="translate(526.811232 0)scale(0.996264)" xlink:href="#CMSS17-101"/>
      <use transform="translate(568.450054 0)scale(0.996264)" xlink:href="#CMSS17-110"/>
      <use transform="translate(616.654997 0)scale(0.996264)" xlink:href="#CMSS17-100"/>
      <use transform="translate(664.85994 0)scale(0.996264)" xlink:href="#CMSS17-101"/>
      <use transform="translate(706.498762 0)scale(0.996264)" xlink:href="#CMSS17-110"/>
      <use transform="translate(754.703705 0)scale(0.996264)" xlink:href="#CMSS17-116"/>
     </g>
    </g>
    <g id="PathCollection_9">
     <g>
      <use style="fill:#fde725;stroke:#fde725;" x="45.930079" xlink:href="#m7084148ce2" y="51.949357"/>
     </g>
    </g>
    <g id="text_17">
     <!-- Class 2 - - dependent -->
     <defs>
      <path d="M 25.796875 21.203125 
C 28.59375 24.078125 32.796875 27.5625 35.703125 31.046875 
C 38.5 34.4375 42.203125 39.234375 42.203125 46.203125 
C 42.203125 57.140625 34.796875 67 22.203125 67 
C 12.296875 67 6.59375 60.828125 3.90625 51.15625 
L 7.796875 45.765625 
C 10 54.84375 13.09375 60.625 20.90625 60.625 
C 29.5 60.625 34.296875 53.640625 34.296875 45.96875 
C 34.296875 36.796875 27.296875 29.703125 22 24.421875 
C 16.09375 18.546875 10.296875 12.5625 4.703125 6.375 
L 4.703125 0 
L 42.203125 0 
L 42.203125 6.765625 
L 25.203125 6.765625 
C 24 6.765625 22.796875 6.765625 21.59375 6.765625 
L 11.59375 6.765625 
L 11.59375 6.859375 
z
" id="CMSS17-50"/>
     </defs>
     <g transform="translate(63.930079 54.574357)scale(0.1 -0.1)">
      <use transform="scale(0.996264)" xlink:href="#CMSS17-67"/>
      <use transform="translate(59.855772 0)scale(0.996264)" xlink:href="#CMSS17-108"/>
      <use transform="translate(82.036495 0)scale(0.996264)" xlink:href="#CMSS17-97"/>
      <use transform="translate(126.958415 0)scale(0.996264)" xlink:href="#CMSS17-115"/>
      <use transform="translate(162.871957 0)scale(0.996264)" xlink:href="#CMSS17-115"/>
      <use transform="translate(230.014612 0)scale(0.996264)" xlink:href="#CMSS17-50"/>
      <use transform="translate(308.087348 0)scale(0.996264)" xlink:href="#CMSS17-123"/>
      <use transform="translate(386.160084 0)scale(0.996264)" xlink:href="#CMSS17-100"/>
      <use transform="translate(434.365028 0)scale(0.996264)" xlink:href="#CMSS17-101"/>
      <use transform="translate(476.00385 0)scale(0.996264)" xlink:href="#CMSS17-112"/>
      <use transform="translate(526.811232 0)scale(0.996264)" xlink:href="#CMSS17-101"/>
      <use transform="translate(568.450054 0)scale(0.996264)" xlink:href="#CMSS17-110"/>
      <use transform="translate(616.654997 0)scale(0.996264)" xlink:href="#CMSS17-100"/>
      <use transform="translate(664.85994 0)scale(0.996264)" xlink:href="#CMSS17-101"/>
      <use transform="translate(706.498762 0)scale(0.996264)" xlink:href="#CMSS17-110"/>
      <use transform="translate(754.703705 0)scale(0.996264)" xlink:href="#CMSS17-116"/>
     </g>
    </g>
    <g id="PathCollection_10">
     <g>
      <use style="fill:#440154;stroke:#440154;stroke-width:1.5;" x="45.930079" xlink:href="#m296985524f" y="65.886535"/>
     </g>
    </g>
    <g id="text_18">
     <!-- Class 0 - - independent -->
     <defs>
      <path d="M 15.296875 65.359375 
L 6.90625 65.359375 
L 6.90625 57 
L 15.296875 57 
z
M 14.796875 42.796875 
L 7.40625 42.796875 
L 7.40625 0 
L 14.796875 0 
z
" id="CMSS17-105"/>
     </defs>
     <g transform="translate(63.930079 68.511535)scale(0.1 -0.1)">
      <use transform="scale(0.996264)" xlink:href="#CMSS17-67"/>
      <use transform="translate(59.855772 0)scale(0.996264)" xlink:href="#CMSS17-108"/>
      <use transform="translate(82.036495 0)scale(0.996264)" xlink:href="#CMSS17-97"/>
      <use transform="translate(126.958415 0)scale(0.996264)" xlink:href="#CMSS17-115"/>
      <use transform="translate(162.871957 0)scale(0.996264)" xlink:href="#CMSS17-115"/>
      <use transform="translate(230.014612 0)scale(0.996264)" xlink:href="#CMSS17-48"/>
      <use transform="translate(308.087348 0)scale(0.996264)" xlink:href="#CMSS17-123"/>
      <use transform="translate(386.160084 0)scale(0.996264)" xlink:href="#CMSS17-105"/>
      <use transform="translate(408.340808 0)scale(0.996264)" xlink:href="#CMSS17-110"/>
      <use transform="translate(456.545751 0)scale(0.996264)" xlink:href="#CMSS17-100"/>
      <use transform="translate(504.750694 0)scale(0.996264)" xlink:href="#CMSS17-101"/>
      <use transform="translate(546.389516 0)scale(0.996264)" xlink:href="#CMSS17-112"/>
      <use transform="translate(597.196898 0)scale(0.996264)" xlink:href="#CMSS17-101"/>
      <use transform="translate(638.83572 0)scale(0.996264)" xlink:href="#CMSS17-110"/>
      <use transform="translate(687.040663 0)scale(0.996264)" xlink:href="#CMSS17-100"/>
      <use transform="translate(735.245606 0)scale(0.996264)" xlink:href="#CMSS17-101"/>
      <use transform="translate(776.884428 0)scale(0.996264)" xlink:href="#CMSS17-110"/>
      <use transform="translate(825.089371 0)scale(0.996264)" xlink:href="#CMSS17-116"/>
     </g>
    </g>
    <g id="PathCollection_11">
     <g>
      <use style="fill:#21918c;stroke:#21918c;stroke-width:1.5;" x="45.930079" xlink:href="#m7bbf794fa9" y="79.823713"/>
     </g>
    </g>
    <g id="text_19">
     <!-- Class 1 - - independent -->
     <g transform="translate(63.930079 82.448713)scale(0.1 -0.1)">
      <use transform="scale(0.996264)" xlink:href="#CMSS17-67"/>
      <use transform="translate(59.855772 0)scale(0.996264)" xlink:href="#CMSS17-108"/>
      <use transform="translate(82.036495 0)scale(0.996264)" xlink:href="#CMSS17-97"/>
      <use transform="translate(126.958415 0)scale(0.996264)" xlink:href="#CMSS17-115"/>
      <use transform="translate(162.871957 0)scale(0.996264)" xlink:href="#CMSS17-115"/>
      <use transform="translate(230.014612 0)scale(0.996264)" xlink:href="#CMSS17-49"/>
      <use transform="translate(308.087348 0)scale(0.996264)" xlink:href="#CMSS17-123"/>
      <use transform="translate(386.160084 0)scale(0.996264)" xlink:href="#CMSS17-105"/>
      <use transform="translate(408.340808 0)scale(0.996264)" xlink:href="#CMSS17-110"/>
      <use transform="translate(456.545751 0)scale(0.996264)" xlink:href="#CMSS17-100"/>
      <use transform="translate(504.750694 0)scale(0.996264)" xlink:href="#CMSS17-101"/>
      <use transform="translate(546.389516 0)scale(0.996264)" xlink:href="#CMSS17-112"/>
      <use transform="translate(597.196898 0)scale(0.996264)" xlink:href="#CMSS17-101"/>
      <use transform="translate(638.83572 0)scale(0.996264)" xlink:href="#CMSS17-110"/>
      <use transform="translate(687.040663 0)scale(0.996264)" xlink:href="#CMSS17-100"/>
      <use transform="translate(735.245606 0)scale(0.996264)" xlink:href="#CMSS17-101"/>
      <use transform="translate(776.884428 0)scale(0.996264)" xlink:href="#CMSS17-110"/>
      <use transform="translate(825.089371 0)scale(0.996264)" xlink:href="#CMSS17-116"/>
     </g>
    </g>
    <g id="PathCollection_12">
     <g>
      <use style="fill:#fde725;stroke:#fde725;stroke-width:1.5;" x="45.930079" xlink:href="#m992191df4f" y="93.760892"/>
     </g>
    </g>
    <g id="text_20">
     <!-- Class 2 - - independent -->
     <g transform="translate(63.930079 96.385892)scale(0.1 -0.1)">
      <use transform="scale(0.996264)" xlink:href="#CMSS17-67"/>
      <use transform="translate(59.855772 0)scale(0.996264)" xlink:href="#CMSS17-108"/>
      <use transform="translate(82.036495 0)scale(0.996264)" xlink:href="#CMSS17-97"/>
      <use transform="translate(126.958415 0)scale(0.996264)" xlink:href="#CMSS17-115"/>
      <use transform="translate(162.871957 0)scale(0.996264)" xlink:href="#CMSS17-115"/>
      <use transform="translate(230.014612 0)scale(0.996264)" xlink:href="#CMSS17-50"/>
      <use transform="translate(308.087348 0)scale(0.996264)" xlink:href="#CMSS17-123"/>
      <use transform="translate(386.160084 0)scale(0.996264)" xlink:href="#CMSS17-105"/>
      <use transform="translate(408.340808 0)scale(0.996264)" xlink:href="#CMSS17-110"/>
      <use transform="translate(456.545751 0)scale(0.996264)" xlink:href="#CMSS17-100"/>
      <use transform="translate(504.750694 0)scale(0.996264)" xlink:href="#CMSS17-101"/>
      <use transform="translate(546.389516 0)scale(0.996264)" xlink:href="#CMSS17-112"/>
      <use transform="translate(597.196898 0)scale(0.996264)" xlink:href="#CMSS17-101"/>
      <use transform="translate(638.83572 0)scale(0.996264)" xlink:href="#CMSS17-110"/>
      <use transform="translate(687.040663 0)scale(0.996264)" xlink:href="#CMSS17-100"/>
      <use transform="translate(735.245606 0)scale(0.996264)" xlink:href="#CMSS17-101"/>
      <use transform="translate(776.884428 0)scale(0.996264)" xlink:href="#CMSS17-110"/>
      <use transform="translate(825.089371 0)scale(0.996264)" xlink:href="#CMSS17-116"/>
     </g>
    </g>
   </g>
  </g>
 </g>
 <defs>
  <clipPath id="p5ee41baec2">
   <rect height="305.624323" width="416.949921" x="26.930079" y="10.7"/>
  </clipPath>
 </defs>
</svg>
