<?xml version="1.0" encoding="utf-8" standalone="no"?>
<!DOCTYPE svg PUBLIC "-//W3C//DTD SVG 1.1//EN"
  "http://www.w3.org/Graphics/SVG/1.1/DTD/svg11.dtd">
<!-- Created with matplotlib (http://matplotlib.org/) -->
<svg height="345pt" version="1.1" viewBox="0 0 460 345" width="460pt" xmlns="http://www.w3.org/2000/svg" xmlns:xlink="http://www.w3.org/1999/xlink">
 <defs>
  <style type="text/css">
*{stroke-linecap:butt;stroke-linejoin:round;}
  </style>
 </defs>
 <g id="figure_1">
  <g id="patch_1">
   <path d="M 0 345.6 
L 460.8 345.6 
L 460.8 0 
L 0 0 
z
" style="fill:#ffffff;"/>
  </g>
  <g id="axes_1">
   <g id="text_1">
    <!-- Brute Force -->
    <defs>
     <path d="M 8.90625 69 
L 8.90625 0 
L 33.796875 0 
C 47.40625 0 57.296875 8.96875 57.296875 18.75 
C 57.296875 26.328125 50.796875 34 39.09375 36.203125 
C 52.09375 39.96875 54.703125 47.5 54.703125 51.765625 
C 54.703125 60.671875 44.90625 69 31.203125 69 
z
M 17 39 
L 17 63.421875 
L 28.5 63.421875 
C 38.796875 63.421875 46.90625 58.1875 46.90625 51.65625 
C 46.90625 45.71875 40.5 39 27.59375 39 
z
M 17 5.578125 
L 17 32.921875 
L 30.296875 32.921875 
C 41.09375 32.921875 49.40625 26.234375 49.40625 18.84375 
C 49.40625 12.0625 42.09375 5.578125 31 5.578125 
z
" id="CMSS17-66"/>
     <path d="M 14.90625 21.296875 
C 14.90625 30.703125 21.796875 37 30.59375 37 
L 30.59375 43.578125 
C 24.203125 43.578125 18.203125 40.390625 14.59375 35.203125 
L 14.59375 43.09375 
L 7.5 43.09375 
L 7.5 0 
L 14.90625 0 
z
" id="CMSS17-114"/>
     <path d="M 40.90625 42.796875 
L 33.296875 42.796875 
L 33.296875 15.1875 
C 33.296875 7.78125 27.90625 4.78125 22.203125 4.78125 
C 15.59375 4.78125 15 6.984375 15 11.078125 
L 15 42.796875 
L 7.40625 42.796875 
L 7.40625 10.59375 
C 7.40625 2.796875 10.09375 -1 17 -1 
C 20.40625 -1 28.09375 -0.203125 33.5 4.78125 
L 33.5 0 
L 40.90625 0 
z
" id="CMSS17-117"/>
     <path d="M 16.703125 37 
L 29.703125 37 
L 29.703125 42.765625 
L 16.703125 42.765625 
L 16.703125 55 
L 9.59375 55 
L 9.59375 42.765625 
L 1.703125 42.765625 
L 1.703125 37 
L 9.40625 37 
L 9.40625 11.703125 
C 9.40625 6 10.703125 -1 17.296875 -1 
C 22.296875 -1 26.90625 0.390625 31.296875 2.6875 
L 29.703125 8.5625 
C 27.296875 6.46875 24.40625 5.265625 21.296875 5.265625 
C 16.90625 5.265625 16.703125 10.875 16.703125 13.375 
z
" id="CMSS17-116"/>
     <path d="M 39.09375 21.515625 
C 39.09375 24.84375 38.90625 31.296875 35.703125 36.640625 
C 32.203125 42.390625 26.5 44 22.203125 44 
C 11.796875 44 3 34.1875 3 21.484375 
C 3 9.09375 12.09375 -1 23.59375 -1 
C 28.09375 -1 33.59375 0.296875 38.59375 3.875 
C 38.59375 4.28125 38.40625 6.46875 38.296875 6.5625 
C 38.296875 6.765625 38 9.84375 38 10.25 
C 33.203125 6.359375 27.703125 5.078125 23.703125 5.078125 
C 17.296875 5.078125 10.40625 10.421875 10.09375 21.515625 
z
M 10.90625 27 
C 12.203125 32.5625 16.59375 37.828125 22.203125 37.828125 
C 23.703125 37.828125 30.703125 37.828125 32.5 27 
z
" id="CMSS17-101"/>
     <path d="M 45.59375 31 
L 45.59375 37.078125 
L 17.203125 37.078125 
L 17.203125 62 
L 29.40625 62 
C 30.59375 62 31.796875 62 33 62 
L 49.5 62 
L 49.5 68.359375 
L 8.796875 68.359375 
L 8.796875 -0.5 
L 17.203125 -0.5 
L 17.203125 31 
z
" id="CMSS17-70"/>
     <path d="M 44.203125 21.1875 
C 44.203125 34 34.703125 44 23.5 44 
C 12 44 2.703125 33.703125 2.703125 21.1875 
C 2.703125 8.5 12.296875 -1 23.40625 -1 
C 34.796875 -1 44.203125 8.796875 44.203125 21.1875 
z
M 23.5 5.265625 
C 16.40625 5.265625 10.296875 11.078125 10.296875 22 
C 10.296875 33.609375 17.40625 37.921875 23.40625 37.921875 
C 29.90625 37.921875 36.59375 33.21875 36.59375 22 
C 36.59375 10.671875 30.09375 5.265625 23.5 5.265625 
z
" id="CMSS17-111"/>
     <path d="M 38.5 39.703125 
C 38.5 40.390625 33.90625 42.40625 32.703125 42.796875 
C 29.40625 44 25.203125 44 24.09375 44 
C 11.09375 44 3.296875 32.703125 3.296875 21.296875 
C 3.296875 9.296875 12 -1 23.703125 -1 
C 30.40625 -1 35.203125 1.1875 39.09375 3.78125 
L 38.5 10.375 
C 34.203125 7.078125 29.203125 5.265625 23.796875 5.265625 
C 16 5.265625 10.90625 12.09375 10.90625 21.390625 
C 10.90625 28.609375 14.203125 37.71875 24.203125 37.71875 
C 29.703125 37.71875 32.796875 36.609375 37.40625 33.515625 
z
" id="CMSS17-99"/>
    </defs>
    <g transform="translate(57.6 80.606118)scale(0.24 -0.24)">
     <use transform="scale(0.996264)" xlink:href="#CMSS17-66"/>
     <use transform="translate(62.33804 0)scale(0.996264)" xlink:href="#CMSS17-114"/>
     <use transform="translate(94.247813 0)scale(0.996264)" xlink:href="#CMSS17-117"/>
     <use transform="translate(142.452756 0)scale(0.996264)" xlink:href="#CMSS17-116"/>
     <use transform="translate(176.284323 0)scale(0.996264)" xlink:href="#CMSS17-101"/>
     <use transform="translate(249.152257 0)scale(0.996264)" xlink:href="#CMSS17-70"/>
     <use transform="translate(299.839363 0)scale(0.996264)" xlink:href="#CMSS17-111"/>
     <use transform="translate(344.080532 0)scale(0.996264)" xlink:href="#CMSS17-114"/>
     <use transform="translate(375.990305 0)scale(0.996264)" xlink:href="#CMSS17-99"/>
     <use transform="translate(417.629127 0)scale(0.996264)" xlink:href="#CMSS17-101"/>
    </g>
   </g>
  </g>
  <g id="axes_2">
   <g id="line2d_1">
    <path clip-path="url(#pf20399d5ce)" d="M 188.416684 80.606118 
L 190.929491 86.171504 
L 193.442297 91.599852 
L 195.955103 96.757497 
L 198.467909 101.517442 
L 200.980715 105.762481 
L 203.493521 109.388087 
L 206.006327 112.304985 
L 208.519133 114.441352 
L 211.031939 115.744583 
L 213.544745 116.182588 
L 216.057551 115.744583 
L 218.570357 114.441352 
L 221.083164 112.304985 
L 223.59597 109.388087 
L 226.108776 105.762481 
L 228.621582 101.517442 
L 231.134388 96.757497 
L 233.647194 91.599852 
L 236.16 86.171504 
L 238.672806 80.606118 
L 241.185612 75.040732 
L 243.698418 69.612384 
L 246.211224 64.454738 
L 248.72403 59.694793 
L 251.236836 55.449754 
L 253.749643 51.824148 
L 256.262449 48.90725 
L 258.775255 46.770883 
L 261.288061 45.467652 
L 263.800867 45.029647 
L 266.313673 45.467652 
L 268.826479 46.770883 
L 271.339285 48.90725 
L 273.852091 51.824148 
L 276.364897 55.449754 
L 278.877703 59.694793 
L 281.390509 64.454738 
L 283.903316 69.612384 
" style="fill:none;stroke:#1f77b4;stroke-linecap:square;stroke-width:1.5;"/>
   </g>
  </g>
  <g id="axes_3">
   <g id="PathCollection_1">
    <defs>
     <path d="M 0 7.5 
C 1.989023 7.5 3.896849 6.709753 5.303301 5.303301 
C 6.709753 3.896849 7.5 1.989023 7.5 0 
C 7.5 -1.989023 6.709753 -3.896849 5.303301 -5.303301 
C 3.896849 -6.709753 1.989023 -7.5 0 -7.5 
C -1.989023 -7.5 -3.896849 -6.709753 -5.303301 -5.303301 
C -6.709753 -3.896849 -7.5 -1.989023 -7.5 0 
C -7.5 1.989023 -6.709753 3.896849 -5.303301 5.303301 
C -3.896849 6.709753 -1.989023 7.5 0 7.5 
z
" id="m4a82b41451" style="stroke:#ff0000;stroke-opacity:0.66;"/>
    </defs>
    <g clip-path="url(#pd865b8a36b)">
     <use style="fill:#ff0000;fill-opacity:0.66;stroke:#ff0000;stroke-opacity:0.66;" x="408.894323" xlink:href="#m4a82b41451" y="80.606118"/>
     <use style="fill:#ff0000;fill-opacity:0.66;stroke:#ff0000;stroke-opacity:0.66;" x="382.42838" xlink:href="#m4a82b41451" y="80.606118"/>
    </g>
   </g>
   <g id="PathCollection_2">
    <defs>
     <path d="M -7.5 7.5 
L 7.5 -7.5 
M -7.5 -7.5 
L 7.5 7.5 
" id="m3c25e3f178" style="stroke:#0000ff;stroke-opacity:0.66;stroke-width:1.5;"/>
    </defs>
    <g clip-path="url(#pd865b8a36b)">
     <use style="fill:#0000ff;fill-opacity:0.66;stroke:#0000ff;stroke-opacity:0.66;stroke-width:1.5;" x="316.016885" xlink:href="#m3c25e3f178" y="80.606118"/>
     <use style="fill:#0000ff;fill-opacity:0.66;stroke:#0000ff;stroke-opacity:0.66;stroke-width:1.5;" x="382.489446" xlink:href="#m3c25e3f178" y="80.606118"/>
    </g>
   </g>
   <g id="line2d_2">
    <path clip-path="url(#pd865b8a36b)" d="M 314.96554 80.606118 
L 409.945668 80.606118 
" style="fill:none;opacity:0.25;stroke:#000000;stroke-linecap:square;stroke-width:3;"/>
   </g>
  </g>
  <g id="axes_4">
   <g id="text_2">
    <!-- Genetic -->
    <defs>
     <path d="M 56.40625 29 
L 36.5 29 
L 36.5 22.828125 
L 48.796875 22.828125 
L 48.796875 7.359375 
C 44.90625 6.265625 40.90625 5.46875 36.90625 5.46875 
C 22.90625 5.46875 14.59375 20.328125 14.59375 34.375 
C 14.59375 48.359375 23.296875 63 36.90625 63 
C 44.59375 63 48.90625 60.640625 54.203125 56.671875 
L 55.5 64.59375 
C 48.90625 67.984375 44.796875 69.375 37.296875 69.375 
C 17.90625 69.375 6.203125 51.9375 6.203125 34.09375 
C 6.203125 17.03125 18 -1 36.703125 -1 
C 43.703125 -1 50.203125 0.796875 56.40625 3.875 
z
" id="CMSS17-71"/>
     <path d="M 40.90625 29.328125 
C 40.90625 35.671875 39.40625 44 28.09375 44 
C 21.703125 44 17.5 40.71875 14.703125 37.328125 
L 14.703125 43.09375 
L 7.40625 43.09375 
L 7.40625 0 
L 15 0 
L 15 24.359375 
C 15 30.6875 17.40625 37.9375 24.203125 37.9375 
C 33 37.9375 33.296875 32 33.296875 28.578125 
L 33.296875 0 
L 40.90625 0 
z
" id="CMSS17-110"/>
     <path d="M 15.296875 65.359375 
L 6.90625 65.359375 
L 6.90625 57 
L 15.296875 57 
z
M 14.796875 42.796875 
L 7.40625 42.796875 
L 7.40625 0 
L 14.796875 0 
z
" id="CMSS17-105"/>
    </defs>
    <g transform="translate(57.6 174.528)scale(0.24 -0.24)">
     <use transform="scale(0.996264)" xlink:href="#CMSS17-71"/>
     <use transform="translate(62.458226 0)scale(0.996264)" xlink:href="#CMSS17-101"/>
     <use transform="translate(104.097048 0)scale(0.996264)" xlink:href="#CMSS17-110"/>
     <use transform="translate(152.301991 0)scale(0.996264)" xlink:href="#CMSS17-101"/>
     <use transform="translate(193.940813 0)scale(0.996264)" xlink:href="#CMSS17-116"/>
     <use transform="translate(227.772379 0)scale(0.996264)" xlink:href="#CMSS17-105"/>
     <use transform="translate(249.953103 0)scale(0.996264)" xlink:href="#CMSS17-99"/>
    </g>
   </g>
  </g>
  <g id="axes_5">
   <g id="line2d_3">
    <path clip-path="url(#p4d81350475)" d="M 188.416684 207.453244 
L 192.756986 208.267161 
L 197.097287 209.459829 
L 201.437589 210.104471 
L 205.77789 200.627466 
L 210.118192 190.928122 
L 214.458493 181.573746 
L 218.798794 172.382263 
L 223.139096 164.318468 
L 227.479397 157.147946 
L 231.819699 150.92425 
L 236.16 145.854521 
L 240.500301 141.724402 
L 244.840603 139.374665 
L 249.180904 138.951529 
L 253.521206 139.383367 
L 257.861507 141.676143 
L 262.201808 144.882232 
L 266.54211 149.650425 
L 270.882411 155.950748 
L 275.222713 163.008042 
L 279.563014 170.847232 
L 283.903316 179.674868 
" style="fill:none;stroke:#1f77b4;stroke-linecap:square;stroke-width:1.5;"/>
   </g>
  </g>
  <g id="axes_6">
   <g id="PathCollection_3">
    <g clip-path="url(#p7ca5f6ee98)">
     <use style="fill:#ff0000;fill-opacity:0.66;stroke:#ff0000;stroke-opacity:0.66;" x="349.111721" xlink:href="#m4a82b41451" y="174.528"/>
     <use style="fill:#ff0000;fill-opacity:0.66;stroke:#ff0000;stroke-opacity:0.66;" x="408.380731" xlink:href="#m4a82b41451" y="174.528"/>
    </g>
   </g>
   <g id="PathCollection_4">
    <g clip-path="url(#p7ca5f6ee98)">
     <use style="fill:#0000ff;fill-opacity:0.66;stroke:#0000ff;stroke-opacity:0.66;stroke-width:1.5;" x="325.342839" xlink:href="#m3c25e3f178" y="174.528"/>
     <use style="fill:#0000ff;fill-opacity:0.66;stroke:#0000ff;stroke-opacity:0.66;stroke-width:1.5;" x="331.291169" xlink:href="#m3c25e3f178" y="174.528"/>
    </g>
   </g>
   <g id="line2d_4">
    <path clip-path="url(#p7ca5f6ee98)" d="M 314.459037 174.528 
L 409.945668 174.528 
" style="fill:none;opacity:0.25;stroke:#000000;stroke-linecap:square;stroke-width:3;"/>
   </g>
  </g>
  <g id="axes_7">
   <g id="text_3">
    <!-- LTS -->
    <defs>
     <path d="M 26.09375 6.46875 
C 24.90625 6.46875 23.703125 6.46875 22.5 6.46875 
L 17.203125 6.46875 
L 17.203125 69 
L 8.796875 69 
L 8.796875 0 
L 46.90625 0 
L 46.90625 6.46875 
z
" id="CMSS17-76"/>
     <path d="M 36.203125 62 
L 44.5 62 
C 45.703125 62 46.90625 62 48.09375 62 
L 60.59375 62 
L 60.59375 68.375 
L 3.40625 68.375 
L 3.40625 62 
L 15.90625 62 
C 17.09375 62 18.296875 62 19.5 62 
L 27.796875 62 
L 27.796875 -0.5 
L 36.203125 -0.5 
z
" id="CMSS17-84"/>
     <path d="M 43.703125 65.140625 
C 39.296875 67.71875 34.5 70 26.40625 70 
C 13.5 70 5.203125 60.609375 5.203125 51.03125 
C 5.203125 47.265625 6.296875 43.015625 10.203125 38.671875 
C 14.09375 34.3125 18.5 33.140625 24.09375 31.765625 
C 26.40625 31.15625 30.296875 30.0625 31 29.78125 
C 36.59375 27.609375 39.296875 22.5625 39.296875 17.8125 
C 39.296875 11.59375 34.40625 4.96875 25.703125 4.96875 
C 22.703125 4.96875 13.90625 4.96875 5.59375 12.796875 
L 4.203125 4.96875 
C 12.40625 -1 21.296875 -2 25.796875 -2 
C 38.09375 -2 46.90625 7.625 46.90625 18.53125 
C 46.90625 22.5 45.703125 27.546875 41.5 32.203125 
C 37.40625 36.671875 33.796875 37.65625 25.59375 39.828125 
C 20.90625 41.03125 17.90625 41.828125 15.40625 44.890625 
C 13.703125 47.078125 12.796875 49.15625 12.796875 51.828125 
C 12.796875 57.390625 17.59375 63.4375 26.40625 63.4375 
C 30.796875 63.4375 36.5 62.53125 42.296875 57.1875 
z
" id="CMSS17-83"/>
    </defs>
    <g transform="translate(57.6 268.449882)scale(0.24 -0.24)">
     <use transform="scale(0.996264)" xlink:href="#CMSS17-76"/>
     <use transform="translate(42.87985 0)scale(0.996264)" xlink:href="#CMSS17-84"/>
     <use transform="translate(106.699304 0)scale(0.996264)" xlink:href="#CMSS17-83"/>
    </g>
   </g>
  </g>
  <g id="axes_8">
   <g id="line2d_5">
    <path clip-path="url(#pf08dbaf4a9)" d="M 188.416684 232.880371 
L 190.80385 232.879282 
L 193.191016 232.87822 
L 195.578182 232.877211 
L 197.965348 232.87628 
L 200.352513 232.87545 
L 202.739679 232.87474 
L 205.126845 232.87417 
L 207.514011 232.873752 
L 209.901176 232.873497 
L 212.288342 232.873412 
L 214.675508 232.873497 
L 217.062674 232.873752 
L 219.44984 232.87417 
L 221.837005 232.87474 
L 224.224171 232.87545 
L 226.611337 232.87628 
L 228.998503 232.877211 
L 231.385668 232.87822 
L 233.772834 232.879282 
L 236.16 232.880371 
L 238.547166 244.010023 
L 240.934332 254.865612 
L 243.321497 265.17979 
L 245.708663 274.698817 
L 248.095829 283.188174 
L 250.482995 290.438531 
L 252.87016 296.271326 
L 255.257326 300.543819 
L 257.644492 303.150279 
L 260.031658 304.026353 
L 262.418824 303.150279 
L 264.805989 300.543819 
L 267.193155 296.271326 
L 269.580321 290.438531 
L 271.967487 283.188174 
L 274.354652 274.698817 
L 276.741818 265.17979 
L 279.128984 254.865612 
L 281.51615 244.010023 
L 283.903316 232.880371 
" style="fill:none;stroke:#1f77b4;stroke-linecap:square;stroke-width:1.5;"/>
   </g>
  </g>
  <g id="axes_9">
   <g id="PathCollection_5">
    <g clip-path="url(#p37a7bacdda)">
     <use style="fill:#ff0000;fill-opacity:0.66;stroke:#ff0000;stroke-opacity:0.66;" x="354.796456" xlink:href="#m4a82b41451" y="268.449882"/>
     <use style="fill:#ff0000;fill-opacity:0.66;stroke:#ff0000;stroke-opacity:0.66;" x="354.80539" xlink:href="#m4a82b41451" y="268.449882"/>
    </g>
   </g>
   <g id="PathCollection_6">
    <g clip-path="url(#p37a7bacdda)">
     <use style="fill:#0000ff;fill-opacity:0.66;stroke:#0000ff;stroke-opacity:0.66;stroke-width:1.5;" x="408.900821" xlink:href="#m3c25e3f178" y="268.449882"/>
     <use style="fill:#0000ff;fill-opacity:0.66;stroke:#0000ff;stroke-opacity:0.66;stroke-width:1.5;" x="408.897062" xlink:href="#m3c25e3f178" y="268.449882"/>
    </g>
   </g>
   <g id="line2d_6">
    <path clip-path="url(#p37a7bacdda)" d="M 314.459037 268.449882 
L 409.945668 268.449882 
" style="fill:none;opacity:0.25;stroke:#000000;stroke-linecap:square;stroke-width:3;"/>
   </g>
  </g>
 </g>
 <defs>
  <clipPath id="pf20399d5ce">
   <rect height="78.268235" width="105.035294" x="183.642353" y="41.472"/>
  </clipPath>
  <clipPath id="pd865b8a36b">
   <rect height="78.268235" width="105.035294" x="309.684706" y="41.472"/>
  </clipPath>
  <clipPath id="p4d81350475">
   <rect height="78.268235" width="105.035294" x="183.642353" y="135.393882"/>
  </clipPath>
  <clipPath id="p7ca5f6ee98">
   <rect height="78.268235" width="105.035294" x="309.684706" y="135.393882"/>
  </clipPath>
  <clipPath id="pf08dbaf4a9">
   <rect height="78.268235" width="105.035294" x="183.642353" y="229.315765"/>
  </clipPath>
  <clipPath id="p37a7bacdda">
   <rect height="78.268235" width="105.035294" x="309.684706" y="229.315765"/>
  </clipPath>
 </defs>
</svg>
