<?xml version="1.0" encoding="utf-8" standalone="no"?>
<!DOCTYPE svg PUBLIC "-//W3C//DTD SVG 1.1//EN"
  "http://www.w3.org/Graphics/SVG/1.1/DTD/svg11.dtd">
<!-- Created with matplotlib (http://matplotlib.org/) -->
<svg height="345pt" version="1.1" viewBox="0 0 460 345" width="460pt" xmlns="http://www.w3.org/2000/svg" xmlns:xlink="http://www.w3.org/1999/xlink">
 <defs>
  <style type="text/css">
*{stroke-linecap:butt;stroke-linejoin:round;}
  </style>
 </defs>
 <g id="figure_1">
  <g id="patch_1">
   <path d="M 0 345.6 
L 460.8 345.6 
L 460.8 0 
L 0 0 
z
" style="fill:#ffffff;"/>
  </g>
  <g id="axes_1">
   <g id="text_1">
    <!-- Brute Force -->
    <defs>
     <path d="M 8.90625 69 
L 8.90625 0 
L 33.796875 0 
C 47.40625 0 57.296875 8.96875 57.296875 18.75 
C 57.296875 26.328125 50.796875 34 39.09375 36.203125 
C 52.09375 39.96875 54.703125 47.5 54.703125 51.765625 
C 54.703125 60.671875 44.90625 69 31.203125 69 
z
M 17 39 
L 17 63.421875 
L 28.5 63.421875 
C 38.796875 63.421875 46.90625 58.1875 46.90625 51.65625 
C 46.90625 45.71875 40.5 39 27.59375 39 
z
M 17 5.578125 
L 17 32.921875 
L 30.296875 32.921875 
C 41.09375 32.921875 49.40625 26.234375 49.40625 18.84375 
C 49.40625 12.0625 42.09375 5.578125 31 5.578125 
z
" id="CMSS17-66"/>
     <path d="M 14.90625 21.296875 
C 14.90625 30.703125 21.796875 37 30.59375 37 
L 30.59375 43.578125 
C 24.203125 43.578125 18.203125 40.390625 14.59375 35.203125 
L 14.59375 43.09375 
L 7.5 43.09375 
L 7.5 0 
L 14.90625 0 
z
" id="CMSS17-114"/>
     <path d="M 40.90625 42.796875 
L 33.296875 42.796875 
L 33.296875 15.1875 
C 33.296875 7.78125 27.90625 4.78125 22.203125 4.78125 
C 15.59375 4.78125 15 6.984375 15 11.078125 
L 15 42.796875 
L 7.40625 42.796875 
L 7.40625 10.59375 
C 7.40625 2.796875 10.09375 -1 17 -1 
C 20.40625 -1 28.09375 -0.203125 33.5 4.78125 
L 33.5 0 
L 40.90625 0 
z
" id="CMSS17-117"/>
     <path d="M 16.703125 37 
L 29.703125 37 
L 29.703125 42.765625 
L 16.703125 42.765625 
L 16.703125 55 
L 9.59375 55 
L 9.59375 42.765625 
L 1.703125 42.765625 
L 1.703125 37 
L 9.40625 37 
L 9.40625 11.703125 
C 9.40625 6 10.703125 -1 17.296875 -1 
C 22.296875 -1 26.90625 0.390625 31.296875 2.6875 
L 29.703125 8.5625 
C 27.296875 6.46875 24.40625 5.265625 21.296875 5.265625 
C 16.90625 5.265625 16.703125 10.875 16.703125 13.375 
z
" id="CMSS17-116"/>
     <path d="M 39.09375 21.515625 
C 39.09375 24.84375 38.90625 31.296875 35.703125 36.640625 
C 32.203125 42.390625 26.5 44 22.203125 44 
C 11.796875 44 3 34.1875 3 21.484375 
C 3 9.09375 12.09375 -1 23.59375 -1 
C 28.09375 -1 33.59375 0.296875 38.59375 3.875 
C 38.59375 4.28125 38.40625 6.46875 38.296875 6.5625 
C 38.296875 6.765625 38 9.84375 38 10.25 
C 33.203125 6.359375 27.703125 5.078125 23.703125 5.078125 
C 17.296875 5.078125 10.40625 10.421875 10.09375 21.515625 
z
M 10.90625 27 
C 12.203125 32.5625 16.59375 37.828125 22.203125 37.828125 
C 23.703125 37.828125 30.703125 37.828125 32.5 27 
z
" id="CMSS17-101"/>
     <path d="M 45.59375 31 
L 45.59375 37.078125 
L 17.203125 37.078125 
L 17.203125 62 
L 29.40625 62 
C 30.59375 62 31.796875 62 33 62 
L 49.5 62 
L 49.5 68.359375 
L 8.796875 68.359375 
L 8.796875 -0.5 
L 17.203125 -0.5 
L 17.203125 31 
z
" id="CMSS17-70"/>
     <path d="M 44.203125 21.1875 
C 44.203125 34 34.703125 44 23.5 44 
C 12 44 2.703125 33.703125 2.703125 21.1875 
C 2.703125 8.5 12.296875 -1 23.40625 -1 
C 34.796875 -1 44.203125 8.796875 44.203125 21.1875 
z
M 23.5 5.265625 
C 16.40625 5.265625 10.296875 11.078125 10.296875 22 
C 10.296875 33.609375 17.40625 37.921875 23.40625 37.921875 
C 29.90625 37.921875 36.59375 33.21875 36.59375 22 
C 36.59375 10.671875 30.09375 5.265625 23.5 5.265625 
z
" id="CMSS17-111"/>
     <path d="M 38.5 39.703125 
C 38.5 40.390625 33.90625 42.40625 32.703125 42.796875 
C 29.40625 44 25.203125 44 24.09375 44 
C 11.09375 44 3.296875 32.703125 3.296875 21.296875 
C 3.296875 9.296875 12 -1 23.703125 -1 
C 30.40625 -1 35.203125 1.1875 39.09375 3.78125 
L 38.5 10.375 
C 34.203125 7.078125 29.203125 5.265625 23.796875 5.265625 
C 16 5.265625 10.90625 12.09375 10.90625 21.390625 
C 10.90625 28.609375 14.203125 37.71875 24.203125 37.71875 
C 29.703125 37.71875 32.796875 36.609375 37.40625 33.515625 
z
" id="CMSS17-99"/>
    </defs>
    <g transform="translate(57.6 107.928824)scale(0.24 -0.24)">
     <use transform="scale(0.996264)" xlink:href="#CMSS17-66"/>
     <use transform="translate(62.33804 0)scale(0.996264)" xlink:href="#CMSS17-114"/>
     <use transform="translate(94.247813 0)scale(0.996264)" xlink:href="#CMSS17-117"/>
     <use transform="translate(142.452756 0)scale(0.996264)" xlink:href="#CMSS17-116"/>
     <use transform="translate(176.284323 0)scale(0.996264)" xlink:href="#CMSS17-101"/>
     <use transform="translate(249.152257 0)scale(0.996264)" xlink:href="#CMSS17-70"/>
     <use transform="translate(299.839363 0)scale(0.996264)" xlink:href="#CMSS17-111"/>
     <use transform="translate(344.080532 0)scale(0.996264)" xlink:href="#CMSS17-114"/>
     <use transform="translate(375.990305 0)scale(0.996264)" xlink:href="#CMSS17-99"/>
     <use transform="translate(417.629127 0)scale(0.996264)" xlink:href="#CMSS17-101"/>
    </g>
   </g>
  </g>
  <g id="axes_2">
   <g id="line2d_1">
    <path clip-path="url(#p5ec7d981a1)" d="M 188.416684 101.952 
L 190.929491 110.553051 
L 193.442297 118.942316 
L 195.955103 126.913223 
L 198.467909 134.269502 
L 200.980715 140.830016 
L 203.493521 146.433225 
L 206.006327 150.941159 
L 208.519133 154.242816 
L 211.031939 156.256901 
L 213.544745 156.933818 
L 216.057551 156.256901 
L 218.570357 154.242816 
L 221.083164 150.941159 
L 223.59597 146.433225 
L 226.108776 140.830016 
L 228.621582 134.269502 
L 231.134388 126.913223 
L 233.647194 118.942316 
L 236.16 110.553051 
L 238.672806 101.952 
L 241.185612 93.350949 
L 243.698418 84.961684 
L 246.211224 76.990777 
L 248.72403 69.634498 
L 251.236836 63.073984 
L 253.749643 57.470775 
L 256.262449 52.962841 
L 258.775255 49.661184 
L 261.288061 47.647099 
L 263.800867 46.970182 
L 266.313673 47.647099 
L 268.826479 49.661184 
L 271.339285 52.962841 
L 273.852091 57.470775 
L 276.364897 63.073984 
L 278.877703 69.634498 
L 281.390509 76.990777 
L 283.903316 84.961684 
" style="fill:none;stroke:#440154;stroke-linecap:square;stroke-width:1.5;"/>
   </g>
  </g>
  <g id="axes_3">
   <g id="PathCollection_1">
    <defs>
     <path d="M 0 7.245688 
C 1.921579 7.245688 3.764714 6.482237 5.123475 5.123475 
C 6.482237 3.764714 7.245688 1.921579 7.245688 0 
C 7.245688 -1.921579 6.482237 -3.764714 5.123475 -5.123475 
C 3.764714 -6.482237 1.921579 -7.245688 0 -7.245688 
C -1.921579 -7.245688 -3.764714 -6.482237 -5.123475 -5.123475 
C -6.482237 -3.764714 -7.245688 -1.921579 -7.245688 0 
C -7.245688 1.921579 -6.482237 3.764714 -5.123475 5.123475 
C -3.764714 6.482237 -1.921579 7.245688 0 7.245688 
z
" id="m17c6ad9337" style="stroke:#440154;stroke-opacity:0.33;stroke-width:3;"/>
    </defs>
    <g clip-path="url(#pd4a5e2d663)">
     <use style="fill:#440154;fill-opacity:0.33;stroke:#440154;stroke-opacity:0.33;stroke-width:3;" x="407.388215" xlink:href="#m17c6ad9337" y="88.206545"/>
     <use style="fill:#440154;fill-opacity:0.33;stroke:#440154;stroke-opacity:0.33;stroke-width:3;" x="381.636289" xlink:href="#m17c6ad9337" y="88.206545"/>
    </g>
   </g>
   <g id="PathCollection_2">
    <defs>
     <path d="M -7.905694 7.905694 
L 7.905694 -7.905694 
M -7.905694 -7.905694 
L 7.905694 7.905694 
" id="mccb008d631" style="stroke:#5ec962;stroke-opacity:0.66;stroke-width:3;"/>
    </defs>
    <g clip-path="url(#pd4a5e2d663)">
     <use style="fill:#5ec962;fill-opacity:0.66;stroke:#5ec962;stroke-opacity:0.66;stroke-width:3;" x="317.01649" xlink:href="#mccb008d631" y="88.206545"/>
     <use style="fill:#5ec962;fill-opacity:0.66;stroke:#5ec962;stroke-opacity:0.66;stroke-width:3;" x="381.695708" xlink:href="#mccb008d631" y="88.206545"/>
    </g>
   </g>
   <g id="line2d_2">
    <path clip-path="url(#pd4a5e2d663)" d="M 314.459037 101.952 
L 409.945668 101.952 
" style="fill:none;opacity:0.25;stroke:#000000;stroke-linecap:square;stroke-width:3;"/>
   </g>
  </g>
  <g id="axes_4">
   <g id="text_2">
    <!-- Genetic -->
    <defs>
     <path d="M 56.40625 29 
L 36.5 29 
L 36.5 22.828125 
L 48.796875 22.828125 
L 48.796875 7.359375 
C 44.90625 6.265625 40.90625 5.46875 36.90625 5.46875 
C 22.90625 5.46875 14.59375 20.328125 14.59375 34.375 
C 14.59375 48.359375 23.296875 63 36.90625 63 
C 44.59375 63 48.90625 60.640625 54.203125 56.671875 
L 55.5 64.59375 
C 48.90625 67.984375 44.796875 69.375 37.296875 69.375 
C 17.90625 69.375 6.203125 51.9375 6.203125 34.09375 
C 6.203125 17.03125 18 -1 36.703125 -1 
C 43.703125 -1 50.203125 0.796875 56.40625 3.875 
z
" id="CMSS17-71"/>
     <path d="M 40.90625 29.328125 
C 40.90625 35.671875 39.40625 44 28.09375 44 
C 21.703125 44 17.5 40.71875 14.703125 37.328125 
L 14.703125 43.09375 
L 7.40625 43.09375 
L 7.40625 0 
L 15 0 
L 15 24.359375 
C 15 30.6875 17.40625 37.9375 24.203125 37.9375 
C 33 37.9375 33.296875 32 33.296875 28.578125 
L 33.296875 0 
L 40.90625 0 
z
" id="CMSS17-110"/>
     <path d="M 15.296875 65.359375 
L 6.90625 65.359375 
L 6.90625 57 
L 15.296875 57 
z
M 14.796875 42.796875 
L 7.40625 42.796875 
L 7.40625 0 
L 14.796875 0 
z
" id="CMSS17-105"/>
    </defs>
    <g transform="translate(57.6 253.080824)scale(0.24 -0.24)">
     <use transform="scale(0.996264)" xlink:href="#CMSS17-71"/>
     <use transform="translate(62.458226 0)scale(0.996264)" xlink:href="#CMSS17-101"/>
     <use transform="translate(104.097048 0)scale(0.996264)" xlink:href="#CMSS17-110"/>
     <use transform="translate(152.301991 0)scale(0.996264)" xlink:href="#CMSS17-101"/>
     <use transform="translate(193.940813 0)scale(0.996264)" xlink:href="#CMSS17-116"/>
     <use transform="translate(227.772379 0)scale(0.996264)" xlink:href="#CMSS17-105"/>
     <use transform="translate(249.953103 0)scale(0.996264)" xlink:href="#CMSS17-99"/>
    </g>
   </g>
  </g>
  <g id="axes_5">
   <g id="line2d_3">
    <path clip-path="url(#p7c3a77d760)" d="M 188.416684 271.045756 
L 193.721497 268.035424 
L 199.02631 264.509692 
L 204.331123 260.555373 
L 209.635936 256.269837 
L 214.940749 251.758608 
L 220.245561 247.132767 
L 225.550374 238.531715 
L 230.855187 230.141742 
L 236.16 222.169436 
L 241.464813 214.811102 
L 246.769626 208.247926 
L 252.074439 202.641515 
L 257.379251 198.129918 
L 262.684064 194.824226 
L 267.988877 192.805835 
L 273.29369 192.124446 
L 278.598503 192.796835 
L 283.903316 194.806447 
" style="fill:none;stroke:#440154;stroke-linecap:square;stroke-width:1.5;"/>
   </g>
  </g>
  <g id="axes_6">
   <g id="PathCollection_3">
    <g clip-path="url(#p568941a08d)">
     <use style="fill:#440154;fill-opacity:0.33;stroke:#440154;stroke-opacity:0.33;stroke-width:3;" x="364.041744" xlink:href="#m17c6ad9337" y="233.358545"/>
     <use style="fill:#440154;fill-opacity:0.33;stroke:#440154;stroke-opacity:0.33;stroke-width:3;" x="405.239508" xlink:href="#m17c6ad9337" y="233.358545"/>
    </g>
   </g>
   <g id="PathCollection_4">
    <g clip-path="url(#p568941a08d)">
     <use style="fill:#5ec962;fill-opacity:0.66;stroke:#5ec962;stroke-opacity:0.66;stroke-width:3;" x="329.05688" xlink:href="#mccb008d631" y="233.358545"/>
     <use style="fill:#5ec962;fill-opacity:0.66;stroke:#5ec962;stroke-opacity:0.66;stroke-width:3;" x="350.609335" xlink:href="#mccb008d631" y="233.358545"/>
    </g>
   </g>
   <g id="line2d_4">
    <path clip-path="url(#p568941a08d)" d="M 314.459037 247.104 
L 409.945668 247.104 
" style="fill:none;opacity:0.25;stroke:#000000;stroke-linecap:square;stroke-width:3;"/>
   </g>
  </g>
 </g>
 <defs>
  <clipPath id="p5ec7d981a1">
   <rect height="120.96" width="105.035294" x="183.642353" y="41.472"/>
  </clipPath>
  <clipPath id="pd4a5e2d663">
   <rect height="120.96" width="105.035294" x="309.684706" y="41.472"/>
  </clipPath>
  <clipPath id="p7c3a77d760">
   <rect height="120.96" width="105.035294" x="183.642353" y="186.624"/>
  </clipPath>
  <clipPath id="p568941a08d">
   <rect height="120.96" width="105.035294" x="309.684706" y="186.624"/>
  </clipPath>
 </defs>
</svg>
