<?xml version="1.0" encoding="utf-8" standalone="no"?>
<!DOCTYPE svg PUBLIC "-//W3C//DTD SVG 1.1//EN"
  "http://www.w3.org/Graphics/SVG/1.1/DTD/svg11.dtd">
<!-- Created with matplotlib (http://matplotlib.org/) -->
<svg height="1080pt" version="1.1" viewBox="0 0 1080 1080" width="1080pt" xmlns="http://www.w3.org/2000/svg" xmlns:xlink="http://www.w3.org/1999/xlink">
 <defs>
  <style type="text/css">
*{stroke-linecap:butt;stroke-linejoin:round;}
  </style>
 </defs>
 <g id="figure_1">
  <g id="patch_1">
   <path d="M 0 1080 
L 1080 1080 
L 1080 0 
L 0 0 
z
" style="fill:#ffffff;"/>
  </g>
  <g id="axes_1">
   <g id="patch_2">
    <path d="M 135 961.2 
L 972 961.2 
L 972 129.6 
L 135 129.6 
z
" style="fill:#ffffff;"/>
   </g>
   <g id="PathCollection_1">
    <defs>
     <path d="M 0 3 
C 0.795609 3 1.55874 2.683901 2.12132 2.12132 
C 2.683901 1.55874 3 0.795609 3 0 
C 3 -0.795609 2.683901 -1.55874 2.12132 -2.12132 
C 1.55874 -2.683901 0.795609 -3 0 -3 
C -0.795609 -3 -1.55874 -2.683901 -2.12132 -2.12132 
C -2.683901 -1.55874 -3 -0.795609 -3 0 
C -3 0.795609 -2.683901 1.55874 -2.12132 2.12132 
C -1.55874 2.683901 -0.795609 3 0 3 
z
" id="m5c4fc90ab9" style="stroke:#1f77b4;"/>
    </defs>
    <g clip-path="url(#p2214718fe7)">
     <use style="fill:#1f77b4;stroke:#1f77b4;" x="545.909864" xlink:href="#m5c4fc90ab9" y="550.391037"/>
     <use style="fill:#1f77b4;stroke:#1f77b4;" x="425.322581" xlink:href="#m5c4fc90ab9" y="839.686267"/>
     <use style="fill:#1f77b4;stroke:#1f77b4;" x="277.701425" xlink:href="#m5c4fc90ab9" y="698.107682"/>
     <use style="fill:#1f77b4;stroke:#1f77b4;" x="849.697217" xlink:href="#m5c4fc90ab9" y="265.284431"/>
    </g>
   </g>
   <g id="PolyCollection_1">
    <path clip-path="url(#p2214718fe7)" d="M 135 2542.043195 
L 135 961.2 
L 143.454545 952.8 
L 151.909091 944.4 
L 160.363636 936 
L 168.818182 927.6 
L 177.272727 919.2 
L 185.727273 910.8 
L 194.181818 902.4 
L 202.636364 894 
L 211.090909 885.6 
L 219.545455 877.2 
L 228 868.8 
L 236.454545 860.4 
L 244.909091 852 
L 253.363636 843.6 
L 261.818182 835.2 
L 270.272727 826.8 
L 278.727273 818.4 
L 287.181818 810 
L 295.636364 801.6 
L 304.090909 793.2 
L 312.545455 784.8 
L 321 776.4 
L 329.454545 768 
L 337.909091 759.6 
L 346.363636 751.2 
L 354.818182 742.8 
L 363.272727 734.4 
L 371.727273 726 
L 380.181818 717.6 
L 388.636364 709.2 
L 397.090909 700.8 
L 405.545455 692.4 
L 414 684 
L 422.454545 675.6 
L 430.909091 667.2 
L 439.363636 658.8 
L 447.818182 650.4 
L 456.272727 642 
L 464.727273 633.6 
L 473.181818 625.2 
L 481.636364 616.8 
L 490.090909 608.4 
L 498.545455 600 
L 507 591.6 
L 515.454545 583.2 
L 523.909091 574.8 
L 532.363636 566.4 
L 540.818182 558 
L 549.272727 549.6 
L 557.727273 541.2 
L 566.181818 532.8 
L 574.636364 524.4 
L 583.090909 516 
L 591.545455 507.6 
L 600 499.2 
L 608.454545 490.8 
L 616.909091 482.4 
L 625.363636 474 
L 633.818182 465.6 
L 642.272727 457.2 
L 650.727273 448.8 
L 659.181818 440.4 
L 667.636364 432 
L 676.090909 423.6 
L 684.545455 415.2 
L 693 406.8 
L 701.454545 398.4 
L 709.909091 390 
L 718.363636 381.6 
L 726.818182 373.2 
L 735.272727 364.8 
L 743.727273 356.4 
L 752.181818 348 
L 760.636364 339.6 
L 769.090909 331.2 
L 777.545455 322.8 
L 786 314.4 
L 794.454545 306 
L 802.909091 297.6 
L 811.363636 289.2 
L 819.818182 280.8 
L 828.272727 272.4 
L 836.727273 264 
L 845.181818 255.6 
L 853.636364 247.2 
L 862.090909 238.8 
L 870.545455 230.4 
L 879 222 
L 887.454545 213.6 
L 895.909091 205.2 
L 904.363636 196.8 
L 912.818182 188.4 
L 921.272727 180 
L 929.727273 171.6 
L 938.181818 163.2 
L 946.636364 154.8 
L 955.090909 146.4 
L 963.545455 138 
L 972 129.6 
L 972 2542.043195 
L 972 2542.043195 
L 963.545455 2542.043195 
L 955.090909 2542.043195 
L 946.636364 2542.043195 
L 938.181818 2542.043195 
L 929.727273 2542.043195 
L 921.272727 2542.043195 
L 912.818182 2542.043195 
L 904.363636 2542.043195 
L 895.909091 2542.043195 
L 887.454545 2542.043195 
L 879 2542.043195 
L 870.545455 2542.043195 
L 862.090909 2542.043195 
L 853.636364 2542.043195 
L 845.181818 2542.043195 
L 836.727273 2542.043195 
L 828.272727 2542.043195 
L 819.818182 2542.043195 
L 811.363636 2542.043195 
L 802.909091 2542.043195 
L 794.454545 2542.043195 
L 786 2542.043195 
L 777.545455 2542.043195 
L 769.090909 2542.043195 
L 760.636364 2542.043195 
L 752.181818 2542.043195 
L 743.727273 2542.043195 
L 735.272727 2542.043195 
L 726.818182 2542.043195 
L 718.363636 2542.043195 
L 709.909091 2542.043195 
L 701.454545 2542.043195 
L 693 2542.043195 
L 684.545455 2542.043195 
L 676.090909 2542.043195 
L 667.636364 2542.043195 
L 659.181818 2542.043195 
L 650.727273 2542.043195 
L 642.272727 2542.043195 
L 633.818182 2542.043195 
L 625.363636 2542.043195 
L 616.909091 2542.043195 
L 608.454545 2542.043195 
L 600 2542.043195 
L 591.545455 2542.043195 
L 583.090909 2542.043195 
L 574.636364 2542.043195 
L 566.181818 2542.043195 
L 557.727273 2542.043195 
L 549.272727 2542.043195 
L 540.818182 2542.043195 
L 532.363636 2542.043195 
L 523.909091 2542.043195 
L 515.454545 2542.043195 
L 507 2542.043195 
L 498.545455 2542.043195 
L 490.090909 2542.043195 
L 481.636364 2542.043195 
L 473.181818 2542.043195 
L 464.727273 2542.043195 
L 456.272727 2542.043195 
L 447.818182 2542.043195 
L 439.363636 2542.043195 
L 430.909091 2542.043195 
L 422.454545 2542.043195 
L 414 2542.043195 
L 405.545455 2542.043195 
L 397.090909 2542.043195 
L 388.636364 2542.043195 
L 380.181818 2542.043195 
L 371.727273 2542.043195 
L 363.272727 2542.043195 
L 354.818182 2542.043195 
L 346.363636 2542.043195 
L 337.909091 2542.043195 
L 329.454545 2542.043195 
L 321 2542.043195 
L 312.545455 2542.043195 
L 304.090909 2542.043195 
L 295.636364 2542.043195 
L 287.181818 2542.043195 
L 278.727273 2542.043195 
L 270.272727 2542.043195 
L 261.818182 2542.043195 
L 253.363636 2542.043195 
L 244.909091 2542.043195 
L 236.454545 2542.043195 
L 228 2542.043195 
L 219.545455 2542.043195 
L 211.090909 2542.043195 
L 202.636364 2542.043195 
L 194.181818 2542.043195 
L 185.727273 2542.043195 
L 177.272727 2542.043195 
L 168.818182 2542.043195 
L 160.363636 2542.043195 
L 151.909091 2542.043195 
L 143.454545 2542.043195 
L 135 2542.043195 
z
" style="fill:#ffeda0;fill-opacity:0.3;stroke:#ffeda0;stroke-opacity:0.3;"/>
   </g>
   <g id="PolyCollection_2">
    <defs>
     <path d="M 135 -950.4 
L 135 -118.8 
L 143.454545 -127.2 
L 151.909091 -135.6 
L 160.363636 -144 
L 168.818182 -152.4 
L 177.272727 -160.8 
L 185.727273 -169.2 
L 194.181818 -177.6 
L 202.636364 -186 
L 211.090909 -194.4 
L 219.545455 -202.8 
L 228 -211.2 
L 236.454545 -219.6 
L 244.909091 -228 
L 253.363636 -236.4 
L 261.818182 -244.8 
L 270.272727 -253.2 
L 278.727273 -261.6 
L 287.181818 -270 
L 295.636364 -278.4 
L 304.090909 -286.8 
L 312.545455 -295.2 
L 321 -303.6 
L 329.454545 -312 
L 337.909091 -320.4 
L 346.363636 -328.8 
L 354.818182 -337.2 
L 363.272727 -345.6 
L 371.727273 -354 
L 380.181818 -362.4 
L 388.636364 -370.8 
L 397.090909 -379.2 
L 405.545455 -387.6 
L 414 -396 
L 422.454545 -404.4 
L 430.909091 -412.8 
L 439.363636 -421.2 
L 447.818182 -429.6 
L 456.272727 -438 
L 464.727273 -446.4 
L 473.181818 -454.8 
L 481.636364 -463.2 
L 490.090909 -471.6 
L 498.545455 -480 
L 507 -488.4 
L 515.454545 -496.8 
L 523.909091 -505.2 
L 532.363636 -513.6 
L 540.818182 -522 
L 549.272727 -530.4 
L 557.727273 -538.8 
L 566.181818 -547.2 
L 574.636364 -555.6 
L 583.090909 -564 
L 591.545455 -572.4 
L 600 -580.8 
L 608.454545 -589.2 
L 616.909091 -597.6 
L 625.363636 -606 
L 633.818182 -614.4 
L 642.272727 -622.8 
L 650.727273 -631.2 
L 659.181818 -639.6 
L 667.636364 -648 
L 676.090909 -656.4 
L 684.545455 -664.8 
L 693 -673.2 
L 701.454545 -681.6 
L 709.909091 -690 
L 718.363636 -698.4 
L 726.818182 -706.8 
L 735.272727 -715.2 
L 743.727273 -723.6 
L 752.181818 -732 
L 760.636364 -740.4 
L 769.090909 -748.8 
L 777.545455 -757.2 
L 786 -765.6 
L 794.454545 -774 
L 802.909091 -782.4 
L 811.363636 -790.8 
L 819.818182 -799.2 
L 828.272727 -807.6 
L 836.727273 -816 
L 845.181818 -824.4 
L 853.636364 -832.8 
L 862.090909 -841.2 
L 870.545455 -849.6 
L 879 -858 
L 887.454545 -866.4 
L 895.909091 -874.8 
L 904.363636 -883.2 
L 912.818182 -891.6 
L 921.272727 -900 
L 929.727273 -908.4 
L 938.181818 -916.8 
L 946.636364 -925.2 
L 955.090909 -933.6 
L 963.545455 -942 
L 972 -950.4 
L 972 -950.4 
L 972 -950.4 
L 963.545455 -950.4 
L 955.090909 -950.4 
L 946.636364 -950.4 
L 938.181818 -950.4 
L 929.727273 -950.4 
L 921.272727 -950.4 
L 912.818182 -950.4 
L 904.363636 -950.4 
L 895.909091 -950.4 
L 887.454545 -950.4 
L 879 -950.4 
L 870.545455 -950.4 
L 862.090909 -950.4 
L 853.636364 -950.4 
L 845.181818 -950.4 
L 836.727273 -950.4 
L 828.272727 -950.4 
L 819.818182 -950.4 
L 811.363636 -950.4 
L 802.909091 -950.4 
L 794.454545 -950.4 
L 786 -950.4 
L 777.545455 -950.4 
L 769.090909 -950.4 
L 760.636364 -950.4 
L 752.181818 -950.4 
L 743.727273 -950.4 
L 735.272727 -950.4 
L 726.818182 -950.4 
L 718.363636 -950.4 
L 709.909091 -950.4 
L 701.454545 -950.4 
L 693 -950.4 
L 684.545455 -950.4 
L 676.090909 -950.4 
L 667.636364 -950.4 
L 659.181818 -950.4 
L 650.727273 -950.4 
L 642.272727 -950.4 
L 633.818182 -950.4 
L 625.363636 -950.4 
L 616.909091 -950.4 
L 608.454545 -950.4 
L 600 -950.4 
L 591.545455 -950.4 
L 583.090909 -950.4 
L 574.636364 -950.4 
L 566.181818 -950.4 
L 557.727273 -950.4 
L 549.272727 -950.4 
L 540.818182 -950.4 
L 532.363636 -950.4 
L 523.909091 -950.4 
L 515.454545 -950.4 
L 507 -950.4 
L 498.545455 -950.4 
L 490.090909 -950.4 
L 481.636364 -950.4 
L 473.181818 -950.4 
L 464.727273 -950.4 
L 456.272727 -950.4 
L 447.818182 -950.4 
L 439.363636 -950.4 
L 430.909091 -950.4 
L 422.454545 -950.4 
L 414 -950.4 
L 405.545455 -950.4 
L 397.090909 -950.4 
L 388.636364 -950.4 
L 380.181818 -950.4 
L 371.727273 -950.4 
L 363.272727 -950.4 
L 354.818182 -950.4 
L 346.363636 -950.4 
L 337.909091 -950.4 
L 329.454545 -950.4 
L 321 -950.4 
L 312.545455 -950.4 
L 304.090909 -950.4 
L 295.636364 -950.4 
L 287.181818 -950.4 
L 278.727273 -950.4 
L 270.272727 -950.4 
L 261.818182 -950.4 
L 253.363636 -950.4 
L 244.909091 -950.4 
L 236.454545 -950.4 
L 228 -950.4 
L 219.545455 -950.4 
L 211.090909 -950.4 
L 202.636364 -950.4 
L 194.181818 -950.4 
L 185.727273 -950.4 
L 177.272727 -950.4 
L 168.818182 -950.4 
L 160.363636 -950.4 
L 151.909091 -950.4 
L 143.454545 -950.4 
L 135 -950.4 
z
" id="mf9d0ad4257" style="stroke:#f03b20;stroke-opacity:0.3;"/>
    </defs>
    <g clip-path="url(#p2214718fe7)">
     <use style="fill:#f03b20;fill-opacity:0.3;stroke:#f03b20;stroke-opacity:0.3;" x="0" xlink:href="#mf9d0ad4257" y="1080"/>
    </g>
   </g>
   <g id="matplotlib.axis_1">
    <g id="xtick_1">
     <g id="line2d_1">
      <defs>
       <path d="M 0 0 
L 0 3.5 
" id="m03863c5554" style="stroke:#000000;stroke-width:0.8;"/>
      </defs>
      <g>
       <use style="stroke:#000000;stroke-width:0.8;" x="256.130552" xlink:href="#m03863c5554" y="961.2"/>
      </g>
     </g>
     <g id="text_1">
      <!-- $0.70$ -->
      <defs>
       <path d="M 42 31.640625 
C 42 37.75 41.90625 48.125 37.703125 56.109375 
C 34 63.109375 28.09375 65.59375 22.90625 65.59375 
C 18.09375 65.59375 12 63.40625 8.203125 56.203125 
C 4.203125 48.71875 3.796875 39.4375 3.796875 31.640625 
C 3.796875 25.953125 3.90625 17.28125 7 9.671875 
C 11.296875 -0.609375 19 -2 22.90625 -2 
C 27.5 -2 34.5 -0.109375 38.59375 9.375 
C 41.59375 16.28125 42 24.359375 42 31.640625 
z
M 22.90625 -0.40625 
C 16.5 -0.40625 12.703125 5.078125 11.296875 12.6875 
C 10.203125 18.5625 10.203125 27.15625 10.203125 32.75 
C 10.203125 40.4375 10.203125 46.828125 11.5 52.921875 
C 13.40625 61.390625 19 64 22.90625 64 
C 27 64 32.296875 61.296875 34.203125 53.125 
C 35.5 47.4375 35.59375 40.734375 35.59375 32.75 
C 35.59375 26.25 35.59375 18.265625 34.40625 12.375 
C 32.296875 1.484375 26.40625 -0.40625 22.90625 -0.40625 
z
" id="CMR17-48"/>
       <path d="M 18.40625 4.796875 
C 18.40625 7.6875 16 9.671875 13.59375 9.671875 
C 10.703125 9.671875 8.703125 7.28125 8.703125 4.890625 
C 8.703125 2 11.09375 0 13.5 0 
C 16.40625 0 18.40625 2.390625 18.40625 4.796875 
z
" id="CMMI12-58"/>
       <path d="M 45.09375 61.578125 
L 45.09375 63.765625 
L 21.59375 63.765625 
C 9.90625 63.765625 9.703125 65.078125 9.296875 67 
L 7.5 67 
L 4.59375 48.34375 
L 6.40625 48.34375 
C 6.703125 50.234375 7.40625 55.3125 8.59375 57.203125 
C 9.203125 58 16.59375 58 18.296875 58 
L 40.296875 58 
L 29.203125 41.578125 
C 21.796875 30.53125 16.703125 15.609375 16.703125 2.578125 
C 16.703125 1.390625 16.703125 -2 20.296875 -2 
C 23.90625 -2 23.90625 1.390625 23.90625 2.671875 
L 23.90625 7.265625 
C 23.90625 23.5625 26.703125 34.3125 31.296875 41.1875 
z
" id="CMR17-55"/>
      </defs>
      <g transform="translate(242.256797 979.269588)scale(0.16 -0.16)">
       <use transform="scale(0.996264)" xlink:href="#CMR17-48"/>
       <use transform="translate(45.690477 0)scale(0.996264)" xlink:href="#CMMI12-58"/>
       <use transform="translate(72.787654 0)scale(0.996264)" xlink:href="#CMR17-55"/>
       <use transform="translate(118.478131 0)scale(0.996264)" xlink:href="#CMR17-48"/>
      </g>
     </g>
    </g>
    <g id="xtick_2">
     <g id="line2d_2">
      <g>
       <use style="stroke:#000000;stroke-width:0.8;" x="378.433335" xlink:href="#m03863c5554" y="961.2"/>
      </g>
     </g>
     <g id="text_2">
      <!-- $0.75$ -->
      <defs>
       <path d="M 11.40625 57.6875 
C 12.40625 57.28125 16.5 56 20.703125 56 
C 30 56 35.09375 61.109375 38 64.0625 
C 38 64.953125 38 65.5 37.40625 65.5 
C 37.296875 65.5 37.09375 65.5 36.296875 65.046875 
C 32.796875 63.40625 28.703125 62.078125 23.703125 62.078125 
C 20.703125 62.078125 16.203125 62.484375 11.296875 64.671875 
C 10.203125 65.171875 10 65.171875 9.90625 65.171875 
C 9.40625 65.171875 9.296875 65.0625 9.296875 63.078125 
L 9.296875 34.421875 
C 9.296875 32.640625 9.296875 32.140625 10.296875 32.140625 
C 10.796875 32.140625 11 32.34375 11.5 33.03125 
C 14.703125 37.515625 19.09375 39.40625 24.09375 39.40625 
C 27.59375 39.40625 35.09375 37.21875 35.09375 20.140625 
C 35.09375 16.953125 35.09375 11.171875 32.09375 6.578125 
C 29.59375 2.484375 25.703125 0.390625 21.40625 0.390625 
C 14.796875 0.390625 8.09375 5 6.296875 12.71875 
C 6.703125 12.609375 7.5 12.421875 7.90625 12.421875 
C 9.203125 12.421875 11.703125 13.125 11.703125 16.21875 
C 11.703125 18.90625 9.796875 20 7.90625 20 
C 5.59375 20 4.09375 18.59375 4.09375 15.796875 
C 4.09375 7.09375 11 -2 21.59375 -2 
C 31.90625 -2 41.703125 6.875 41.703125 19.75 
C 41.703125 31.71875 33.90625 41 24.203125 41 
C 19.09375 41 14.796875 39.109375 11.40625 35.53125 
z
" id="CMR17-53"/>
      </defs>
      <g transform="translate(364.55958 979.269588)scale(0.16 -0.16)">
       <use transform="scale(0.996264)" xlink:href="#CMR17-48"/>
       <use transform="translate(45.690477 0)scale(0.996264)" xlink:href="#CMMI12-58"/>
       <use transform="translate(72.787654 0)scale(0.996264)" xlink:href="#CMR17-55"/>
       <use transform="translate(118.478131 0)scale(0.996264)" xlink:href="#CMR17-53"/>
      </g>
     </g>
    </g>
    <g id="xtick_3">
     <g id="line2d_3">
      <g>
       <use style="stroke:#000000;stroke-width:0.8;" x="500.736118" xlink:href="#m03863c5554" y="961.2"/>
      </g>
     </g>
     <g id="text_3">
      <!-- $0.80$ -->
      <defs>
       <path d="M 27.203125 35.375 
C 33.5 38.546875 39.90625 43.328125 39.90625 50.984375 
C 39.90625 60.015625 31.09375 65.296875 23 65.296875 
C 13.90625 65.296875 5.90625 58.734375 5.90625 49.6875 
C 5.90625 47.203125 6.5 42.921875 10.40625 39.140625 
C 11.40625 38.15625 15.59375 35.171875 18.296875 33.28125 
C 13.796875 30.984375 3.296875 25.53125 3.296875 14.59375 
C 3.296875 4.359375 13.09375 -2 22.796875 -2 
C 33.5 -2 42.5 5.65625 42.5 15.78125 
C 42.5 24.84375 36.40625 29.015625 32.40625 31.703125 
z
M 14.09375 44.09375 
C 13.296875 44.59375 9.296875 47.671875 9.296875 52.359375 
C 9.296875 58.421875 15.59375 63 22.796875 63 
C 30.703125 63 36.5 57.4375 36.5 50.96875 
C 36.5 41.703125 26.09375 36.421875 25.59375 36.421875 
C 25.5 36.421875 25.40625 36.421875 24.59375 37.03125 
z
M 32.5 23.734375 
C 34 22.640625 38.796875 19.375 38.796875 13.296875 
C 38.796875 5.953125 31.40625 0.390625 23 0.390625 
C 13.90625 0.390625 7 6.84375 7 14.6875 
C 7 22.546875 13.09375 29.09375 20 32.1875 
z
" id="CMR17-56"/>
      </defs>
      <g transform="translate(486.862363 979.269588)scale(0.16 -0.16)">
       <use transform="scale(0.996264)" xlink:href="#CMR17-48"/>
       <use transform="translate(45.690477 0)scale(0.996264)" xlink:href="#CMMI12-58"/>
       <use transform="translate(72.787654 0)scale(0.996264)" xlink:href="#CMR17-56"/>
       <use transform="translate(118.478131 0)scale(0.996264)" xlink:href="#CMR17-48"/>
      </g>
     </g>
    </g>
    <g id="xtick_4">
     <g id="line2d_4">
      <g>
       <use style="stroke:#000000;stroke-width:0.8;" x="623.038901" xlink:href="#m03863c5554" y="961.2"/>
      </g>
     </g>
     <g id="text_4">
      <!-- $0.85$ -->
      <g transform="translate(609.165146 979.269588)scale(0.16 -0.16)">
       <use transform="scale(0.996264)" xlink:href="#CMR17-48"/>
       <use transform="translate(45.690477 0)scale(0.996264)" xlink:href="#CMMI12-58"/>
       <use transform="translate(72.787654 0)scale(0.996264)" xlink:href="#CMR17-56"/>
       <use transform="translate(118.478131 0)scale(0.996264)" xlink:href="#CMR17-53"/>
      </g>
     </g>
    </g>
    <g id="xtick_5">
     <g id="line2d_5">
      <g>
       <use style="stroke:#000000;stroke-width:0.8;" x="745.341684" xlink:href="#m03863c5554" y="961.2"/>
      </g>
     </g>
     <g id="text_5">
      <!-- $0.90$ -->
      <defs>
       <path d="M 35.203125 29.125 
C 35.203125 7.25 26.09375 0.484375 18.59375 0.484375 
C 16.296875 0.484375 10.703125 0.484375 8.40625 4.59375 
C 11 4.1875 12.90625 5.578125 12.90625 8.09375 
C 12.90625 10.8125 10.703125 11.703125 9.296875 11.703125 
C 8.40625 11.703125 5.703125 11.296875 5.703125 7.90625 
C 5.703125 1.109375 11.59375 -2 18.796875 -2 
C 30.296875 -2 42 10.53125 42 32.390625 
C 42 59.640625 30.796875 65.296875 23.203125 65.296875 
C 13.296875 65.296875 3.796875 56.6875 3.796875 43.40625 
C 3.796875 31.109375 11.90625 22 22.09375 22 
C 30.5 22 34.203125 29.734375 35.203125 33 
z
M 22.296875 23.59375 
C 19.59375 23.59375 15.796875 24.09375 12.703125 30.03125 
C 10.59375 33.890625 10.59375 38.453125 10.59375 43.296875 
C 10.59375 49.15625 10.59375 53.203125 13.40625 57.5625 
C 14.796875 59.640625 17.40625 63 23.203125 63 
C 35 63 35 45.078125 35 41.125 
C 35 34.09375 31.796875 23.59375 22.296875 23.59375 
z
" id="CMR17-57"/>
      </defs>
      <g transform="translate(731.467929 979.269588)scale(0.16 -0.16)">
       <use transform="scale(0.996264)" xlink:href="#CMR17-48"/>
       <use transform="translate(45.690477 0)scale(0.996264)" xlink:href="#CMMI12-58"/>
       <use transform="translate(72.787654 0)scale(0.996264)" xlink:href="#CMR17-57"/>
       <use transform="translate(118.478131 0)scale(0.996264)" xlink:href="#CMR17-48"/>
      </g>
     </g>
    </g>
    <g id="xtick_6">
     <g id="line2d_6">
      <g>
       <use style="stroke:#000000;stroke-width:0.8;" x="867.644467" xlink:href="#m03863c5554" y="961.2"/>
      </g>
     </g>
     <g id="text_6">
      <!-- $0.95$ -->
      <g transform="translate(853.770712 979.269588)scale(0.16 -0.16)">
       <use transform="scale(0.996264)" xlink:href="#CMR17-48"/>
       <use transform="translate(45.690477 0)scale(0.996264)" xlink:href="#CMMI12-58"/>
       <use transform="translate(72.787654 0)scale(0.996264)" xlink:href="#CMR17-57"/>
       <use transform="translate(118.478131 0)scale(0.996264)" xlink:href="#CMR17-53"/>
      </g>
     </g>
    </g>
    <g id="text_7">
     <!-- \textbf{Acc.} (\texttt{\textsc{dependent}}) -->
     <defs>
      <path d="M 45.796875 67.203125 
C 45.09375 69 44.90625 69.5 42.5 69.5 
C 40 69.5 39.796875 69 39.09375 67.203125 
L 14.296875 6.453125 
C 13.59375 4.859375 13.59375 4.671875 10.796875 4.359375 
C 8.296875 4.0625 7.90625 4.0625 5.703125 4.0625 
L 3.90625 4.0625 
L 3.90625 -0.203125 
C 6.5 0 12.5 0 15.40625 0 
C 18.09375 0 25.40625 0 27.703125 -0.203125 
L 27.703125 4.0625 
C 25.5 4.0625 21.703125 4.0625 18.90625 5.171875 
C 19.203125 6.09375 19.203125 6.28125 19.40625 6.6875 
L 24.703125 19.71875 
L 51.5 19.71875 
L 57.796875 4.0625 
L 48.40625 4.0625 
L 48.40625 0 
C 51.59375 0 61.296875 0 65.09375 0 
C 68.296875 0 78.5 0 81 -0.203125 
L 81 4.0625 
L 71.5 4.0625 
z
M 38.09375 52.609375 
L 49.703125 24 
L 26.40625 24 
z
" id="CMBX12-65"/>
      <path d="M 46.796875 11.765625 
C 46.796875 12.953125 45.703125 12.953125 44.703125 12.953125 
C 43.09375 12.953125 43 12.859375 42.5 11.671875 
C 41.796875 9.765625 39.09375 3.078125 29.90625 3.078125 
C 15.796875 3.078125 15.796875 18.21875 15.796875 22.703125 
C 15.796875 28.578125 15.90625 41.625 29 41.625 
C 29.703125 41.625 35.59375 41.625 35.59375 41.125 
C 35.59375 41 35.5 40.90625 35.296875 40.8125 
C 35 40.515625 33.703125 39 33.703125 36.46875 
C 33.703125 32.25 37.09375 30.53125 39.59375 30.53125 
C 41.703125 30.53125 45.5 31.859375 45.5 36.65625 
C 45.5 45 34 45 28.59375 45 
C 10.796875 45 3.796875 33.515625 3.796875 22.09375 
C 3.796875 8.625 13.296875 -0.5 28 -0.5 
C 43.703125 -0.5 46.796875 11.0625 46.796875 11.765625 
z
" id="CMBX12-99"/>
      <path d="M 22.796875 7.15625 
C 22.796875 11.21875 19.5 14.3125 15.59375 14.3125 
C 11.703125 14.3125 8.40625 11.21875 8.40625 7.15625 
C 8.40625 3.078125 11.703125 0 15.59375 0 
C 19.5 0 22.796875 3.078125 22.796875 7.15625 
z
" id="CMBX12-46"/>
      <path d="M 30.59375 -24.390625 
C 30.59375 -24.296875 30.59375 -24.09375 30.296875 -23.796875 
C 25.703125 -19.125 13.40625 -6.359375 13.40625 24.703125 
C 13.40625 55.765625 25.5 68.421875 30.40625 73.390625 
C 30.40625 73.5 30.59375 73.703125 30.59375 74 
C 30.59375 74.296875 30.296875 74.5 29.90625 74.5 
C 28.796875 74.5 20.296875 67.125 15.40625 56.15625 
C 10.40625 45.109375 9 34.359375 9 24.8125 
C 9 17.625 9.703125 5.484375 15.703125 -7.359375 
C 20.5 -17.734375 28.703125 -25 29.90625 -25 
C 30.40625 -25 30.59375 -24.796875 30.59375 -24.390625 
z
" id="CMR17-40"/>
      <path d="M 8.09375 47 
C 6.796875 47 3.90625 47 3.90625 44 
C 3.90625 40.890625 6.59375 40.890625 8.59375 40.890625 
L 8.59375 6 
C 6.59375 6 3.90625 6 3.90625 2.90625 
C 3.90625 -0.09375 6.796875 -0.09375 8.09375 -0.09375 
L 26.59375 -0.09375 
C 39.203125 -0.09375 47.703125 10.78125 47.703125 23.15625 
C 47.703125 35.125 39.59375 47 26.59375 47 
z
M 15.5 6 
L 15.5 40.890625 
L 24.703125 40.890625 
C 35.40625 40.890625 40.796875 31.421875 40.796875 23.0625 
C 40.796875 15.171875 35.5 6 24.703125 6 
z
" id="CMTCSC10-100"/>
      <path d="M 17 21 
L 29.40625 21 
C 29.40625 19.234375 29.40625 17 32.90625 17 
C 36.296875 17 36.296875 19.5 36.296875 21.203125 
L 36.296875 27.5 
C 36.296875 29.203125 36.296875 31.703125 32.90625 31.703125 
C 29.40625 31.703125 29.40625 29.140625 29.40625 27.09375 
L 17 27.09375 
L 17 40.890625 
L 40.40625 40.890625 
L 40.40625 37.921875 
C 40.40625 36.25 40.40625 33.78125 43.796875 33.78125 
C 47.296875 33.78125 47.296875 36.15625 47.296875 37.9375 
L 47.296875 42.828125 
C 47.296875 46.09375 46.5 47 43.09375 47 
L 9.09375 47 
C 7.703125 47 4.90625 47 4.90625 44 
C 4.90625 40.890625 7.296875 40.890625 10.09375 40.890625 
L 10.09375 6 
C 7.296875 6 4.90625 6 4.90625 2.90625 
C 4.90625 -0.09375 7.703125 -0.09375 9.09375 -0.09375 
L 45.203125 -0.09375 
C 48.5 -0.09375 49.40625 0.703125 49.40625 4.109375 
L 49.40625 10.203125 
C 49.40625 11.90625 49.40625 14.40625 46 14.40625 
C 42.5 14.40625 42.5 12 42.5 10.203125 
L 42.5 6 
L 17 6 
z
" id="CMTCSC10-101"/>
      <path d="M 17 17 
L 29 17 
C 40.59375 17 47.296875 24.78125 47.296875 31.9375 
C 47.296875 39.515625 40.296875 47 29 47 
L 9.09375 47 
C 7.703125 47 4.90625 47 4.90625 44 
C 4.90625 40.890625 7.296875 40.890625 10.09375 40.890625 
L 10.09375 6 
C 7.296875 6 4.90625 6 4.90625 2.90625 
C 4.90625 -0.09375 7.703125 -0.09375 9.09375 -0.09375 
L 18 -0.09375 
C 19.40625 -0.09375 22.203125 -0.09375 22.203125 2.90625 
C 22.203125 6 19.796875 6 17 6 
z
M 17 40.890625 
L 27.203125 40.890625 
C 36.09375 40.890625 40.40625 36.015625 40.40625 32.0625 
C 40.40625 27.671875 35.703125 23.09375 27.203125 23.09375 
L 17 23.09375 
z
" id="CMTCSC10-112"/>
      <path d="M 20.09375 43.515625 
C 18.5 47 16 47 14.09375 47 
L 9 47 
C 7.59375 47 4.796875 47 4.796875 44 
C 4.796875 40.890625 7.296875 40.890625 9.59375 40.890625 
L 9.59375 6 
C 7.296875 6 4.796875 6 4.796875 2.90625 
C 4.796875 -0.09375 7.59375 -0.09375 9 -0.09375 
L 16.09375 -0.09375 
C 17.5 -0.09375 20.296875 -0.09375 20.296875 2.90625 
C 20.296875 6 17.796875 6 15.5 6 
L 15.5 40.296875 
L 15.59375 40.296875 
L 32.203125 3.390625 
C 33.796875 -0.09375 36.296875 -0.09375 38.296875 -0.09375 
C 41.296875 -0.09375 42.703125 0.203125 42.703125 4.09375 
L 42.703125 40.890625 
C 45 40.890625 47.5 40.890625 47.5 44 
C 47.5 47 44.703125 47 43.296875 47 
L 36.203125 47 
C 34.796875 47 32 47 32 44 
C 32 40.890625 34.5 40.890625 36.796875 40.890625 
L 36.796875 6.59375 
L 36.703125 6.59375 
z
" id="CMTCSC10-110"/>
      <path d="M 29.59375 40.890625 
L 42.09375 40.890625 
L 42.09375 37.890625 
C 42.09375 36.21875 42.09375 33.71875 45.5 33.71875 
C 49 33.71875 49 36.109375 49 37.90625 
L 49 42.796875 
C 49 46.09375 48.203125 47 44.796875 47 
L 7.5 47 
C 4.203125 47 3.296875 46.203125 3.296875 42.796875 
L 3.296875 37.90625 
C 3.296875 36.21875 3.296875 33.71875 6.703125 33.71875 
C 10.203125 33.71875 10.203125 36.109375 10.203125 37.890625 
L 10.203125 40.890625 
L 22.703125 40.890625 
L 22.703125 6 
L 20.09375 6 
C 18.703125 6 15.90625 6 15.90625 3 
C 15.90625 -0.09375 18.59375 -0.09375 20.09375 -0.09375 
L 32.203125 -0.09375 
C 33.59375 -0.09375 36.40625 -0.09375 36.40625 2.90625 
C 36.40625 6 33.703125 6 32.203125 6 
L 29.59375 6 
z
" id="CMTCSC10-116"/>
      <path d="M 26.296875 24.703125 
C 26.296875 31.875 25.59375 44.015625 19.59375 56.859375 
C 14.796875 67.234375 6.59375 74.5 5.40625 74.5 
C 5.09375 74.5 4.703125 74.390625 4.703125 73.890625 
C 4.703125 73.703125 4.796875 73.59375 4.90625 73.390625 
C 9.703125 68.40625 21.90625 55.75 21.90625 24.75 
C 21.90625 -6.359375 9.796875 -19.015625 4.90625 -24.015625 
C 4.796875 -24.203125 4.703125 -24.3125 4.703125 -24.5 
C 4.703125 -25 5.09375 -25 5.40625 -25 
C 6.5 -25 15 -17.625 19.90625 -6.65625 
C 24.90625 4.390625 26.296875 15.140625 26.296875 24.703125 
z
" id="CMR17-41"/>
     </defs>
     <g transform="translate(457.839106 1004.280291)scale(0.24 -0.24)">
      <use transform="scale(0.996264)" xlink:href="#CMBX12-65"/>
      <use transform="translate(84.636395 0)scale(0.996264)" xlink:href="#CMBX12-99"/>
      <use transform="translate(134.449595 0)scale(0.996264)" xlink:href="#CMBX12-99"/>
      <use transform="translate(184.262796 0)scale(0.996264)" xlink:href="#CMBX12-46"/>
      <use transform="translate(255.881706 0)scale(0.996264)" xlink:href="#CMR17-40"/>
      <use transform="translate(291.162474 0)scale(0.996264)" xlink:href="#CMTCSC10-100"/>
      <use transform="translate(343.465909 0)scale(0.996264)" xlink:href="#CMTCSC10-101"/>
      <use transform="translate(395.769344 0)scale(0.996264)" xlink:href="#CMTCSC10-112"/>
      <use transform="translate(448.072779 0)scale(0.996264)" xlink:href="#CMTCSC10-101"/>
      <use transform="translate(500.376214 0)scale(0.996264)" xlink:href="#CMTCSC10-110"/>
      <use transform="translate(552.679649 0)scale(0.996264)" xlink:href="#CMTCSC10-100"/>
      <use transform="translate(604.983083 0)scale(0.996264)" xlink:href="#CMTCSC10-101"/>
      <use transform="translate(657.286518 0)scale(0.996264)" xlink:href="#CMTCSC10-110"/>
      <use transform="translate(709.589953 0)scale(0.996264)" xlink:href="#CMTCSC10-116"/>
      <use transform="translate(761.893388 0)scale(0.996264)" xlink:href="#CMR17-41"/>
     </g>
    </g>
   </g>
   <g id="matplotlib.axis_2">
    <g id="ytick_1">
     <g id="line2d_7">
      <defs>
       <path d="M 0 0 
L -3.5 0 
" id="m1cba74990c" style="stroke:#000000;stroke-width:0.8;"/>
      </defs>
      <g>
       <use style="stroke:#000000;stroke-width:0.8;" x="135" xlink:href="#m1cba74990c" y="840.850936"/>
      </g>
     </g>
     <g id="text_8">
      <!-- $0.70$ -->
      <g transform="translate(100.252491 846.38573)scale(0.16 -0.16)">
       <use transform="scale(0.996264)" xlink:href="#CMR17-48"/>
       <use transform="translate(45.690477 0)scale(0.996264)" xlink:href="#CMMI12-58"/>
       <use transform="translate(72.787654 0)scale(0.996264)" xlink:href="#CMR17-55"/>
       <use transform="translate(118.478131 0)scale(0.996264)" xlink:href="#CMR17-48"/>
      </g>
     </g>
    </g>
    <g id="ytick_2">
     <g id="line2d_8">
      <g>
       <use style="stroke:#000000;stroke-width:0.8;" x="135" xlink:href="#m1cba74990c" y="719.337203"/>
      </g>
     </g>
     <g id="text_9">
      <!-- $0.75$ -->
      <g transform="translate(100.252491 724.871997)scale(0.16 -0.16)">
       <use transform="scale(0.996264)" xlink:href="#CMR17-48"/>
       <use transform="translate(45.690477 0)scale(0.996264)" xlink:href="#CMMI12-58"/>
       <use transform="translate(72.787654 0)scale(0.996264)" xlink:href="#CMR17-55"/>
       <use transform="translate(118.478131 0)scale(0.996264)" xlink:href="#CMR17-53"/>
      </g>
     </g>
    </g>
    <g id="ytick_3">
     <g id="line2d_9">
      <g>
       <use style="stroke:#000000;stroke-width:0.8;" x="135" xlink:href="#m1cba74990c" y="597.82347"/>
      </g>
     </g>
     <g id="text_10">
      <!-- $0.80$ -->
      <g transform="translate(100.252491 603.358264)scale(0.16 -0.16)">
       <use transform="scale(0.996264)" xlink:href="#CMR17-48"/>
       <use transform="translate(45.690477 0)scale(0.996264)" xlink:href="#CMMI12-58"/>
       <use transform="translate(72.787654 0)scale(0.996264)" xlink:href="#CMR17-56"/>
       <use transform="translate(118.478131 0)scale(0.996264)" xlink:href="#CMR17-48"/>
      </g>
     </g>
    </g>
    <g id="ytick_4">
     <g id="line2d_10">
      <g>
       <use style="stroke:#000000;stroke-width:0.8;" x="135" xlink:href="#m1cba74990c" y="476.309737"/>
      </g>
     </g>
     <g id="text_11">
      <!-- $0.85$ -->
      <g transform="translate(100.252491 481.844531)scale(0.16 -0.16)">
       <use transform="scale(0.996264)" xlink:href="#CMR17-48"/>
       <use transform="translate(45.690477 0)scale(0.996264)" xlink:href="#CMMI12-58"/>
       <use transform="translate(72.787654 0)scale(0.996264)" xlink:href="#CMR17-56"/>
       <use transform="translate(118.478131 0)scale(0.996264)" xlink:href="#CMR17-53"/>
      </g>
     </g>
    </g>
    <g id="ytick_5">
     <g id="line2d_11">
      <g>
       <use style="stroke:#000000;stroke-width:0.8;" x="135" xlink:href="#m1cba74990c" y="354.796004"/>
      </g>
     </g>
     <g id="text_12">
      <!-- $0.90$ -->
      <g transform="translate(100.252491 360.330798)scale(0.16 -0.16)">
       <use transform="scale(0.996264)" xlink:href="#CMR17-48"/>
       <use transform="translate(45.690477 0)scale(0.996264)" xlink:href="#CMMI12-58"/>
       <use transform="translate(72.787654 0)scale(0.996264)" xlink:href="#CMR17-57"/>
       <use transform="translate(118.478131 0)scale(0.996264)" xlink:href="#CMR17-48"/>
      </g>
     </g>
    </g>
    <g id="ytick_6">
     <g id="line2d_12">
      <g>
       <use style="stroke:#000000;stroke-width:0.8;" x="135" xlink:href="#m1cba74990c" y="233.282272"/>
      </g>
     </g>
     <g id="text_13">
      <!-- $0.95$ -->
      <g transform="translate(100.252491 238.817066)scale(0.16 -0.16)">
       <use transform="scale(0.996264)" xlink:href="#CMR17-48"/>
       <use transform="translate(45.690477 0)scale(0.996264)" xlink:href="#CMMI12-58"/>
       <use transform="translate(72.787654 0)scale(0.996264)" xlink:href="#CMR17-57"/>
       <use transform="translate(118.478131 0)scale(0.996264)" xlink:href="#CMR17-53"/>
      </g>
     </g>
    </g>
    <g id="text_14">
     <!-- \textbf{Acc.} (\texttt{\textsc{independent}}) -->
     <defs>
      <path d="M 29.59375 40.890625 
L 36.40625 40.890625 
C 37.703125 40.890625 40.59375 40.890625 40.59375 43.890625 
C 40.59375 47 37.796875 47 36.40625 47 
L 15.90625 47 
C 14.5 47 11.703125 47 11.703125 43.890625 
C 11.703125 40.890625 14.59375 40.890625 15.90625 40.890625 
L 22.703125 40.890625 
L 22.703125 6 
L 15.90625 6 
C 14.5 6 11.703125 6 11.703125 2.90625 
C 11.703125 -0.09375 14.59375 -0.09375 15.90625 -0.09375 
L 36.40625 -0.09375 
C 37.703125 -0.09375 40.59375 -0.09375 40.59375 2.90625 
C 40.59375 6 37.796875 6 36.40625 6 
L 29.59375 6 
z
" id="CMTCSC10-105"/>
     </defs>
     <g transform="translate(90.294912 653.613721)rotate(-90)scale(0.24 -0.24)">
      <use transform="scale(0.996264)" xlink:href="#CMBX12-65"/>
      <use transform="translate(84.636395 0)scale(0.996264)" xlink:href="#CMBX12-99"/>
      <use transform="translate(134.449595 0)scale(0.996264)" xlink:href="#CMBX12-99"/>
      <use transform="translate(184.262796 0)scale(0.996264)" xlink:href="#CMBX12-46"/>
      <use transform="translate(255.881706 0)scale(0.996264)" xlink:href="#CMR17-40"/>
      <use transform="translate(291.162474 0)scale(0.996264)" xlink:href="#CMTCSC10-105"/>
      <use transform="translate(343.465909 0)scale(0.996264)" xlink:href="#CMTCSC10-110"/>
      <use transform="translate(395.769344 0)scale(0.996264)" xlink:href="#CMTCSC10-100"/>
      <use transform="translate(448.072779 0)scale(0.996264)" xlink:href="#CMTCSC10-101"/>
      <use transform="translate(500.376214 0)scale(0.996264)" xlink:href="#CMTCSC10-112"/>
      <use transform="translate(552.679649 0)scale(0.996264)" xlink:href="#CMTCSC10-101"/>
      <use transform="translate(604.983083 0)scale(0.996264)" xlink:href="#CMTCSC10-110"/>
      <use transform="translate(657.286518 0)scale(0.996264)" xlink:href="#CMTCSC10-100"/>
      <use transform="translate(709.589953 0)scale(0.996264)" xlink:href="#CMTCSC10-101"/>
      <use transform="translate(761.893388 0)scale(0.996264)" xlink:href="#CMTCSC10-110"/>
      <use transform="translate(814.196823 0)scale(0.996264)" xlink:href="#CMTCSC10-116"/>
      <use transform="translate(866.500258 0)scale(0.996264)" xlink:href="#CMR17-41"/>
     </g>
    </g>
   </g>
   <g id="line2d_13">
    <path clip-path="url(#p2214718fe7)" d="M 135 961.2 
L 143.454545 952.8 
L 151.909091 944.4 
L 160.363636 936 
L 168.818182 927.6 
L 177.272727 919.2 
L 185.727273 910.8 
L 194.181818 902.4 
L 202.636364 894 
L 211.090909 885.6 
L 219.545455 877.2 
L 228 868.8 
L 236.454545 860.4 
L 244.909091 852 
L 253.363636 843.6 
L 261.818182 835.2 
L 270.272727 826.8 
L 278.727273 818.4 
L 287.181818 810 
L 295.636364 801.6 
L 304.090909 793.2 
L 312.545455 784.8 
L 321 776.4 
L 329.454545 768 
L 337.909091 759.6 
L 346.363636 751.2 
L 354.818182 742.8 
L 363.272727 734.4 
L 371.727273 726 
L 380.181818 717.6 
L 388.636364 709.2 
L 397.090909 700.8 
L 405.545455 692.4 
L 414 684 
L 422.454545 675.6 
L 430.909091 667.2 
L 439.363636 658.8 
L 447.818182 650.4 
L 456.272727 642 
L 464.727273 633.6 
L 473.181818 625.2 
L 481.636364 616.8 
L 490.090909 608.4 
L 498.545455 600 
L 507 591.6 
L 515.454545 583.2 
L 523.909091 574.8 
L 532.363636 566.4 
L 540.818182 558 
L 549.272727 549.6 
L 557.727273 541.2 
L 566.181818 532.8 
L 574.636364 524.4 
L 583.090909 516 
L 591.545455 507.6 
L 600 499.2 
L 608.454545 490.8 
L 616.909091 482.4 
L 625.363636 474 
L 633.818182 465.6 
L 642.272727 457.2 
L 650.727273 448.8 
L 659.181818 440.4 
L 667.636364 432 
L 676.090909 423.6 
L 684.545455 415.2 
L 693 406.8 
L 701.454545 398.4 
L 709.909091 390 
L 718.363636 381.6 
L 726.818182 373.2 
L 735.272727 364.8 
L 743.727273 356.4 
L 752.181818 348 
L 760.636364 339.6 
L 769.090909 331.2 
L 777.545455 322.8 
L 786 314.4 
L 794.454545 306 
L 802.909091 297.6 
L 811.363636 289.2 
L 819.818182 280.8 
L 828.272727 272.4 
L 836.727273 264 
L 845.181818 255.6 
L 853.636364 247.2 
L 862.090909 238.8 
L 870.545455 230.4 
L 879 222 
L 887.454545 213.6 
L 895.909091 205.2 
L 904.363636 196.8 
L 912.818182 188.4 
L 921.272727 180 
L 929.727273 171.6 
L 938.181818 163.2 
L 946.636364 154.8 
L 955.090909 146.4 
L 963.545455 138 
L 972 129.6 
" style="fill:none;stroke:#000000;stroke-dasharray:7.5,7.5;stroke-dashoffset:0;stroke-width:1.5;"/>
   </g>
   <g id="patch_3">
    <path d="M 135 961.2 
L 135 129.6 
" style="fill:none;stroke:#000000;stroke-linecap:square;stroke-linejoin:miter;stroke-width:0.8;"/>
   </g>
   <g id="patch_4">
    <path d="M 972 961.2 
L 972 129.6 
" style="fill:none;stroke:#000000;stroke-linecap:square;stroke-linejoin:miter;stroke-width:0.8;"/>
   </g>
   <g id="patch_5">
    <path d="M 135 961.2 
L 972 961.2 
" style="fill:none;stroke:#000000;stroke-linecap:square;stroke-linejoin:miter;stroke-width:0.8;"/>
   </g>
   <g id="patch_6">
    <path d="M 135 129.6 
L 972 129.6 
" style="fill:none;stroke:#000000;stroke-linecap:square;stroke-linejoin:miter;stroke-width:0.8;"/>
   </g>
   <g id="text_15">
    <!-- SonyAIBORobotSurface2 -->
    <defs>
     <path d="M 43.796875 67.03125 
C 43.796875 68.8125 43.703125 68.921875 43.09375 68.921875 
C 42.5 68.921875 42.296875 68.515625 41.90625 67.625 
L 38.90625 61.046875 
C 35.09375 66.515625 29.296875 69 23 69 
C 12.796875 69 4.59375 60.953125 4.59375 50.828125 
C 4.59375 47.75 5.296875 43.375 8.703125 39.21875 
C 12.40625 34.65625 15.90625 33.859375 23.90625 31.765625 
C 26.90625 30.96875 31.90625 29.671875 32.90625 29.28125 
C 38.59375 26.90625 41.59375 20.953125 41.59375 15.390625 
C 41.59375 8.234375 36.5 0.59375 27.796875 0.59375 
C 17.09375 0.59375 7.09375 6.546875 6.40625 20.484375 
C 6.296875 22.078125 6.203125 22.171875 5.5 22.171875 
C 4.703125 22.171875 4.59375 22.078125 4.59375 20.078125 
L 4.59375 -0.015625 
C 4.59375 -1.796875 4.703125 -1.90625 5.296875 -1.90625 
C 6 -1.90625 6.203125 -1.40625 7.59375 1.6875 
C 7.703125 1.984375 7.703125 2.1875 9.59375 5.953125 
C 14.59375 -0.609375 23 -2 27.796875 -2 
C 38.703125 -2 46.40625 7.046875 46.40625 17.5625 
C 46.40625 22.71875 44.5 26.6875 43.40625 28.484375 
C 39.203125 34.84375 34.703125 36.03125 29.90625 37.21875 
C 29.203125 37.53125 29 37.53125 23.40625 38.90625 
C 18 40.296875 15.703125 41 13.203125 43.6875 
C 10.40625 46.75 9.40625 49.9375 9.40625 53.109375 
C 9.40625 59.5625 14.59375 66.609375 23.09375 66.609375 
C 33.703125 66.609375 40.296875 59.15625 41.796875 46.765625 
C 42.09375 44.96875 42.203125 44.875 42.90625 44.875 
C 43.796875 44.875 43.796875 45.171875 43.796875 46.859375 
z
" id="CMR17-83"/>
     <path d="M 43.09375 21.1875 
C 43.09375 34 33.796875 44 22.90625 44 
C 12 44 2.703125 34 2.703125 21.1875 
C 2.703125 8.609375 12 -1 22.90625 -1 
C 33.796875 -1 43.09375 8.609375 43.09375 21.1875 
z
M 22.90625 0.796875 
C 18.203125 0.796875 14.203125 3.59375 11.90625 7.5 
C 9.40625 11.984375 9.09375 17.59375 9.09375 22 
C 9.09375 26.203125 9.296875 31.40625 11.90625 35.90625 
C 13.90625 39.203125 17.796875 42.40625 22.90625 42.40625 
C 27.40625 42.40625 31.203125 39.90625 33.59375 36.40625 
C 36.703125 31.703125 36.703125 25.109375 36.703125 22 
C 36.703125 18.09375 36.5 12.109375 33.796875 7.296875 
C 31 2.703125 26.703125 0.796875 22.90625 0.796875 
z
" id="CMR17-111"/>
     <path d="M 41.5 30.203125 
C 41.5 35.296875 40.5 43.59375 28.703125 43.59375 
C 20.796875 43.59375 16.703125 37.5 15.203125 33.5 
L 15.09375 33.5 
L 15.09375 43.59375 
L 3.296875 42.5 
L 3.296875 39.90625 
C 9.203125 39.90625 10.09375 39.296875 10.09375 34.5 
L 10.09375 6.6875 
C 10.09375 2.875 9.703125 2.390625 3.296875 2.390625 
L 3.296875 -0.203125 
C 5.703125 0 10.09375 0 12.703125 0 
C 15.296875 0 19.796875 0 22.203125 -0.203125 
L 22.203125 2.390625 
C 15.796875 2.390625 15.40625 2.78125 15.40625 6.6875 
L 15.40625 25.90625 
C 15.40625 35.109375 21 42 28 42 
C 35.40625 42 36.203125 35.40625 36.203125 30.59375 
L 36.203125 6.6875 
C 36.203125 2.875 35.796875 2.390625 29.40625 2.390625 
L 29.40625 -0.203125 
C 31.796875 0 36.203125 0 38.796875 0 
C 41.40625 0 45.90625 0 48.296875 -0.203125 
L 48.296875 2.390625 
C 41.90625 2.390625 41.5 2.78125 41.5 6.6875 
z
" id="CMR17-110"/>
     <path d="M 39 34.328125 
C 41.5 40.40625 46 40.40625 47.40625 40.40625 
L 47.40625 43 
C 45.5 43 43 43 41.09375 43 
C 39 43 35.703125 43 33.703125 43.09375 
L 33.703125 40.5 
C 37.5 40.203125 37.59375 37.40625 37.59375 36.609375 
C 37.59375 35.625 37.40625 35.125 36.90625 33.921875 
L 26 7.015625 
L 14.09375 36.03125 
C 13.59375 37.21875 13.59375 37.90625 13.59375 38.015625 
C 13.59375 40.203125 15.90625 40.40625 18.296875 40.40625 
L 18.296875 43.09375 
C 15.90625 43 11.59375 43 9.09375 43 
C 6.40625 43 3.203125 43 1 43.09375 
L 1 40.40625 
C 6.40625 40.40625 7 39.90625 8.296875 36.71875 
L 23.203125 0.234375 
C 18.703125 -11.53125 16.09375 -18.40625 9.796875 -18.40625 
C 8.703125 -18.40625 6.203125 -18.109375 4.40625 -16.3125 
C 6.703125 -16.109375 7.703125 -14.71875 7.703125 -13.015625 
C 7.703125 -11.328125 6.5 -9.828125 4.5 -9.828125 
C 2.296875 -9.828125 1.203125 -11.328125 1.203125 -13.125 
C 1.203125 -17.109375 5.296875 -20 9.796875 -20 
C 15.59375 -20 19.203125 -14.40625 21.203125 -9.4375 
z
" id="CMR17-121"/>
     <path d="M 36.296875 68.40625 
C 35.796875 69.703125 35.59375 70 34.59375 70 
C 33.59375 70 33.40625 69.703125 32.90625 68.40625 
L 11.703125 8.84375 
C 9.796875 3.484375 5.796875 2.390625 2.296875 2.390625 
L 2.296875 -0.203125 
C 4.09375 0 8.09375 0 10 0 
C 12.5 0 16.5 0 18.90625 -0.203125 
L 18.90625 2.390625 
C 14.203125 2.390625 13.5 5.640625 13.5 6.859375 
C 13.5 7.765625 13.703125 8.28125 13.90625 8.890625 
L 19.203125 24 
L 45.40625 24 
L 51.40625 6.90625 
C 51.90625 5.703125 51.90625 5.5 51.90625 5.109375 
C 51.90625 2.390625 47.59375 2.390625 45.703125 2.390625 
L 45.703125 0 
C 48.59375 0 53.796875 0 56.90625 0 
C 59.5 0 64.5 0 66.90625 -0.203125 
L 66.90625 2.390625 
C 61.59375 2.390625 59.796875 2.390625 58.5 6.046875 
z
M 32.296875 60.828125 
L 44.5 26.59375 
L 20.09375 26.59375 
z
" id="CMR17-65"/>
     <path d="M 19.703125 61.015625 
C 19.703125 65.5 20.90625 65.5 28.09375 65.5 
L 28.09375 68 
C 24.90625 68 19.796875 68 16.40625 68 
C 13 68 7.90625 68 4.703125 68 
L 4.703125 65.5 
C 11.90625 65.5 13.09375 65.5 13.09375 61.015625 
L 13.09375 6.984375 
C 13.09375 2.5 11.90625 2.5 4.703125 2.5 
L 4.703125 0 
C 7.90625 0 13 0 16.40625 0 
C 19.796875 0 24.90625 0 28.09375 0 
L 28.09375 2.5 
C 20.90625 2.5 19.703125 2.5 19.703125 6.984375 
z
" id="CMR17-73"/>
     <path d="M 5.203125 68 
L 5.203125 65.40625 
C 12.09375 65.40625 13.203125 65.40625 13.203125 60.9375 
L 13.203125 7.0625 
C 13.203125 2.59375 12.09375 2.59375 5.203125 2.59375 
L 5.203125 0 
L 39.59375 0 
C 52.40625 0 60.703125 9.109375 60.703125 18.1875 
C 60.703125 27.203125 52.5 34.890625 41.796875 34.890625 
C 51.40625 36.8125 58.09375 43.296875 58.09375 51 
C 58.09375 59.40625 49.90625 68 37 68 
z
M 19.5 36 
L 19.5 61.515625 
C 19.5 64.921875 19.703125 65.40625 23.703125 65.40625 
L 36.5 65.40625 
C 46.40625 65.40625 50.796875 57.40625 50.796875 51.203125 
C 50.796875 43.609375 44.703125 36 33.90625 36 
z
M 23.703125 2.59375 
C 19.703125 2.59375 19.5 3.078125 19.5 6.453125 
L 19.5 34.40625 
L 38 34.40625 
C 48.296875 34.40625 53.296875 25.390625 53.296875 18.15625 
C 53.296875 10.921875 47.59375 2.59375 36.703125 2.59375 
z
" id="CMR17-66"/>
     <path d="M 67.296875 33.359375 
C 67.296875 53.703125 52.59375 69 36 69 
C 19 69 4.59375 53.5 4.59375 33.359375 
C 4.59375 13.203125 19.203125 -2 35.90625 -2 
C 53 -2 67.296875 13.5 67.296875 33.359375 
z
M 36 -0.203125 
C 24.59375 -0.203125 12.203125 11.109375 12.203125 34.640625 
C 12.203125 58.0625 25.796875 67.203125 35.90625 67.203125 
C 46.5 67.203125 59.703125 57.78125 59.703125 34.640625 
C 59.703125 10.71875 47 -0.203125 36 -0.203125 
z
" id="CMR17-79"/>
     <path d="M 39.203125 33.53125 
C 48.703125 35.4375 56.703125 41.8125 56.703125 49.78125 
C 56.703125 59.140625 46.09375 67.59375 32.09375 67.59375 
L 5.203125 67.59375 
L 5.203125 65 
C 12.09375 65 13.203125 65 13.203125 60.515625 
L 13.203125 6.484375 
C 13.203125 2 12.09375 2 5.203125 2 
L 5.203125 -0.40625 
C 8.09375 -0.40625 13.296875 -0.40625 16.40625 -0.40625 
C 19.5 -0.40625 24.703125 -0.40625 27.59375 -0.40625 
L 27.59375 2 
C 20.703125 2 19.59375 2 19.59375 6.515625 
L 19.59375 33 
L 31.296875 33 
C 37 33 40.203125 30.6875 41.59375 29.390625 
C 45.59375 25.5 45.59375 22.796875 45.59375 16 
C 45.59375 9.296875 45.59375 5.890625 48.59375 2.5 
C 52.40625 -1.59375 57.5 -2 59.703125 -2 
C 67.09375 -2 68.203125 6.1875 68.203125 7.859375 
C 68.203125 8.4375 68.203125 9.140625 67.296875 9.140625 
C 66.5 9.140625 66.40625 8.546875 66.40625 8.15625 
C 65.90625 1.75 63 -0.40625 59.90625 -0.40625 
C 54.40625 -0.40625 53.796875 5.859375 53.203125 11.9375 
C 52.90625 14.03125 52.703125 15.515625 52.5 17.703125 
C 51.90625 22.6875 51.09375 29.953125 39.203125 33.53125 
z
M 31 34.59375 
L 19.59375 34.59375 
L 19.59375 61.140625 
C 19.59375 64.515625 19.796875 65 23.796875 65 
L 31.09375 65 
C 39.40625 65 49.09375 62.140625 49.09375 49.84375 
C 49.09375 37.0625 38.5 34.59375 31 34.59375 
z
" id="CMR17-82"/>
     <path d="M 15 68.6875 
L 3.09375 67.59375 
L 3.09375 65 
C 9 65 9.90625 64.40625 9.90625 59.640625 
L 9.90625 -0.203125 
L 11.703125 -0.203125 
L 14.59375 6.890625 
C 17.5 2.203125 21.796875 -1 27.59375 -1 
C 37.59375 -1 47.703125 7.8125 47.703125 21.40625 
C 47.703125 34.1875 38.703125 43.59375 28.59375 43.59375 
C 22.40625 43.59375 18 40.296875 15 36.40625 
z
M 15.203125 31.3125 
C 15.203125 33.09375 15.203125 33.40625 16.59375 35.5 
C 20.5 41.515625 26.09375 42 28 42 
C 31 42 41.296875 40.390625 41.296875 21.5 
C 41.296875 1.6875 29.5 0.59375 27.09375 0.59375 
C 24 0.59375 19.5 1.78125 16.296875 7.59375 
C 15.203125 9.5 15.203125 9.703125 15.203125 11.484375 
z
" id="CMR17-98"/>
     <path d="M 15.09375 40 
L 29.09375 40 
L 29.09375 42.578125 
L 15.09375 42.578125 
L 15.09375 61 
L 13.296875 61 
C 13.09375 50.703125 9.59375 41.6875 1.09375 41.6875 
L 1.09375 40 
L 9.796875 40 
L 9.796875 12.046875 
C 9.796875 10.15625 9.796875 -1 21.40625 -1 
C 27.296875 -1 30.703125 4.78125 30.703125 12.140625 
L 30.703125 17.8125 
L 28.90625 17.8125 
L 28.90625 12.234375 
C 28.90625 5.375 26.203125 0.796875 22 0.796875 
C 19.09375 0.796875 15.09375 2.78125 15.09375 11.84375 
z
" id="CMR17-116"/>
     <path d="M 29.40625 42.078125 
L 29.40625 39.5 
C 35.296875 39.5 36.203125 38.890625 36.203125 34.15625 
L 36.203125 16.125 
C 36.203125 7.8125 31.703125 0.59375 24.296875 0.59375 
C 16.09375 0.59375 15.40625 5.4375 15.40625 10.59375 
L 15.40625 43.171875 
L 3.296875 42.078125 
L 3.296875 39.5 
C 7.296875 39.5 10 39.5 10.09375 35.53125 
L 10.09375 16.53125 
C 10.09375 9.890625 10.09375 5.640625 12.703125 2.859375 
C 14 1.578125 16.5 -1 23.703125 -1 
C 32.203125 -1 35.5 5.890625 36.296875 7.90625 
L 36.40625 7.90625 
L 36.40625 -0.984375 
L 48.296875 -0.984375 
L 48.296875 2 
C 42.40625 2 41.5 2.59375 41.5 7.390625 
L 41.5 43.171875 
z
" id="CMR17-117"/>
     <path d="M 15 23.390625 
C 15 33 19.09375 42 26.59375 42 
C 27.296875 42 28 41.90625 28.703125 41.59375 
C 28.703125 41.59375 26.5 40.890625 26.5 38.3125 
C 26.5 35.90625 28.40625 34.90625 29.90625 34.90625 
C 31.09375 34.90625 33.296875 35.609375 33.296875 38.40625 
C 33.296875 41.609375 30.09375 43.59375 26.703125 43.59375 
C 19.09375 43.59375 15.796875 36.203125 14.796875 32.703125 
L 14.703125 32.703125 
L 14.703125 43.59375 
L 3.09375 42.5 
L 3.09375 39.90625 
C 9 39.90625 9.90625 39.296875 9.90625 34.5 
L 9.90625 6.6875 
C 9.90625 2.875 9.5 2.390625 3.09375 2.390625 
L 3.09375 -0.203125 
C 5.5 0 10.09375 0 12.703125 0 
C 15.59375 0 20.703125 0 23.40625 -0.203125 
L 23.40625 2.390625 
C 16.203125 2.390625 15 2.390625 15 6.875 
z
" id="CMR17-114"/>
     <path d="M 15.296875 40 
L 26.703125 40 
L 26.703125 42.578125 
L 15.09375 42.578125 
L 15.09375 54.59375 
C 15.09375 62.84375 19.296875 68 23.59375 68 
C 24.90625 68 26.40625 67.609375 27.40625 66.90625 
C 26.59375 66.703125 24.5 66.015625 24.5 63.546875 
C 24.5 60.953125 26.5 60.15625 27.90625 60.15625 
C 29.296875 60.15625 31.296875 60.953125 31.296875 63.546875 
C 31.296875 67.3125 27.703125 69.59375 23.703125 69.59375 
C 18 69.59375 10.203125 64.9375 10.203125 54.390625 
L 10.203125 42.578125 
L 2.203125 42.578125 
L 2.203125 40 
L 10.203125 40 
L 10.203125 6.671875 
C 10.203125 2.875 9.796875 2.390625 3.40625 2.390625 
L 3.40625 -0.203125 
C 5.796875 0 10.40625 0 13 0 
C 15.90625 0 21 0 23.703125 -0.203125 
L 23.703125 2.390625 
C 16.5 2.390625 15.296875 2.390625 15.296875 6.859375 
z
" id="CMR17-102"/>
     <path d="M 36 25.828125 
C 36 32.375 36 35.84375 31.796875 39.734375 
C 28.09375 43 23.796875 44 20.40625 44 
C 12.5 44 6.796875 37.609375 6.796875 30.796875 
C 6.796875 27 9.796875 27 10.40625 27 
C 11.703125 27 14 27.78125 14 30.53125 
C 14 33 12.09375 34.078125 10.40625 34.078125 
C 10 34.078125 9.5 33.96875 9.203125 33.875 
C 11.296875 40.5 16.703125 42.40625 20.203125 42.40625 
C 25.203125 42.40625 30.703125 37.953125 30.703125 29.453125 
L 30.703125 25 
C 24.796875 25 17.703125 24.203125 12.09375 21.203125 
C 5.796875 17.703125 4 12.703125 4 8.90625 
C 4 1.203125 13 -1 18.296875 -1 
C 23.796875 -1 28.90625 2.171875 31.09375 7.984375 
C 31.296875 3.640625 34.09375 -0.28125 38.5 -0.28125 
C 40.59375 -0.28125 45.90625 1.09375 45.90625 8.859375 
L 45.90625 14.375 
L 44.09375 14.375 
L 44.09375 8.78125 
C 44.09375 2.78125 41.40625 2 40.09375 2 
C 36 2 36 7.15625 36 11.53125 
z
M 30.703125 13.59375 
C 30.703125 4.953125 24.5 0.59375 19 0.59375 
C 14 0.59375 10.09375 4.296875 10.09375 8.90625 
C 10.09375 11.890625 11.40625 17.1875 17.203125 20.390625 
C 22 23.09375 27.5 23.5 30.703125 23.5 
z
" id="CMR17-97"/>
     <path d="M 34.90625 35 
C 33 35 30.203125 35 30.203125 31.515625 
C 30.203125 28.71875 32.5 27.921875 33.796875 27.921875 
C 34.5 27.921875 37.40625 28.234375 37.40625 31.625 
C 37.40625 38.546875 30.59375 43.796875 22.90625 43.796875 
C 12.296875 43.796875 3.296875 34.03125 3.296875 21.296875 
C 3.296875 8.0625 12.703125 -1 22.90625 -1 
C 35.296875 -1 38.40625 10.578125 38.40625 11.6875 
C 38.40625 12.09375 38.296875 12.390625 37.59375 12.390625 
C 36.90625 12.390625 36.796875 12.296875 36.40625 10.984375 
C 33.796875 2.8125 28.09375 0.796875 23.796875 0.796875 
C 17.40625 0.796875 9.703125 6.671875 9.703125 21.390625 
C 9.703125 36.53125 17.09375 42 23 42 
C 26.90625 42 32.703125 40.203125 34.90625 35 
z
" id="CMR17-99"/>
     <path d="M 38.09375 23 
C 38.5 23.40625 38.5 23.609375 38.5 24.625 
C 38.5 34.96875 33.09375 44 21.703125 44 
C 11.09375 44 2.703125 33.890625 2.703125 21.609375 
C 2.703125 8.609375 12.203125 -1 22.796875 -1 
C 34 -1 38.40625 9.484375 38.40625 11.5625 
C 38.40625 12.25 37.796875 12.25 37.59375 12.25 
C 36.90625 12.25 36.796875 12.046875 36.40625 10.875 
C 34.203125 4.140625 28.703125 0.796875 23.5 0.796875 
C 19.203125 0.796875 14.90625 3.171875 12.203125 7.5 
C 9.09375 12.546875 9.09375 18.375 9.09375 23 
z
M 9.203125 24.5 
C 9.90625 39.140625 17.59375 42.40625 21.59375 42.40625 
C 28.40625 42.40625 33 35.890625 33.09375 24.5 
z
" id="CMR17-101"/>
     <path d="M 41.703125 15.453125 
L 39.90625 15.453125 
C 38.90625 8.375 38.09375 7.171875 37.703125 6.5625 
C 37.203125 5.765625 30 5.765625 28.59375 5.765625 
L 9.40625 5.765625 
C 13 9.671875 20 16.75 28.5 24.953125 
C 34.59375 30.734375 41.703125 37.53125 41.703125 47.421875 
C 41.703125 59.21875 32.296875 66 21.796875 66 
C 10.796875 66 4.09375 56.3125 4.09375 47.34375 
C 4.09375 43.4375 7 42.9375 8.203125 42.9375 
C 9.203125 42.9375 12.203125 43.546875 12.203125 47.03125 
C 12.203125 50.109375 9.59375 51 8.203125 51 
C 7.59375 51 7 50.90625 6.59375 50.703125 
C 8.5 59.21875 14.296875 63.40625 20.40625 63.40625 
C 29.09375 63.40625 34.796875 56.515625 34.796875 47.421875 
C 34.796875 38.734375 29.703125 31.25 24 24.75 
L 4.09375 2.28125 
L 4.09375 0 
L 39.296875 0 
z
" id="CMR17-50"/>
    </defs>
    <g style="opacity:0.8;" transform="translate(545.909864 550.391037)scale(0.2 -0.2)">
     <use transform="scale(0.996264)" xlink:href="#CMR17-83"/>
     <use transform="translate(50.89537 0)scale(0.996264)" xlink:href="#CMR17-111"/>
     <use transform="translate(96.585847 0)scale(0.996264)" xlink:href="#CMR17-110"/>
     <use transform="translate(144.878763 0)scale(0.996264)" xlink:href="#CMR17-121"/>
     <use transform="translate(193.171679 0)scale(0.996264)" xlink:href="#CMR17-65"/>
     <use transform="translate(262.244108 0)scale(0.996264)" xlink:href="#CMR17-73"/>
     <use transform="translate(294.882518 0)scale(0.996264)" xlink:href="#CMR17-66"/>
     <use transform="translate(360.071272 0)scale(0.996264)" xlink:href="#CMR17-79"/>
     <use transform="translate(431.78606 0)scale(0.996264)" xlink:href="#CMR17-82"/>
     <use transform="translate(499.577162 0)scale(0.996264)" xlink:href="#CMR17-111"/>
     <use transform="translate(545.26764 0)scale(0.996264)" xlink:href="#CMR17-98"/>
     <use transform="translate(598.765448 0)scale(0.996264)" xlink:href="#CMR17-111"/>
     <use transform="translate(644.455925 0)scale(0.996264)" xlink:href="#CMR17-116"/>
     <use transform="translate(679.736693 0)scale(0.996264)" xlink:href="#CMR17-83"/>
     <use transform="translate(730.632063 0)scale(0.996264)" xlink:href="#CMR17-117"/>
     <use transform="translate(781.527433 0)scale(0.996264)" xlink:href="#CMR17-114"/>
     <use transform="translate(816.8082 0)scale(0.996264)" xlink:href="#CMR17-102"/>
     <use transform="translate(844.281713 0)scale(0.996264)" xlink:href="#CMR17-97"/>
     <use transform="translate(889.97219 0)scale(0.996264)" xlink:href="#CMR17-99"/>
     <use transform="translate(930.45785 0)scale(0.996264)" xlink:href="#CMR17-101"/>
     <use transform="translate(970.943511 0)scale(0.996264)" xlink:href="#CMR17-50"/>
    </g>
   </g>
   <g id="text_16">
    <!-- MoteStrain -->
    <defs>
     <path d="M 20.90625 66 
C 20.296875 67.5 20.203125 67.5 18.09375 67.5 
L 5.296875 67.5 
L 5.296875 65 
C 12.203125 65 13.296875 65 13.296875 60.546875 
L 13.296875 9.53125 
C 13.296875 7.046875 13.296875 2.390625 5.296875 2.390625 
L 5.296875 -0.203125 
C 7.59375 0 11.796875 0 14.296875 0 
C 16.796875 0 21 0 23.296875 -0.203125 
L 23.296875 2.390625 
C 15.296875 2.390625 15.296875 7.046875 15.296875 9.53125 
L 15.296875 64.609375 
L 15.40625 64.609375 
L 38.90625 1.390625 
C 39.296875 0.390625 39.5 -0.203125 40.296875 -0.203125 
C 41.09375 -0.203125 41.296875 0.390625 41.703125 1.390625 
L 65.40625 65.09375 
L 65.5 65.09375 
L 65.5 6.84375 
C 65.5 2.390625 64.40625 2.390625 57.5 2.390625 
L 57.5 -0.203125 
C 60.203125 0 65.59375 0 68.5 0 
C 71.40625 0 76.90625 0 79.59375 -0.203125 
L 79.59375 2.390625 
C 72.703125 2.390625 71.59375 2.390625 71.59375 6.84375 
L 71.59375 60.546875 
C 71.59375 65 72.703125 65 79.59375 65 
L 79.59375 67.5 
L 66.90625 67.5 
C 64.796875 67.5 64.703125 67.40625 64.09375 65.90625 
L 42.5 7.84375 
z
" id="CMR17-77"/>
     <path d="M 15.5 61.078125 
C 15.5 63.265625 13.703125 65.15625 11.40625 65.15625 
C 9.203125 65.15625 7.296875 63.375 7.296875 61.078125 
C 7.296875 58.890625 9.09375 57 11.40625 57 
C 13.59375 57 15.5 58.796875 15.5 61.078125 
z
M 3.796875 42.28125 
L 3.796875 39.703125 
C 9.40625 39.703125 10.203125 39.09375 10.203125 34.328125 
L 10.203125 6.671875 
C 10.203125 2.875 9.796875 2.390625 3.40625 2.390625 
L 3.40625 -0.203125 
C 5.796875 0 10.09375 0 12.59375 0 
C 15 0 19.09375 0 21.40625 -0.203125 
L 21.40625 2.390625 
C 15.5 2.390625 15.296875 2.984375 15.296875 6.5625 
L 15.296875 43.375 
z
" id="CMR17-105"/>
    </defs>
    <g style="opacity:0.8;" transform="translate(425.322581 839.686267)scale(0.2 -0.2)">
     <use transform="scale(0.996264)" xlink:href="#CMR17-77"/>
     <use transform="translate(84.686941 0)scale(0.996264)" xlink:href="#CMR17-111"/>
     <use transform="translate(130.377418 0)scale(0.996264)" xlink:href="#CMR17-116"/>
     <use transform="translate(165.658185 0)scale(0.996264)" xlink:href="#CMR17-101"/>
     <use transform="translate(206.143846 0)scale(0.996264)" xlink:href="#CMR17-83"/>
     <use transform="translate(257.039216 0)scale(0.996264)" xlink:href="#CMR17-116"/>
     <use transform="translate(292.319984 0)scale(0.996264)" xlink:href="#CMR17-114"/>
     <use transform="translate(327.600751 0)scale(0.996264)" xlink:href="#CMR17-97"/>
     <use transform="translate(373.291228 0)scale(0.996264)" xlink:href="#CMR17-105"/>
     <use transform="translate(398.162287 0)scale(0.996264)" xlink:href="#CMR17-110"/>
    </g>
   </g>
   <g id="text_17">
    <!-- SonyAIBORobotSurface1 -->
    <defs>
     <path d="M 26.59375 63.40625 
C 26.59375 65.5 26.5 65.5 25.09375 65.5 
C 21.203125 61.1875 15.296875 59.796875 9.703125 59.796875 
C 9.40625 59.796875 8.90625 59.796875 8.796875 59.5 
C 8.703125 59.296875 8.703125 59.09375 8.703125 57 
C 11.796875 57 17 57.59375 21 59.984375 
L 21 7.203125 
C 21 3.6875 20.796875 2.5 12.203125 2.5 
L 9.203125 2.5 
L 9.203125 0 
C 14 0 19 0 23.796875 0 
C 28.59375 0 33.59375 0 38.40625 0 
L 38.40625 2.5 
L 35.40625 2.5 
C 26.796875 2.5 26.59375 3.59375 26.59375 7.15625 
z
" id="CMR17-49"/>
    </defs>
    <g style="opacity:0.8;" transform="translate(277.701425 698.107682)scale(0.2 -0.2)">
     <use transform="scale(0.996264)" xlink:href="#CMR17-83"/>
     <use transform="translate(50.89537 0)scale(0.996264)" xlink:href="#CMR17-111"/>
     <use transform="translate(96.585847 0)scale(0.996264)" xlink:href="#CMR17-110"/>
     <use transform="translate(144.878763 0)scale(0.996264)" xlink:href="#CMR17-121"/>
     <use transform="translate(193.171679 0)scale(0.996264)" xlink:href="#CMR17-65"/>
     <use transform="translate(262.244108 0)scale(0.996264)" xlink:href="#CMR17-73"/>
     <use transform="translate(294.882518 0)scale(0.996264)" xlink:href="#CMR17-66"/>
     <use transform="translate(360.071272 0)scale(0.996264)" xlink:href="#CMR17-79"/>
     <use transform="translate(431.78606 0)scale(0.996264)" xlink:href="#CMR17-82"/>
     <use transform="translate(499.577162 0)scale(0.996264)" xlink:href="#CMR17-111"/>
     <use transform="translate(545.26764 0)scale(0.996264)" xlink:href="#CMR17-98"/>
     <use transform="translate(598.765448 0)scale(0.996264)" xlink:href="#CMR17-111"/>
     <use transform="translate(644.455925 0)scale(0.996264)" xlink:href="#CMR17-116"/>
     <use transform="translate(679.736693 0)scale(0.996264)" xlink:href="#CMR17-83"/>
     <use transform="translate(730.632063 0)scale(0.996264)" xlink:href="#CMR17-117"/>
     <use transform="translate(781.527433 0)scale(0.996264)" xlink:href="#CMR17-114"/>
     <use transform="translate(816.8082 0)scale(0.996264)" xlink:href="#CMR17-102"/>
     <use transform="translate(844.281713 0)scale(0.996264)" xlink:href="#CMR17-97"/>
     <use transform="translate(889.97219 0)scale(0.996264)" xlink:href="#CMR17-99"/>
     <use transform="translate(930.45785 0)scale(0.996264)" xlink:href="#CMR17-101"/>
     <use transform="translate(970.943511 0)scale(0.996264)" xlink:href="#CMR17-49"/>
    </g>
   </g>
   <g id="text_18">
    <!-- ItalyPowerDemand -->
    <defs>
     <path d="M 15.296875 68.6875 
L 3.40625 67.59375 
L 3.40625 65 
C 9.296875 65 10.203125 64.40625 10.203125 59.640625 
L 10.203125 6.65625 
C 10.203125 2.875 9.796875 2.390625 3.40625 2.390625 
L 3.40625 -0.203125 
C 5.796875 0 10.203125 0 12.703125 0 
C 15.296875 0 19.703125 0 22.09375 -0.203125 
L 22.09375 2.390625 
C 15.703125 2.390625 15.296875 2.78125 15.296875 6.65625 
z
" id="CMR17-108"/>
     <path d="M 19.796875 31.90625 
L 35.796875 31.90625 
C 48.703125 31.90625 58.09375 40.28125 58.09375 49.75 
C 58.09375 59.234375 48.90625 68 35.796875 68 
L 5.203125 68 
L 5.203125 65.40625 
C 12.09375 65.40625 13.203125 65.40625 13.203125 60.921875 
L 13.203125 6.96875 
C 13.203125 2.5 12.09375 2.5 5.203125 2.5 
L 5.203125 0 
C 8.09375 0 13.40625 0 16.5 0 
C 19.59375 0 24.90625 0 27.796875 0 
L 27.796875 2.5 
C 20.90625 2.5 19.796875 2.5 19.796875 6.96875 
z
M 19.59375 34 
L 19.59375 61.53125 
C 19.59375 64.921875 19.796875 65.40625 23.796875 65.40625 
L 33.90625 65.40625 
C 46.796875 65.40625 50.5 58.03125 50.5 49.75 
C 50.5 40.6875 46.09375 34 33.90625 34 
z
" id="CMR17-80"/>
     <path d="M 58.203125 34.109375 
C 60.203125 40 64.203125 40 65.703125 40 
L 65.703125 42.6875 
C 63.703125 42.6875 61.703125 42.6875 59.703125 42.6875 
C 57.796875 42.6875 53.5 42.6875 51.796875 42.78125 
L 51.796875 40 
C 54.90625 40 56.59375 38.203125 56.59375 35.71875 
C 56.59375 35.015625 56.40625 34.125 56.203125 33.4375 
L 46.796875 6.359375 
L 36.59375 35.546875 
C 36.40625 36.234375 36.09375 37.03125 36.09375 37.421875 
C 36.09375 40 39.5 40 41.09375 40 
L 41.09375 42.78125 
C 38.796875 42.6875 34.59375 42.6875 32.203125 42.6875 
C 29.703125 42.6875 27.09375 42.6875 24.796875 42.78125 
L 24.796875 40 
C 30.296875 40 30.296875 39.796875 32.40625 33.578125 
L 23.203125 7.046875 
L 13.296875 35.640625 
C 12.796875 36.921875 12.796875 37.125 12.796875 37.421875 
C 12.796875 40 16.203125 40 17.796875 40 
L 17.796875 42.78125 
C 15.40625 42.6875 11.203125 42.6875 8.703125 42.6875 
C 6.5 42.6875 3.09375 42.6875 1 42.78125 
L 1 40 
C 5.40625 40 6.5 39.703125 7.59375 36.421875 
L 19.90625 0.765625 
C 20.296875 -0.515625 20.59375 -0.8125 21.40625 -0.8125 
C 22.09375 -0.8125 22.5 -0.609375 23 0.875 
L 33.296875 30.9375 
L 43.703125 0.875 
C 44.203125 -0.609375 44.59375 -0.8125 45.296875 -0.8125 
C 46.09375 -0.8125 46.40625 -0.515625 46.796875 0.78125 
z
" id="CMR17-119"/>
     <path d="M 5.203125 68 
L 5.203125 65.40625 
C 12.09375 65.40625 13.203125 65.40625 13.203125 60.9375 
L 13.203125 7.0625 
C 13.203125 2.59375 12.09375 2.59375 5.203125 2.59375 
L 5.203125 0 
L 37 0 
C 53.09375 0 66 14.734375 66 33.453125 
C 66 52.28125 53.296875 68 37 68 
z
M 23.796875 2.59375 
C 19.796875 2.59375 19.59375 3.078125 19.59375 6.46875 
L 19.59375 61.53125 
C 19.59375 64.921875 19.796875 65.40625 23.796875 65.40625 
L 35 65.40625 
C 43.296875 65.40625 58.59375 60.53125 58.59375 33.453125 
C 58.59375 19.40625 54.5 13.734375 52.59375 11.046875 
C 50.203125 7.96875 44.5 2.59375 35 2.59375 
z
" id="CMR17-68"/>
     <path d="M 67.59375 30.203125 
C 67.59375 35.1875 66.703125 43.59375 54.796875 43.59375 
C 48 43.59375 43.296875 39 41.5 33.609375 
L 41.40625 33.609375 
C 40.203125 41.8125 34.296875 43.59375 28.703125 43.59375 
C 20.796875 43.59375 16.703125 37.5 15.203125 33.5 
L 15.09375 33.5 
L 15.09375 43.59375 
L 3.296875 42.5 
L 3.296875 39.90625 
C 9.203125 39.90625 10.09375 39.296875 10.09375 34.5 
L 10.09375 6.6875 
C 10.09375 2.875 9.703125 2.390625 3.296875 2.390625 
L 3.296875 -0.203125 
C 5.703125 0 10.09375 0 12.703125 0 
C 15.296875 0 19.796875 0 22.203125 -0.203125 
L 22.203125 2.390625 
C 15.796875 2.390625 15.40625 2.78125 15.40625 6.6875 
L 15.40625 25.90625 
C 15.40625 35.109375 21 42 28 42 
C 35.40625 42 36.203125 35.40625 36.203125 30.59375 
L 36.203125 6.6875 
C 36.203125 2.875 35.796875 2.390625 29.40625 2.390625 
L 29.40625 -0.203125 
C 31.796875 0 36.203125 0 38.796875 0 
C 41.40625 0 45.90625 0 48.296875 -0.203125 
L 48.296875 2.390625 
C 41.90625 2.390625 41.5 2.78125 41.5 6.6875 
L 41.5 25.90625 
C 41.5 35.109375 47.09375 42 54.09375 42 
C 61.5 42 62.296875 35.40625 62.296875 30.59375 
L 62.296875 6.6875 
C 62.296875 2.875 61.90625 2.390625 55.5 2.390625 
L 55.5 -0.203125 
C 57.90625 0 62.296875 0 64.90625 0 
C 67.5 0 72 0 74.40625 -0.203125 
L 74.40625 2.390625 
C 68 2.390625 67.59375 2.78125 67.59375 6.6875 
z
" id="CMR17-109"/>
     <path d="M 29.203125 67.59375 
L 29.203125 65 
C 35.09375 65 36 64.40625 36 59.6875 
L 36 36.640625 
C 35.59375 37.140625 31.5 43.59375 23.40625 43.59375 
C 13.203125 43.59375 3.296875 34.5 3.296875 21.3125 
C 3.296875 8.203125 12.59375 -1 22.40625 -1 
C 30.90625 -1 35.296875 5.265625 35.796875 5.9375 
L 35.796875 -0.984375 
L 47.90625 -0.984375 
L 47.90625 2 
C 42 2 41.09375 2.59375 41.09375 7.390625 
L 41.09375 68.6875 
z
M 35.796875 11.796875 
C 35.796875 8.796875 34 6.09375 31.703125 4.09375 
C 28.296875 1.09375 24.90625 0.59375 23 0.59375 
C 20.09375 0.59375 9.703125 2.09375 9.703125 21.1875 
C 9.703125 40.8125 21.296875 42 23.90625 42 
C 28.5 42 32.203125 39.40625 34.5 35.796875 
C 35.796875 33.703125 35.796875 33.40625 35.796875 31.609375 
z
" id="CMR17-100"/>
    </defs>
    <g style="opacity:0.8;" transform="translate(849.697217 265.284431)scale(0.2 -0.2)">
     <use transform="scale(0.996264)" xlink:href="#CMR17-73"/>
     <use transform="translate(32.638409 0)scale(0.996264)" xlink:href="#CMR17-116"/>
     <use transform="translate(67.919177 0)scale(0.996264)" xlink:href="#CMR17-97"/>
     <use transform="translate(113.609654 0)scale(0.996264)" xlink:href="#CMR17-108"/>
     <use transform="translate(138.480713 0)scale(0.996264)" xlink:href="#CMR17-121"/>
     <use transform="translate(186.773628 0)scale(0.996264)" xlink:href="#CMR17-80"/>
     <use transform="translate(246.757475 0)scale(0.996264)" xlink:href="#CMR17-111"/>
     <use transform="translate(289.845498 0)scale(0.996264)" xlink:href="#CMR17-119"/>
     <use transform="translate(353.752925 0)scale(0.996264)" xlink:href="#CMR17-101"/>
     <use transform="translate(394.238585 0)scale(0.996264)" xlink:href="#CMR17-114"/>
     <use transform="translate(429.519353 0)scale(0.996264)" xlink:href="#CMR17-68"/>
     <use transform="translate(499.912909 0)scale(0.996264)" xlink:href="#CMR17-101"/>
     <use transform="translate(540.398569 0)scale(0.996264)" xlink:href="#CMR17-109"/>
     <use transform="translate(617.318159 0)scale(0.996264)" xlink:href="#CMR17-97"/>
     <use transform="translate(663.008636 0)scale(0.996264)" xlink:href="#CMR17-110"/>
     <use transform="translate(713.904006 0)scale(0.996264)" xlink:href="#CMR17-100"/>
    </g>
   </g>
   <g id="text_19">
    <!-- \texttt{\textsc{independent}}\textbf{ is better} -->
    <defs>
     <path d="M 22.296875 61.84375 
C 22.296875 65.921875 19 69 15.09375 69 
C 11 69 7.90625 65.625 7.90625 61.84375 
C 7.90625 58.0625 11 54.6875 15.09375 54.6875 
C 19 54.6875 22.296875 57.765625 22.296875 61.84375 
z
M 4.703125 44 
L 4.703125 39.328125 
C 10.59375 39.328125 11.296875 39.328125 11.296875 35.46875 
L 11.296875 4.0625 
L 4.40625 4.0625 
L 4.40625 -0.203125 
C 6.703125 0 13.59375 0 16.296875 0 
C 19.09375 0 25.5 0 27.90625 -0.203125 
L 27.90625 4.0625 
L 21.703125 4.0625 
L 21.703125 44 
z
" id="CMBX12-105"/>
     <path d="M 37.703125 42.421875 
C 37.703125 44.3125 37.703125 45 36.203125 45 
C 35.59375 45 35.40625 45 33.90625 44.109375 
C 33.5 43.8125 32.40625 43.109375 31.90625 42.8125 
C 29.09375 44.40625 25.40625 45 21.796875 45 
C 18.796875 45 3.796875 45 3.796875 32.125 
C 3.796875 21.703125 16.203125 19.53125 19.296875 19.03125 
C 22 18.546875 25.296875 17.9375 25.703125 17.9375 
C 29.703125 17.046875 33.703125 14.5625 33.703125 10.40625 
C 33.703125 2.78125 24.59375 2.78125 22.5 2.78125 
C 17.40625 2.78125 11.09375 4.359375 8.296875 14 
C 7.703125 15.984375 7.59375 15.984375 5.90625 15.984375 
C 3.796875 15.984375 3.796875 15.6875 3.796875 13.40625 
L 3.796875 2.0625 
C 3.796875 0.1875 3.796875 -0.5 5.296875 -0.5 
C 6 -0.5 6.203125 -0.5 8.203125 1.09375 
L 10.796875 2.984375 
C 15.296875 -0.5 20.703125 -0.5 22.5 -0.5 
C 28 -0.5 40.5 0.6875 40.5 13.875 
C 40.5 18.625 37.90625 21.90625 35.90625 23.6875 
C 31.796875 27.046875 28.40625 27.65625 23 28.640625 
C 16.59375 29.734375 10.59375 30.828125 10.59375 35.578125 
C 10.59375 42.015625 19.5 42.015625 21.59375 42.015625 
C 32.703125 42.015625 33.296875 35.078125 33.5 32.609375 
C 33.59375 31.328125 34.40625 31.328125 35.59375 31.328125 
C 37.703125 31.328125 37.703125 31.625 37.703125 33.90625 
z
" id="CMBX12-115"/>
     <path d="M 20.796875 69 
L 3.5 69 
L 3.5 64.328125 
C 9.703125 64.328125 10.40625 64.328125 10.40625 60.421875 
L 10.40625 0 
L 14.59375 0 
C 16.296875 1.921875 18 3.859375 19.59375 5.875 
C 24.703125 0.59375 30.203125 -0.5 34.203125 -0.5 
C 48 -0.5 58.59375 7.875 58.59375 22.359375 
C 58.59375 36.015625 49.203125 45 35.5 45 
C 29.59375 45 24.90625 43.109375 20.796875 39.921875 
z
M 21.296875 35.125 
C 24.796875 39.921875 30 41.71875 34.203125 41.71875 
C 46.59375 41.71875 46.59375 29.046875 46.59375 22.453125 
C 46.59375 17.953125 46.59375 12.265625 44.203125 8.5625 
C 41.09375 3.765625 36.40625 2.78125 33.203125 2.78125 
C 26.40625 2.78125 22.703125 7.5625 21.296875 9.765625 
z
" id="CMBX12-98"/>
     <path d="M 45.203125 22 
C 47.5 22 48.09375 22 48.09375 24.484375 
C 48.09375 27.46875 47.40625 34.890625 42.796875 39.5625 
C 38.59375 43.71875 33 45 27.203125 45 
C 11.59375 45 3.09375 34.890625 3.09375 22.40625 
C 3.09375 8.515625 13.40625 -0.5 28.5 -0.5 
C 43.59375 -0.5 48.09375 10 48.09375 11.6875 
C 48.09375 13.171875 46.59375 13.171875 46 13.171875 
C 44.40625 13.171875 44.296875 12.875 43.703125 11.59375 
C 41.09375 5.15625 34.5 3.078125 29.703125 3.078125 
C 15.203125 3.078125 15.09375 16.453125 15.09375 22 
z
M 15.09375 24.890625 
C 15.296875 28.9375 15.40625 32.8125 17.5 36.375 
C 19.40625 39.546875 22.90625 41.71875 27.203125 41.71875 
C 37.90625 41.71875 38.796875 29.828125 38.90625 24.890625 
z
" id="CMBX12-101"/>
     <path d="M 21.09375 40 
L 35.5 40 
L 35.5 44.265625 
L 21.09375 44.265625 
L 21.09375 63 
L 16.90625 63 
C 16.796875 53.203125 12 43.375 2.09375 43.375 
L 2.09375 40 
L 10.203125 40 
L 10.203125 12.328125 
C 10.203125 1.78125 18.40625 -0.5 25.59375 -0.5 
C 33 -0.5 37.40625 5.078125 37.40625 12.421875 
L 37.40625 17.703125 
L 33.203125 17.703125 
L 33.203125 12.53125 
C 33.203125 5.953125 30.203125 3.078125 27.09375 3.078125 
C 21.09375 3.078125 21.09375 9.75 21.09375 12.03125 
z
" id="CMBX12-116"/>
     <path d="M 20.796875 22.046875 
C 20.796875 25.296875 21.5 41 33.203125 41 
C 31.796875 39.921875 31.09375 38.25 31.09375 36.5 
C 31.09375 32.484375 34.40625 30.8125 36.90625 30.8125 
C 39.40625 30.8125 42.703125 32.484375 42.703125 36.515625 
C 42.703125 41.53125 37.5 44.28125 32.703125 44.28125 
C 24.796875 44.28125 21.40625 37.515625 20 33.390625 
L 19.90625 33.390625 
L 19.90625 44 
L 3.5 44 
L 3.5 39.328125 
C 9.703125 39.328125 10.40625 39.328125 10.40625 35.46875 
L 10.40625 4.0625 
L 3.5 4.0625 
L 3.5 -0.203125 
C 5.796875 0 13.296875 0 16.09375 0 
C 19 0 27.09375 0 29.5 -0.203125 
L 29.5 4.0625 
L 20.796875 4.0625 
z
" id="CMBX12-114"/>
    </defs>
    <g transform="translate(256.484468 378.60429)scale(0.24 -0.24)">
     <use transform="scale(0.996264)" xlink:href="#CMTCSC10-105"/>
     <use transform="translate(52.303435 0)scale(0.996264)" xlink:href="#CMTCSC10-110"/>
     <use transform="translate(104.60687 0)scale(0.996264)" xlink:href="#CMTCSC10-100"/>
     <use transform="translate(156.910305 0)scale(0.996264)" xlink:href="#CMTCSC10-101"/>
     <use transform="translate(209.213739 0)scale(0.996264)" xlink:href="#CMTCSC10-112"/>
     <use transform="translate(261.517174 0)scale(0.996264)" xlink:href="#CMTCSC10-101"/>
     <use transform="translate(313.820609 0)scale(0.996264)" xlink:href="#CMTCSC10-110"/>
     <use transform="translate(366.124044 0)scale(0.996264)" xlink:href="#CMTCSC10-100"/>
     <use transform="translate(418.427479 0)scale(0.996264)" xlink:href="#CMTCSC10-101"/>
     <use transform="translate(470.730914 0)scale(0.996264)" xlink:href="#CMTCSC10-110"/>
     <use transform="translate(523.034349 0)scale(0.996264)" xlink:href="#CMTCSC10-116"/>
     <use transform="translate(612.697684 0)scale(0.996264)" xlink:href="#CMBX12-105"/>
     <use transform="translate(643.830934 0)scale(0.996264)" xlink:href="#CMBX12-115"/>
     <use transform="translate(725.400172 0)scale(0.996264)" xlink:href="#CMBX12-98"/>
     <use transform="translate(790.779997 0)scale(0.996264)" xlink:href="#CMBX12-101"/>
     <use transform="translate(841.919265 0)scale(0.996264)" xlink:href="#CMBX12-116"/>
     <use transform="translate(885.505815 0)scale(0.996264)" xlink:href="#CMBX12-116"/>
     <use transform="translate(929.092365 0)scale(0.996264)" xlink:href="#CMBX12-101"/>
     <use transform="translate(980.231633 0)scale(0.996264)" xlink:href="#CMBX12-114"/>
    </g>
   </g>
   <g id="text_20">
    <!-- \texttt{\textsc{dependent}}\textbf{ is better} -->
    <g transform="translate(616.826162 724.149358)scale(0.24 -0.24)">
     <use transform="scale(0.996264)" xlink:href="#CMTCSC10-100"/>
     <use transform="translate(52.303435 0)scale(0.996264)" xlink:href="#CMTCSC10-101"/>
     <use transform="translate(104.60687 0)scale(0.996264)" xlink:href="#CMTCSC10-112"/>
     <use transform="translate(156.910305 0)scale(0.996264)" xlink:href="#CMTCSC10-101"/>
     <use transform="translate(209.213739 0)scale(0.996264)" xlink:href="#CMTCSC10-110"/>
     <use transform="translate(261.517174 0)scale(0.996264)" xlink:href="#CMTCSC10-100"/>
     <use transform="translate(313.820609 0)scale(0.996264)" xlink:href="#CMTCSC10-101"/>
     <use transform="translate(366.124044 0)scale(0.996264)" xlink:href="#CMTCSC10-110"/>
     <use transform="translate(418.427479 0)scale(0.996264)" xlink:href="#CMTCSC10-116"/>
     <use transform="translate(508.090814 0)scale(0.996264)" xlink:href="#CMBX12-105"/>
     <use transform="translate(539.224065 0)scale(0.996264)" xlink:href="#CMBX12-115"/>
     <use transform="translate(620.793302 0)scale(0.996264)" xlink:href="#CMBX12-98"/>
     <use transform="translate(686.173128 0)scale(0.996264)" xlink:href="#CMBX12-101"/>
     <use transform="translate(737.312395 0)scale(0.996264)" xlink:href="#CMBX12-116"/>
     <use transform="translate(780.898945 0)scale(0.996264)" xlink:href="#CMBX12-116"/>
     <use transform="translate(824.485496 0)scale(0.996264)" xlink:href="#CMBX12-101"/>
     <use transform="translate(875.624763 0)scale(0.996264)" xlink:href="#CMBX12-114"/>
    </g>
   </g>
  </g>
 </g>
 <defs>
  <clipPath id="p2214718fe7">
   <rect height="831.6" width="837" x="135" y="129.6"/>
  </clipPath>
 </defs>
</svg>
