<?xml version="1.0" encoding="utf-8" standalone="no"?>
<!DOCTYPE svg PUBLIC "-//W3C//DTD SVG 1.1//EN"
  "http://www.w3.org/Graphics/SVG/1.1/DTD/svg11.dtd">
<!-- Created with matplotlib (http://matplotlib.org/) -->
<svg height="360pt" version="1.1" viewBox="0 0 1080 360" width="1080pt" xmlns="http://www.w3.org/2000/svg" xmlns:xlink="http://www.w3.org/1999/xlink">
 <defs>
  <style type="text/css">
*{stroke-linecap:butt;stroke-linejoin:round;}
  </style>
 </defs>
 <g id="figure_1">
  <g id="patch_1">
   <path d="M 0 360 
L 1080 360 
L 1080 0 
L 0 0 
z
" style="fill:#ffffff;"/>
  </g>
  <g id="axes_1">
   <g id="line2d_1">
    <path clip-path="url(#pe93e72d672)" d="M 173.045455 183.714565 
L 257.590909 64.152497 
L 342.136364 183.274441 
L 426.681818 301.916703 
L 511.227273 182.750419 
L 595.772727 63.368457 
L 680.318182 182.830932 
L 764.863636 302.555905 
L 849.409091 182.50131 
L 933.954545 64.067842 
" style="fill:none;opacity:0.5;stroke:#440154;stroke-linecap:square;stroke-width:1.5;"/>
   </g>
   <g id="line2d_2">
    <path clip-path="url(#pe93e72d672)" d="M 173.045455 183.533542 
L 257.590909 63.736483 
L 342.136364 183.483323 
L 426.681818 302.224465 
L 511.227273 182.230122 
L 595.772727 63.970836 
L 680.318182 182.865454 
L 764.863636 302.56277 
L 849.409091 182.899779 
L 933.954545 64.649031 
" style="fill:none;opacity:0.5;stroke:#440154;stroke-linecap:square;stroke-width:1.5;"/>
   </g>
   <g id="line2d_3">
    <path clip-path="url(#pe93e72d672)" d="M 173.045455 179.947684 
L 257.590909 300.398059 
L 342.136364 173.710762 
L 426.681818 62.924102 
L 511.227273 184.638043 
L 595.772727 302.349067 
L 680.318182 181.861198 
L 764.863636 58.963312 
L 849.409091 177.16798 
" style="fill:none;opacity:0.5;stroke:#440154;stroke-linecap:square;stroke-width:1.5;"/>
   </g>
   <g id="line2d_4">
    <path clip-path="url(#pe93e72d672)" d="M 173.045455 65.702061 
L 257.590909 183.830873 
L 342.136364 301.59415 
L 426.681818 182.002258 
L 511.227273 64.301711 
L 595.772727 183.247408 
L 680.318182 302.419285 
L 764.863636 184.881928 
L 849.409091 64.471969 
" style="fill:none;opacity:0.5;stroke:#440154;stroke-linecap:square;stroke-width:1.5;"/>
   </g>
   <g id="line2d_5">
    <path clip-path="url(#pe93e72d672)" d="M 173.045455 183.56186 
L 257.590909 64.293389 
L 342.136364 183.492339 
L 426.681818 301.965861 
L 511.227273 182.707724 
L 595.772727 63.358434 
L 680.318182 182.814875 
L 764.863636 302.650116 
L 849.409091 182.679289 
L 933.954545 63.974677 
" style="fill:none;opacity:0.5;stroke:#440154;stroke-linecap:square;stroke-width:1.5;"/>
   </g>
   <g id="line2d_6">
    <path clip-path="url(#pe93e72d672)" d="M 173.045455 199.491431 
L 257.590909 182.63401 
L 342.136364 74.814397 
L 426.681818 192.622028 
L 511.227273 296.873798 
L 595.772727 177.673193 
L 680.318182 69.559232 
L 764.863636 188.921788 
" style="fill:none;opacity:0.5;stroke:#440154;stroke-linecap:square;stroke-width:1.5;"/>
   </g>
   <g id="line2d_7">
    <path clip-path="url(#pe93e72d672)" d="M 173.045455 65.030234 
L 257.590909 183.535263 
L 342.136364 301.540682 
L 426.681818 183.275963 
" style="fill:none;opacity:0.5;stroke:#440154;stroke-linecap:square;stroke-width:1.5;"/>
   </g>
   <g id="line2d_8">
    <path clip-path="url(#pe93e72d672)" d="M 173.045455 182.696373 
L 257.590909 307.8 
L 342.136364 191.199743 
L 426.681818 55.8 
L 511.227273 190.419458 
L 595.772727 297.741751 
L 680.318182 187.042806 
L 764.863636 65.764032 
L 849.409091 185.837658 
" style="fill:none;opacity:0.5;stroke:#440154;stroke-linecap:square;stroke-width:1.5;"/>
   </g>
   <g id="line2d_9">
    <path clip-path="url(#pe93e72d672)" d="M 173.045455 118.269525 
L 257.590909 181.288267 
L 342.136364 190.967784 
L 426.681818 188.182665 
L 511.227273 179.03844 
L 595.772727 178.25892 
L 680.318182 187.841867 
" style="fill:none;opacity:0.5;stroke:#440154;stroke-linecap:square;stroke-width:1.5;"/>
   </g>
   <g id="line2d_10">
    <path clip-path="url(#pe93e72d672)" d="M 173.045455 211.217272 
L 257.590909 185.938207 
L 342.136364 134.753823 
L 426.681818 182.853077 
" style="fill:none;opacity:0.5;stroke:#440154;stroke-linecap:square;stroke-width:1.5;"/>
   </g>
   <g id="line2d_11">
    <path clip-path="url(#pe93e72d672)" d="M 173.045455 77.58152 
L 257.590909 182.896036 
L 342.136364 301.250789 
L 426.681818 182.886053 
L 511.227273 63.932981 
L 595.772727 182.820177 
L 680.318182 302.795947 
L 764.863636 183.325656 
L 849.409091 64.026905 
L 933.954545 183.11196 
" style="fill:none;opacity:0.5;stroke:#440154;stroke-linecap:square;stroke-width:1.5;"/>
   </g>
   <g id="line2d_12">
    <path clip-path="url(#pe93e72d672)" d="M 173.045455 174.895178 
L 257.590909 188.589608 
L 342.136364 68.615456 
L 426.681818 188.379848 
L 511.227273 305.668511 
L 595.772727 179.264197 
L 680.318182 63.677816 
L 764.863636 184.22043 
L 849.409091 304.401845 
L 933.954545 182.769495 
" style="fill:none;opacity:0.5;stroke:#440154;stroke-linecap:square;stroke-width:1.5;"/>
   </g>
   <g id="line2d_13">
    <path clip-path="url(#pe93e72d672)" d="M 173.045455 173.621523 
L 257.590909 183.210646 
L 342.136364 76.895115 
L 426.681818 193.175606 
L 511.227273 296.879103 
L 595.772727 174.338757 
L 680.318182 72.24635 
L 764.863636 189.298282 
L 849.409091 295.7252 
" style="fill:none;opacity:0.5;stroke:#440154;stroke-linecap:square;stroke-width:1.5;"/>
   </g>
   <g id="line2d_14">
    <path clip-path="url(#pe93e72d672)" d="M 173.045455 183.193199 
L 257.590909 64.472578 
L 342.136364 181.188095 
L 426.681818 301.651896 
L 511.227273 182.02893 
L 595.772727 64.441675 
L 680.318182 182.768101 
L 764.863636 302.992665 
L 849.409091 184.025568 
L 933.954545 63.085189 
" style="fill:none;opacity:0.5;stroke:#440154;stroke-linecap:square;stroke-width:1.5;"/>
   </g>
   <g id="line2d_15">
    <path clip-path="url(#pe93e72d672)" d="M 173.045455 76.86916 
L 257.590909 182.898652 
L 342.136364 301.253665 
L 426.681818 182.903674 
L 511.227273 63.924349 
L 595.772727 182.817896 
L 680.318182 302.726695 
L 764.863636 183.336963 
L 849.409091 64.020518 
L 933.954545 183.082817 
" style="fill:none;opacity:0.5;stroke:#440154;stroke-linecap:square;stroke-width:1.5;"/>
   </g>
   <g id="line2d_16">
    <path clip-path="url(#pe93e72d672)" d="M 173.045455 183.565252 
L 257.590909 64.294331 
L 342.136364 183.488216 
L 426.681818 301.966967 
L 511.227273 182.707296 
L 595.772727 63.359283 
L 680.318182 182.815156 
L 764.863636 302.647672 
L 849.409091 182.677743 
L 933.954545 63.972315 
" style="fill:none;opacity:0.5;stroke:#440154;stroke-linecap:square;stroke-width:1.5;"/>
   </g>
   <g id="line2d_17">
    <path clip-path="url(#pe93e72d672)" d="M 173.045455 72.634873 
L 257.590909 182.907645 
L 342.136364 301.008032 
L 426.681818 182.599638 
L 511.227273 64.226565 
L 595.772727 182.529751 
L 680.318182 302.878945 
L 764.863636 183.202935 
L 849.409091 63.951385 
L 933.954545 182.9637 
" style="fill:none;opacity:0.5;stroke:#440154;stroke-linecap:square;stroke-width:1.5;"/>
   </g>
   <g id="line2d_18">
    <path clip-path="url(#pe93e72d672)" d="M 173.045455 182.990614 
L 257.590909 65.367658 
L 342.136364 181.543333 
L 426.681818 301.825405 
L 511.227273 182.352715 
L 595.772727 64.112556 
L 680.318182 182.416618 
L 764.863636 302.769034 
L 849.409091 184.00888 
L 933.954545 63.350009 
" style="fill:none;opacity:0.5;stroke:#440154;stroke-linecap:square;stroke-width:1.5;"/>
   </g>
   <g id="line2d_19">
    <path clip-path="url(#pe93e72d672)" d="M 173.045455 183.623336 
L 257.590909 64.265102 
L 342.136364 183.394677 
L 426.681818 301.969649 
L 511.227273 182.69855 
L 595.772727 63.373537 
L 680.318182 182.826113 
L 764.863636 302.59855 
L 849.409091 182.65189 
L 933.954545 64.008418 
" style="fill:none;opacity:0.5;stroke:#440154;stroke-linecap:square;stroke-width:1.5;"/>
   </g>
   <g id="line2d_20">
    <path clip-path="url(#pe93e72d672)" d="M 173.045455 183.569931 
L 257.590909 64.251254 
L 342.136364 183.486696 
L 426.681818 301.93579 
L 511.227273 182.71474 
L 595.772727 63.398317 
L 680.318182 182.751522 
L 764.863636 302.634126 
L 849.409091 182.68728 
L 933.954545 63.915729 
" style="fill:none;opacity:0.5;stroke:#440154;stroke-linecap:square;stroke-width:1.5;"/>
   </g>
   <g id="line2d_21">
    <path clip-path="url(#pe93e72d672)" d="M 173.045455 62.132141 
L 257.590909 180.266476 
L 342.136364 301.196924 
L 426.681818 181.17106 
L 511.227273 65.302099 
" style="fill:none;opacity:0.5;stroke:#440154;stroke-linecap:square;stroke-width:1.5;"/>
   </g>
   <g id="line2d_22">
    <path clip-path="url(#pe93e72d672)" d="M 173.045455 182.990405 
L 257.590909 65.367311 
L 342.136364 181.543146 
L 426.681818 301.825465 
L 511.227273 182.353341 
L 595.772727 64.112517 
L 680.318182 182.416977 
L 764.863636 302.768569 
L 849.409091 184.008588 
L 933.954545 63.350188 
" style="fill:none;opacity:0.5;stroke:#440154;stroke-linecap:square;stroke-width:1.5;"/>
   </g>
   <g id="line2d_23">
    <path clip-path="url(#pe93e72d672)" d="M 173.045455 183.871227 
L 257.590909 63.57008 
L 342.136364 181.923604 
L 426.681818 302.147554 
L 511.227273 183.143456 
L 595.772727 63.104553 
L 680.318182 186.031597 
L 764.863636 301.511825 
L 849.409091 181.551995 
" style="fill:none;opacity:0.5;stroke:#440154;stroke-linecap:square;stroke-width:1.5;"/>
   </g>
   <g id="line2d_24">
    <path clip-path="url(#pe93e72d672)" d="M 173.045455 182.137509 
L 257.590909 64.374118 
L 342.136364 182.22661 
L 426.681818 302.882178 
" style="fill:none;opacity:0.5;stroke:#fde725;stroke-linecap:square;stroke-width:1.5;"/>
   </g>
   <g id="line2d_25">
    <path clip-path="url(#pe93e72d672)" d="M 173.045455 181.761511 
L 257.590909 64.568016 
L 342.136364 182.903995 
L 426.681818 302.529537 
" style="fill:none;opacity:0.5;stroke:#fde725;stroke-linecap:square;stroke-width:1.5;"/>
   </g>
   <g id="text_1">
    <!-- Independent vs dependent shapelets -->
    <defs>
     <path d="M 17.09375 69 
L 8.703125 69 
L 8.703125 0 
L 17.09375 0 
z
" id="CMSS17-73"/>
     <path d="M 40.90625 29.328125 
C 40.90625 35.671875 39.40625 44 28.09375 44 
C 21.703125 44 17.5 40.71875 14.703125 37.328125 
L 14.703125 43.09375 
L 7.40625 43.09375 
L 7.40625 0 
L 15 0 
L 15 24.359375 
C 15 30.6875 17.40625 37.9375 24.203125 37.9375 
C 33 37.9375 33.296875 32 33.296875 28.578125 
L 33.296875 0 
L 40.90625 0 
z
" id="CMSS17-110"/>
     <path d="M 40.796875 69 
L 33.40625 69 
L 33.40625 38.09375 
C 30.296875 40.671875 25.203125 43.0625 19.59375 43.0625 
C 10.5 43.0625 3.296875 33.296875 3.296875 21.046875 
C 3.296875 8.78125 10.40625 -1 19.296875 -1 
C 26.203125 -1 30.796875 2.6875 33.203125 4.78125 
L 33.203125 -0.203125 
L 40.796875 -0.203125 
z
M 33.203125 13.0625 
C 33.203125 11.671875 33.203125 10.203125 30.09375 7.53125 
C 28.09375 5.859375 25.703125 5.078125 23.40625 5.078125 
C 18 5.078125 10.90625 9 10.90625 20.9375 
C 10.90625 33.34375 18.90625 37 24.40625 37 
C 28.09375 37 31.09375 35.21875 33.203125 32.265625 
z
" id="CMSS17-100"/>
     <path d="M 39.09375 21.515625 
C 39.09375 24.84375 38.90625 31.296875 35.703125 36.640625 
C 32.203125 42.390625 26.5 44 22.203125 44 
C 11.796875 44 3 34.1875 3 21.484375 
C 3 9.09375 12.09375 -1 23.59375 -1 
C 28.09375 -1 33.59375 0.296875 38.59375 3.875 
C 38.59375 4.28125 38.40625 6.46875 38.296875 6.5625 
C 38.296875 6.765625 38 9.84375 38 10.25 
C 33.203125 6.359375 27.703125 5.078125 23.703125 5.078125 
C 17.296875 5.078125 10.40625 10.421875 10.09375 21.515625 
z
M 10.90625 27 
C 12.203125 32.5625 16.59375 37.828125 22.203125 37.828125 
C 23.703125 37.828125 30.703125 37.828125 32.5 27 
z
" id="CMSS17-101"/>
     <path d="M 15.09375 5.203125 
C 18.40625 2.015625 22.90625 -0.078125 27.703125 -0.078125 
C 37 -0.078125 45 9.421875 45 22.0625 
C 45 33.734375 39 44 30.40625 44 
C 25.40625 44 19.40625 42.21875 14.90625 38.625 
L 14.90625 43.203125 
L 7.5 43.203125 
L 7.5 -19 
L 15.09375 -19 
z
M 15.09375 32.8125 
C 15.90625 34 19.296875 37.734375 24.796875 37.734375 
C 31.796875 37.734375 37.40625 30.625 37.40625 22.0625 
C 37.40625 12.296875 30.59375 6 23.90625 6 
C 21.90625 6 19.796875 6.484375 17.796875 8.171875 
C 15.09375 10.53125 15.09375 12 15.09375 13.390625 
z
" id="CMSS17-112"/>
     <path d="M 16.703125 37 
L 29.703125 37 
L 29.703125 42.765625 
L 16.703125 42.765625 
L 16.703125 55 
L 9.59375 55 
L 9.59375 42.765625 
L 1.703125 42.765625 
L 1.703125 37 
L 9.40625 37 
L 9.40625 11.703125 
C 9.40625 6 10.703125 -1 17.296875 -1 
C 22.296875 -1 26.90625 0.390625 31.296875 2.6875 
L 29.703125 8.5625 
C 27.296875 6.46875 24.40625 5.265625 21.296875 5.265625 
C 16.90625 5.265625 16.703125 10.875 16.703125 13.375 
z
" id="CMSS17-116"/>
     <path d="M 41.796875 43 
L 34 43 
L 27.296875 24.3125 
C 25.203125 18.203125 22.203125 9.796875 21.703125 5.5 
L 21.59375 5.5 
C 21.40625 7.3125 20.59375 9.90625 20.09375 11.703125 
C 19.5 13.90625 18.703125 16.5 18.09375 18.3125 
L 9.296875 43 
L 1.296875 43 
L 17.09375 0 
L 26 0 
z
" id="CMSS17-118"/>
     <path d="M 32.203125 41.046875 
C 26.296875 43.859375 21.703125 43.859375 18.703125 43.859375 
C 11.59375 43.859375 3.09375 41.375 3.09375 31.296875 
C 3.09375 21.234375 14.09375 19.03125 17.09375 18.421875 
C 21.703125 17.53125 26.796875 16.53125 26.796875 11.5625 
C 26.796875 5.265625 19.59375 5.265625 18.296875 5.265625 
C 14.296875 5.265625 8.796875 6.359375 3.796875 9.96875 
L 2.59375 3.28125 
C 8.296875 0 13.796875 -1 18.40625 -1 
C 30.703125 -1 33.796875 6.5 33.796875 12.203125 
C 33.796875 17.09375 31 20.390625 29.09375 21.890625 
C 25.796875 24.5 24.59375 24.796875 16.40625 26.5 
C 15 26.703125 10.09375 27.796875 10.09375 32.28125 
C 10.09375 38 16.40625 38 17.796875 38 
C 24.296875 38 28.296875 35.984375 31 34.5 
z
" id="CMSS17-115"/>
     <path d="M 40.90625 29.546875 
C 40.90625 35.8125 39.40625 44.0625 28.09375 44.0625 
C 21.796875 44.0625 17.703125 40.984375 14.796875 37.609375 
L 14.796875 69.5 
L 7.40625 69.5 
L 7.40625 0.5 
L 15 0.5 
L 15 24.578125 
C 15 30.828125 17.40625 38 24.203125 38 
C 33 38 33.296875 32.125 33.296875 28.734375 
L 33.296875 0.5 
L 40.90625 0.5 
z
" id="CMSS17-104"/>
     <path d="M 37.59375 27.984375 
C 37.59375 37.375 30.90625 43.875 21.90625 43.875 
C 17.5 43.875 12.703125 43.078125 7.203125 39.890625 
L 7.796875 33.359375 
C 10.296875 35.125 14.59375 38 21.796875 38 
C 26.90625 38 30 34.0625 30 27.84375 
L 30 24 
C 14 24 4 19.34375 4 11.34375 
C 4 7.203125 6.5 -1 14.796875 -1 
C 16.296875 -1 24.40625 -1 30.203125 3.390625 
L 30.203125 -0.296875 
L 37.59375 -0.296875 
z
M 30 12.75 
C 30 10.953125 30 8.5625 27 6.78125 
C 24.40625 5.078125 21.09375 5.078125 19.703125 5.078125 
C 14.703125 5.078125 11.296875 7.984375 11.296875 11.625 
C 11.296875 18.921875 26.90625 18.921875 30 18.921875 
z
" id="CMSS17-97"/>
     <path d="M 14.796875 69 
L 7.40625 69 
L 7.40625 0 
L 14.796875 0 
z
" id="CMSS17-108"/>
    </defs>
    <g transform="translate(465.795939 37.2)scale(0.12 -0.12)">
     <use transform="scale(0.996264)" xlink:href="#CMSS17-73"/>
     <use transform="translate(25.783926 0)scale(0.996264)" xlink:href="#CMSS17-110"/>
     <use transform="translate(73.988869 0)scale(0.996264)" xlink:href="#CMSS17-100"/>
     <use transform="translate(122.193812 0)scale(0.996264)" xlink:href="#CMSS17-101"/>
     <use transform="translate(163.832634 0)scale(0.996264)" xlink:href="#CMSS17-112"/>
     <use transform="translate(214.640016 0)scale(0.996264)" xlink:href="#CMSS17-101"/>
     <use transform="translate(256.278838 0)scale(0.996264)" xlink:href="#CMSS17-110"/>
     <use transform="translate(304.483781 0)scale(0.996264)" xlink:href="#CMSS17-100"/>
     <use transform="translate(352.688724 0)scale(0.996264)" xlink:href="#CMSS17-101"/>
     <use transform="translate(394.327546 0)scale(0.996264)" xlink:href="#CMSS17-110"/>
     <use transform="translate(442.532489 0)scale(0.996264)" xlink:href="#CMSS17-116"/>
     <use transform="translate(507.593169 0)scale(0.996264)" xlink:href="#CMSS17-118"/>
     <use transform="translate(550.59331 0)scale(0.996264)" xlink:href="#CMSS17-115"/>
     <use transform="translate(617.735965 0)scale(0.996264)" xlink:href="#CMSS17-100"/>
     <use transform="translate(665.940908 0)scale(0.996264)" xlink:href="#CMSS17-101"/>
     <use transform="translate(707.57973 0)scale(0.996264)" xlink:href="#CMSS17-112"/>
     <use transform="translate(758.387112 0)scale(0.996264)" xlink:href="#CMSS17-101"/>
     <use transform="translate(800.025934 0)scale(0.996264)" xlink:href="#CMSS17-110"/>
     <use transform="translate(848.230877 0)scale(0.996264)" xlink:href="#CMSS17-100"/>
     <use transform="translate(896.435821 0)scale(0.996264)" xlink:href="#CMSS17-101"/>
     <use transform="translate(938.074643 0)scale(0.996264)" xlink:href="#CMSS17-110"/>
     <use transform="translate(986.279586 0)scale(0.996264)" xlink:href="#CMSS17-116"/>
     <use transform="translate(1051.340265 0)scale(0.996264)" xlink:href="#CMSS17-115"/>
     <use transform="translate(1087.253807 0)scale(0.996264)" xlink:href="#CMSS17-104"/>
     <use transform="translate(1135.45875 0)scale(0.996264)" xlink:href="#CMSS17-97"/>
     <use transform="translate(1180.380671 0)scale(0.996264)" xlink:href="#CMSS17-112"/>
     <use transform="translate(1231.188053 0)scale(0.996264)" xlink:href="#CMSS17-101"/>
     <use transform="translate(1272.826875 0)scale(0.996264)" xlink:href="#CMSS17-108"/>
     <use transform="translate(1295.007598 0)scale(0.996264)" xlink:href="#CMSS17-101"/>
     <use transform="translate(1336.64642 0)scale(0.996264)" xlink:href="#CMSS17-116"/>
     <use transform="translate(1370.477987 0)scale(0.996264)" xlink:href="#CMSS17-115"/>
    </g>
   </g>
   <g id="legend_1">
    <g id="patch_2">
     <path d="M 144.8 313.4 
L 258.369063 313.4 
Q 261.169063 313.4 261.169063 310.6 
L 261.169063 272.975943 
Q 261.169063 270.175943 258.369063 270.175943 
L 144.8 270.175943 
Q 142 270.175943 142 272.975943 
L 142 310.6 
Q 142 313.4 144.8 313.4 
z
" style="fill:#ffffff;opacity:0.8;stroke:#cccccc;stroke-linejoin:miter;"/>
    </g>
    <g id="line2d_26">
     <path d="M 147.6 280.675943 
L 175.6 280.675943 
" style="fill:none;opacity:0.5;stroke:#440154;stroke-linecap:square;stroke-width:1.5;"/>
    </g>
    <g id="line2d_27"/>
    <g id="text_2">
     <!-- dependent -->
     <g transform="translate(186.8 285.575943)scale(0.14 -0.14)">
      <use transform="scale(0.996264)" xlink:href="#CMSS17-100"/>
      <use transform="translate(48.204943 0)scale(0.996264)" xlink:href="#CMSS17-101"/>
      <use transform="translate(89.843765 0)scale(0.996264)" xlink:href="#CMSS17-112"/>
      <use transform="translate(140.651147 0)scale(0.996264)" xlink:href="#CMSS17-101"/>
      <use transform="translate(182.289969 0)scale(0.996264)" xlink:href="#CMSS17-110"/>
      <use transform="translate(230.494912 0)scale(0.996264)" xlink:href="#CMSS17-100"/>
      <use transform="translate(278.699855 0)scale(0.996264)" xlink:href="#CMSS17-101"/>
      <use transform="translate(320.338677 0)scale(0.996264)" xlink:href="#CMSS17-110"/>
      <use transform="translate(368.543621 0)scale(0.996264)" xlink:href="#CMSS17-116"/>
     </g>
    </g>
    <g id="line2d_28">
     <path d="M 147.6 300.187972 
L 175.6 300.187972 
" style="fill:none;opacity:0.5;stroke:#fde725;stroke-linecap:square;stroke-width:1.5;"/>
    </g>
    <g id="line2d_29"/>
    <g id="text_3">
     <!-- independent -->
     <defs>
      <path d="M 15.296875 65.359375 
L 6.90625 65.359375 
L 6.90625 57 
L 15.296875 57 
z
M 14.796875 42.796875 
L 7.40625 42.796875 
L 7.40625 0 
L 14.796875 0 
z
" id="CMSS17-105"/>
     </defs>
     <g transform="translate(186.8 305.087972)scale(0.14 -0.14)">
      <use transform="scale(0.996264)" xlink:href="#CMSS17-105"/>
      <use transform="translate(22.180723 0)scale(0.996264)" xlink:href="#CMSS17-110"/>
      <use transform="translate(70.385666 0)scale(0.996264)" xlink:href="#CMSS17-100"/>
      <use transform="translate(118.590609 0)scale(0.996264)" xlink:href="#CMSS17-101"/>
      <use transform="translate(160.229431 0)scale(0.996264)" xlink:href="#CMSS17-112"/>
      <use transform="translate(211.036813 0)scale(0.996264)" xlink:href="#CMSS17-101"/>
      <use transform="translate(252.675635 0)scale(0.996264)" xlink:href="#CMSS17-110"/>
      <use transform="translate(300.880578 0)scale(0.996264)" xlink:href="#CMSS17-100"/>
      <use transform="translate(349.085522 0)scale(0.996264)" xlink:href="#CMSS17-101"/>
      <use transform="translate(390.724344 0)scale(0.996264)" xlink:href="#CMSS17-110"/>
      <use transform="translate(438.929287 0)scale(0.996264)" xlink:href="#CMSS17-116"/>
     </g>
    </g>
   </g>
  </g>
 </g>
 <defs>
  <clipPath id="pe93e72d672">
   <rect height="277.2" width="837" x="135" y="43.2"/>
  </clipPath>
 </defs>
</svg>
