<?xml version="1.0" encoding="utf-8" standalone="no"?>
<!DOCTYPE svg PUBLIC "-//W3C//DTD SVG 1.1//EN"
  "http://www.w3.org/Graphics/SVG/1.1/DTD/svg11.dtd">
<!-- Created with matplotlib (http://matplotlib.org/) -->
<svg height="345pt" version="1.1" viewBox="0 0 460 345" width="460pt" xmlns="http://www.w3.org/2000/svg" xmlns:xlink="http://www.w3.org/1999/xlink">
 <defs>
  <style type="text/css">
*{stroke-linecap:butt;stroke-linejoin:round;}
  </style>
 </defs>
 <g id="figure_1">
  <g id="patch_1">
   <path d="M 0 345.6 
L 460.8 345.6 
L 460.8 0 
L 0 0 
z
" style="fill:#ffffff;"/>
  </g>
  <g id="axes_1">
   <g id="text_1">
    <!-- Class 0 -->
    <defs>
     <path d="M 54.703125 11.15625 
C 48 6.671875 44.90625 5.375 36.796875 5.375 
C 22.796875 5.375 14.59375 20.359375 14.59375 34.046875 
C 14.59375 48.625 23 63 37.203125 63 
C 43.59375 63 47.796875 61.21875 52.90625 58.046875 
L 54.296875 65.890625 
C 49.5 68.28125 43.40625 69.375 37.296875 69.375 
C 18.09375 69.375 6.203125 51.8125 6.203125 34.046875 
C 6.203125 14.484375 20.296875 -1 36.296875 -1 
C 44.90625 -1 47.90625 -0.296875 55.296875 4.375 
z
" id="CMSS17-67"/>
     <path d="M 14.796875 69 
L 7.40625 69 
L 7.40625 0 
L 14.796875 0 
z
" id="CMSS17-108"/>
     <path d="M 37.59375 27.984375 
C 37.59375 37.375 30.90625 43.875 21.90625 43.875 
C 17.5 43.875 12.703125 43.078125 7.203125 39.890625 
L 7.796875 33.359375 
C 10.296875 35.125 14.59375 38 21.796875 38 
C 26.90625 38 30 34.0625 30 27.84375 
L 30 24 
C 14 24 4 19.34375 4 11.34375 
C 4 7.203125 6.5 -1 14.796875 -1 
C 16.296875 -1 24.40625 -1 30.203125 3.390625 
L 30.203125 -0.296875 
L 37.59375 -0.296875 
z
M 30 12.75 
C 30 10.953125 30 8.5625 27 6.78125 
C 24.40625 5.078125 21.09375 5.078125 19.703125 5.078125 
C 14.703125 5.078125 11.296875 7.984375 11.296875 11.625 
C 11.296875 18.921875 26.90625 18.921875 30 18.921875 
z
" id="CMSS17-97"/>
     <path d="M 32.203125 41.046875 
C 26.296875 43.859375 21.703125 43.859375 18.703125 43.859375 
C 11.59375 43.859375 3.09375 41.375 3.09375 31.296875 
C 3.09375 21.234375 14.09375 19.03125 17.09375 18.421875 
C 21.703125 17.53125 26.796875 16.53125 26.796875 11.5625 
C 26.796875 5.265625 19.59375 5.265625 18.296875 5.265625 
C 14.296875 5.265625 8.796875 6.359375 3.796875 9.96875 
L 2.59375 3.28125 
C 8.296875 0 13.796875 -1 18.40625 -1 
C 30.703125 -1 33.796875 6.5 33.796875 12.203125 
C 33.796875 17.09375 31 20.390625 29.09375 21.890625 
C 25.796875 24.5 24.59375 24.796875 16.40625 26.5 
C 15 26.703125 10.09375 27.796875 10.09375 32.28125 
C 10.09375 38 16.40625 38 17.796875 38 
C 24.296875 38 28.296875 35.984375 31 34.5 
z
" id="CMSS17-115"/>
     <path d="M 43.09375 31.9375 
C 43.09375 37.578125 43 48.078125 38.90625 56.1875 
C 34.796875 64 28.203125 66.078125 23.5 66.078125 
C 16.703125 66.078125 10.90625 62.109375 7.90625 55.78125 
C 4.703125 49.15625 3.796875 42.328125 3.796875 31.9375 
C 3.796875 24.828125 4.09375 16.109375 7.703125 8.484375 
C 11.796875 0.078125 18.703125 -2 23.40625 -2 
C 29.59375 -2 35.59375 1.265625 39 8.09375 
C 42.5 15.21875 43.09375 23.03125 43.09375 31.9375 
z
M 23.40625 4.078125 
C 15.796875 4.078125 13.5 12.671875 12.796875 15.546875 
C 11.59375 20.46875 11.40625 25.21875 11.40625 33.03125 
C 11.40625 39.15625 11.40625 46.0625 13.296875 51.515625 
C 15.59375 57.828125 19.59375 60 23.40625 60 
C 30.796875 60 33.203125 52.6875 34 50.125 
C 35.5 44.890625 35.5 38.765625 35.5 33.03125 
C 35.5 23.84375 35.5 4.078125 23.40625 4.078125 
z
" id="CMSS17-48"/>
    </defs>
    <g transform="translate(57.6 101.952)scale(0.24 -0.24)">
     <use transform="scale(0.996264)" xlink:href="#CMSS17-67"/>
     <use transform="translate(59.855772 0)scale(0.996264)" xlink:href="#CMSS17-108"/>
     <use transform="translate(82.036495 0)scale(0.996264)" xlink:href="#CMSS17-97"/>
     <use transform="translate(126.958415 0)scale(0.996264)" xlink:href="#CMSS17-115"/>
     <use transform="translate(162.871957 0)scale(0.996264)" xlink:href="#CMSS17-115"/>
     <use transform="translate(230.014612 0)scale(0.996264)" xlink:href="#CMSS17-48"/>
    </g>
   </g>
  </g>
  <g id="axes_2">
   <g id="line2d_1">
    <path clip-path="url(#pd78dc567ab)" d="M 188.416684 101.952 
L 190.80385 93.350949 
L 193.191016 84.961684 
L 195.578182 76.990777 
L 197.965348 69.634498 
L 200.352513 63.073984 
L 202.739679 57.470775 
L 205.126845 52.962841 
L 207.514011 49.661184 
L 209.901176 47.647099 
L 212.288342 46.970182 
L 214.675508 47.647099 
L 217.062674 49.661184 
L 219.44984 52.962841 
L 221.837005 57.470775 
L 224.224171 63.073984 
L 226.611337 69.634498 
L 228.998503 76.990777 
L 231.385668 84.961684 
L 233.772834 93.350949 
L 236.16 101.952 
L 238.547166 110.553051 
L 240.934332 118.942316 
L 243.321497 126.913223 
L 245.708663 134.269502 
L 248.095829 140.830016 
L 250.482995 146.433225 
L 252.87016 150.941159 
L 255.257326 154.242816 
L 257.644492 156.256901 
L 260.031658 156.933818 
L 262.418824 156.256901 
L 264.805989 154.242816 
L 267.193155 150.941159 
L 269.580321 146.433225 
L 271.967487 140.830016 
L 274.354652 134.269502 
L 276.741818 126.913223 
L 279.128984 118.942316 
L 281.51615 110.553051 
L 283.903316 101.952 
" style="fill:none;stroke:#440154;stroke-linecap:square;stroke-width:1.5;"/>
   </g>
  </g>
  <g id="axes_3">
   <g id="line2d_2">
    <path clip-path="url(#p7a6a2be8fb)" d="M 314.459037 46.970182 
L 316.846203 64.172284 
L 319.233369 80.950814 
L 321.620535 96.892628 
L 324.007701 111.605186 
L 326.394866 124.726215 
L 328.782032 135.932632 
L 331.169198 144.948499 
L 333.556364 151.551815 
L 335.943529 155.579983 
L 338.330695 156.933818 
L 340.717861 155.579983 
L 343.105027 151.551815 
L 345.492193 144.948499 
L 347.879358 135.932632 
L 350.266524 124.726215 
L 352.65369 111.605186 
L 355.040856 96.892628 
L 357.428021 80.950814 
L 359.815187 64.172284 
L 362.202353 46.970182 
L 364.589519 64.172284 
L 366.976684 80.950814 
L 369.36385 96.892628 
L 371.751016 111.605186 
L 374.138182 124.726215 
L 376.525348 135.932632 
L 378.912513 144.948499 
L 381.299679 151.551815 
L 383.686845 155.579983 
L 386.074011 156.933818 
L 388.461176 155.579983 
L 390.848342 151.551815 
L 393.235508 144.948499 
L 395.622674 135.932632 
L 398.00984 124.726215 
L 400.397005 111.605186 
L 402.784171 96.892628 
L 405.171337 80.950814 
L 407.558503 64.172284 
L 409.945668 46.970182 
" style="fill:none;stroke:#440154;stroke-linecap:square;stroke-width:1.5;"/>
   </g>
  </g>
  <g id="axes_4">
   <g id="text_2">
    <!-- Class 1 -->
    <defs>
     <path d="M 28.40625 67 
L 26.5 67 
C 21.09375 61.5625 14.796875 60.78125 8.40625 60.78125 
L 8.40625 55 
C 11.296875 55 16 55 20.703125 57.296875 
L 20.703125 5.765625 
L 8.90625 5.765625 
L 8.90625 0 
L 40.203125 0 
L 40.203125 5.765625 
L 28.40625 5.765625 
z
" id="CMSS17-49"/>
    </defs>
    <g transform="translate(57.6 247.104)scale(0.24 -0.24)">
     <use transform="scale(0.996264)" xlink:href="#CMSS17-67"/>
     <use transform="translate(59.855772 0)scale(0.996264)" xlink:href="#CMSS17-108"/>
     <use transform="translate(82.036495 0)scale(0.996264)" xlink:href="#CMSS17-97"/>
     <use transform="translate(126.958415 0)scale(0.996264)" xlink:href="#CMSS17-115"/>
     <use transform="translate(162.871957 0)scale(0.996264)" xlink:href="#CMSS17-115"/>
     <use transform="translate(230.014612 0)scale(0.996264)" xlink:href="#CMSS17-49"/>
    </g>
   </g>
  </g>
  <g id="axes_5">
   <g id="line2d_3">
    <path clip-path="url(#p72ef673723)" d="M 188.416684 247.104 
L 190.80385 255.705051 
L 193.191016 264.094316 
L 195.578182 272.065223 
L 197.965348 279.421502 
L 200.352513 285.982016 
L 202.739679 291.585225 
L 205.126845 296.093159 
L 207.514011 299.394816 
L 209.901176 301.408901 
L 212.288342 302.085818 
L 214.675508 301.408901 
L 217.062674 299.394816 
L 219.44984 296.093159 
L 221.837005 291.585225 
L 224.224171 285.982016 
L 226.611337 279.421502 
L 228.998503 272.065223 
L 231.385668 264.094316 
L 233.772834 255.705051 
L 236.16 247.104 
L 238.547166 238.502949 
L 240.934332 230.113684 
L 243.321497 222.142777 
L 245.708663 214.786498 
L 248.095829 208.225984 
L 250.482995 202.622775 
L 252.87016 198.114841 
L 255.257326 194.813184 
L 257.644492 192.799099 
L 260.031658 192.122182 
L 262.418824 192.799099 
L 264.805989 194.813184 
L 267.193155 198.114841 
L 269.580321 202.622775 
L 271.967487 208.225984 
L 274.354652 214.786498 
L 276.741818 222.142777 
L 279.128984 230.113684 
L 281.51615 238.502949 
L 283.903316 247.104 
" style="fill:none;stroke:#5ec962;stroke-linecap:square;stroke-width:1.5;"/>
   </g>
  </g>
  <g id="axes_6">
   <g id="line2d_4">
    <path clip-path="url(#p458c1f0f4d)" d="M 314.459037 302.085818 
L 316.846203 284.883716 
L 319.233369 268.105186 
L 321.620535 252.163372 
L 324.007701 237.450814 
L 326.394866 224.329785 
L 328.782032 213.123368 
L 331.169198 204.107501 
L 333.556364 197.504185 
L 335.943529 193.476017 
L 338.330695 192.122182 
L 340.717861 193.476017 
L 343.105027 197.504185 
L 345.492193 204.107501 
L 347.879358 213.123368 
L 350.266524 224.329785 
L 352.65369 237.450814 
L 355.040856 252.163372 
L 357.428021 268.105186 
L 359.815187 284.883716 
L 362.202353 302.085818 
L 364.589519 284.883716 
L 366.976684 268.105186 
L 369.36385 252.163372 
L 371.751016 237.450814 
L 374.138182 224.329785 
L 376.525348 213.123368 
L 378.912513 204.107501 
L 381.299679 197.504185 
L 383.686845 193.476017 
L 386.074011 192.122182 
L 388.461176 193.476017 
L 390.848342 197.504185 
L 393.235508 204.107501 
L 395.622674 213.123368 
L 398.00984 224.329785 
L 400.397005 237.450814 
L 402.784171 252.163372 
L 405.171337 268.105186 
L 407.558503 284.883716 
L 409.945668 302.085818 
" style="fill:none;stroke:#5ec962;stroke-linecap:square;stroke-width:1.5;"/>
   </g>
  </g>
 </g>
 <defs>
  <clipPath id="pd78dc567ab">
   <rect height="120.96" width="105.035294" x="183.642353" y="41.472"/>
  </clipPath>
  <clipPath id="p7a6a2be8fb">
   <rect height="120.96" width="105.035294" x="309.684706" y="41.472"/>
  </clipPath>
  <clipPath id="p72ef673723">
   <rect height="120.96" width="105.035294" x="183.642353" y="186.624"/>
  </clipPath>
  <clipPath id="p458c1f0f4d">
   <rect height="120.96" width="105.035294" x="309.684706" y="186.624"/>
  </clipPath>
 </defs>
</svg>
